<?xml version="1.0" encoding="UTF-8" standalone="no"?> <!-- Created with Vectornator for iOS (http://vectornator.io/) --><!DOCTYPE svg PUBLIC "-//W3C//DTD SVG 1.1//EN" "http://www.w3.org/Graphics/SVG/1.1/DTD/svg11.dtd">
<svg height="100%" style="fill-rule:nonzero;clip-rule:evenodd;stroke-linecap:round;stroke-linejoin:round;" xmlns:xlink="http://www.w3.org/1999/xlink" xmlns="http://www.w3.org/2000/svg" xml:space="preserve" width="100%" xmlns:vectornator="http://vectornator.io" version="1.1" viewBox="0 0 1620 1620">
<metadata>
<vectornator:setting key="DimensionsVisible" value="1"/>
<vectornator:setting key="PencilOnly" value="0"/>
<vectornator:setting key="SnapToPoints" value="0"/>
<vectornator:setting key="OutlineMode" value="0"/>
<vectornator:setting key="RulersVisible" value="1"/>
<vectornator:setting key="GuidesVisible" value="1"/>
<vectornator:setting key="SnapToEdges" value="0"/>
<vectornator:setting key="CMYKEnabledKey" value="0"/>
<vectornator:setting key="DisplayWhiteBackground" value="0"/>
<vectornator:setting key="doHistoryDisabled" value="0"/>
<vectornator:setting key="SnapToGuides" value="1"/>
<vectornator:setting key="TimeLapseWatermarkDisabled" value="0"/>
<vectornator:setting key="Units" value="Pixels"/>
<vectornator:setting key="SnapToGrid" value="0"/>
<vectornator:setting key="IsolateActiveLayer" value="0"/>
<vectornator:setting key="DynamicGuides" value="0"/>
</metadata>
<defs/>
<g id="Layer 1" vectornator:layerName="Layer 1">
<path stroke="#000000" stroke-width="50.4924" d="M311.749+1385.91C153.547+1337.29+250.176+1040.6+527.575+723.231C804.975+405.863+1158.1+188+1316.3+236.621C1474.5+285.241+1377.88+581.934+1100.48+899.302C823.076+1216.67+469.951+1434.53+311.749+1385.91Z" fill="none" stroke-linecap="round" opacity="1" stroke-linejoin="round"/>
<path stroke="#000000" stroke-width="50.4924" d="M51.2677+866.766C-27.4947+720.723+248.73+577.321+668.233+546.47C1087.74+515.619+1491.66+609+1570.42+755.044C1649.19+901.087+1372.96+1044.49+953.457+1075.34C533.954+1106.19+130.03+1012.81+51.2677+866.766Z" fill="none" stroke-linecap="round" opacity="1" stroke-linejoin="round"/>
<path stroke="#000000" stroke-width="50.4924" d="M771.143+47.5932C918.086-28.7297+1055.79+251.145+1078.71+672.71C1101.63+1094.28+1001.09+1497.89+854.15+1574.22C707.207+1650.54+569.504+1370.67+546.582+949.1C523.66+527.534+624.199+123.916+771.143+47.5932Z" fill="none" stroke-linecap="round" opacity="1" stroke-linejoin="round"/>
<path stroke="#000000" stroke-width="50.4924" d="M1382.76+1311.34C1335.34+1470.44+1039.13+1375.36+721.154+1098.98C403.182+822.602+183.855+469.574+231.275+310.473C278.695+151.373+574.904+246.447+892.877+522.828C1210.85+799.208+1430.18+1152.24+1382.76+1311.34Z" fill="none" stroke-linecap="round" opacity="1" stroke-linejoin="round"/>
<path stroke="#000000" stroke-width="50.4924" d="M371.704+398.87C371.704+385.081+385.58+373.903+402.698+373.903C419.815+373.903+433.691+385.081+433.691+398.87C433.691+412.659+419.815+423.837+402.698+423.837C385.58+423.837+371.704+412.659+371.704+398.87Z" fill="none" stroke-linecap="round" opacity="1" stroke-linejoin="round"/>
<path stroke="#000000" stroke-width="50.4924" d="M1180.98+395.426C1180.98+381.637+1194.85+370.459+1211.97+370.459C1229.09+370.459+1242.96+381.637+1242.96+395.426C1242.96+409.215+1229.09+420.393+1211.97+420.393C1194.85+420.393+1180.98+409.215+1180.98+395.426Z" fill="none" stroke-linecap="round" opacity="1" stroke-linejoin="round"/>
<path stroke="#000000" stroke-width="50.4924" d="M1194.75+1213.31C1194.75+1199.52+1208.63+1188.34+1225.74+1188.34C1242.86+1188.34+1256.74+1199.52+1256.74+1213.31C1256.74+1227.1+1242.86+1238.27+1225.74+1238.27C1208.63+1238.27+1194.75+1227.1+1194.75+1213.31Z" fill="none" stroke-linecap="round" opacity="1" stroke-linejoin="round"/>
<path stroke="#000000" stroke-width="50.4924" d="M375.148+1230.53C375.148+1216.74+389.024+1205.56+406.141+1205.56C423.258+1205.56+437.135+1216.74+437.135+1230.53C437.135+1244.31+423.258+1255.49+406.141+1255.49C389.024+1255.49+375.148+1244.31+375.148+1230.53Z" fill="none" stroke-linecap="round" opacity="1" stroke-linejoin="round"/>
<path stroke="#000000" stroke-width="50.4924" d="M683.295+653.657C683.295+624.817+741.227+601.438+812.69+601.438C884.153+601.438+942.085+624.817+942.085+653.657C942.085+682.497+884.153+705.876+812.69+705.876C741.227+705.876+683.295+682.497+683.295+653.657Z" fill="none" stroke-linecap="round" opacity="1" stroke-linejoin="round"/>
<path stroke="#000000" stroke-width="50.4924" d="M689.36+972.951L684.576+656.447" fill="none" stroke-linecap="round" opacity="1" stroke-linejoin="round"/>
<path stroke="#000000" stroke-width="50.4924" d="M949.26+968.252L944.476+651.748" fill="none" stroke-linecap="round" opacity="1" stroke-linejoin="round"/>
<path stroke="#000000" stroke-width="50.4924" d="M690.954+975.343C775.397+1017.56+869.92+1005.84+953.246+964.182" fill="none" stroke-linecap="round" opacity="1" stroke-linejoin="round"/>
<path stroke="#000000" stroke-width="50.4924" d="M711.682+769.655C801.958+814.793+844.313+797.016+927.734+755.305" fill="none" stroke-linecap="round" opacity="1" stroke-linejoin="round"/>
<path stroke="#000000" stroke-width="50.4924" d="M710.088+880.472C800.364+925.61+842.718+907.832+926.14+866.121" fill="none" stroke-linecap="round" opacity="1" stroke-linejoin="round"/>
<path stroke="#000000" stroke-width="1.01594" d="M999.081+1530.75C1081.17+1683.2+960.066+1417.63+1011.26+1406.25C1116.66+1382.83+1004.49+1590.64+1004.49+1486.09" fill="none" stroke-linecap="round" opacity="1" stroke-linejoin="round"/>
<path stroke="#000000" stroke-width="1.01594" d="M1101.93+1521.28C1085.78+1521.28+1059.48+1462.21+1045.09+1471.21C1020.7+1486.45+1093.34+1604.14+1120.87+1551.05C1143.97+1506.49+1119.96+1441.83+1099.22+1402.19C1089.3+1383.23+1067.17+1328.49+1062.68+1349.41C1051.53+1401.44+1136.51+1547.46+1196.65+1545.63C1245.32+1544.16+1223.68+1462.53+1214.25+1438.73C1208.6+1424.47+1192.59+1382.79+1192.59+1398.13C1192.59+1450.56+1335.58+1545.05+1325.21+1469.85C1298.67+1277.46+887.809+1499.17+1004.49+1542.93C1112.15+1583.3+1393.01+1375.98+1505.19+1338.59" fill="none" stroke-linecap="round" opacity="1" stroke-linejoin="round"/>
</g>
</svg>
