<?xml version="1.0" encoding="UTF-8" standalone="no"?> <!-- Created with Vectornator for iOS (http://vectornator.io/) --><!DOCTYPE svg PUBLIC "-//W3C//DTD SVG 1.1//EN" "http://www.w3.org/Graphics/SVG/1.1/DTD/svg11.dtd">
<svg height="100%" style="fill-rule:nonzero;clip-rule:evenodd;stroke-linecap:round;stroke-linejoin:round;" xmlns:xlink="http://www.w3.org/1999/xlink" xmlns="http://www.w3.org/2000/svg" xml:space="preserve" width="100%" xmlns:vectornator="http://vectornator.io" version="1.1" viewBox="0 0 1620 1620">
<metadata>
<vectornator:setting key="DimensionsVisible" value="1"/>
<vectornator:setting key="PencilOnly" value="0"/>
<vectornator:setting key="SnapToPoints" value="0"/>
<vectornator:setting key="OutlineMode" value="0"/>
<vectornator:setting key="CMYKEnabledKey" value="0"/>
<vectornator:setting key="RulersVisible" value="1"/>
<vectornator:setting key="GuidesVisible" value="1"/>
<vectornator:setting key="SnapToEdges" value="0"/>
<vectornator:setting key="DisplayWhiteBackground" value="0"/>
<vectornator:setting key="doHistoryDisabled" value="0"/>
<vectornator:setting key="SnapToGuides" value="1"/>
<vectornator:setting key="TimeLapseWatermarkDisabled" value="0"/>
<vectornator:setting key="Units" value="Pixels"/>
<vectornator:setting key="DynamicGuides" value="0"/>
<vectornator:setting key="SnapToGrid" value="0"/>
<vectornator:setting key="IsolateActiveLayer" value="0"/>
</metadata>
<defs/>
<g id="Layer 1" vectornator:layerName="Layer 1">
<path stroke="#000000" stroke-width="50.4007" d="M134.821+169.774C128.878+181.661+194.436+199.21+203.821+200.774C245.861+207.781+446.259+213.838+434.821+133.774C424.439+61.0971+172.915+47.4991+123.821+86.7742C73.739+126.84+100.835+187.774+161.821+187.774" fill="none" stroke-linecap="round" opacity="1" stroke-linejoin="round"/>
<path stroke="#000000" stroke-width="50.4007" d="M699.821+179.774C693.878+191.661+759.436+209.21+768.821+210.774C810.861+217.781+1011.26+223.838+999.821+143.774C989.439+71.0971+737.915+57.4991+688.821+96.7742C638.739+136.84+665.835+197.774+726.821+197.774" fill="none" stroke-linecap="round" opacity="1" stroke-linejoin="round"/>
<path stroke="#000000" stroke-width="50.4007" d="M1237.82+171.774C1231.88+183.661+1297.44+201.21+1306.82+202.774C1348.86+209.781+1549.26+215.838+1537.82+135.774C1527.44+63.0971+1275.92+49.4991+1226.82+88.7742C1176.74+128.84+1203.83+189.774+1264.82+189.774" fill="none" stroke-linecap="round" opacity="1" stroke-linejoin="round"/>
<path stroke="#000000" stroke-width="50.4007" d="M91.8212+131.774C77.6075+160.202+96.1509+233.412+99.8212+262.774C113.204+369.834+107.821+488.961+107.821+596.774" fill="none" stroke-linecap="round" opacity="1" stroke-linejoin="round"/>
<path stroke="#000000" stroke-width="50.4007" d="M656.821+141.774C642.607+170.202+661.151+243.412+664.821+272.774C678.204+379.834+672.821+498.961+672.821+606.774" fill="none" stroke-linecap="round" opacity="1" stroke-linejoin="round"/>
<path stroke="#000000" stroke-width="50.4007" d="M1194.82+133.774C1180.61+162.202+1199.15+235.412+1202.82+264.774C1216.2+371.834+1210.82+490.961+1210.82+598.774" fill="none" stroke-linecap="round" opacity="1" stroke-linejoin="round"/>
<path stroke="#000000" stroke-width="50.4007" d="M447.821+143.774L447.821+140.774L447.821+138.774L447.821+136.774L445.821+137.774L445.821+137.774" fill="none" stroke-linecap="round" opacity="1" stroke-linejoin="round"/>
<path stroke="#000000" stroke-width="50.4007" d="M1012.82+153.774L1012.82+150.774L1012.82+148.774L1012.82+146.774L1010.82+147.774L1010.82+147.774" fill="none" stroke-linecap="round" opacity="1" stroke-linejoin="round"/>
<path stroke="#000000" stroke-width="50.4007" d="M1550.82+145.774L1550.82+142.774L1550.82+140.774L1550.82+138.774L1548.82+139.774L1548.82+139.774" fill="none" stroke-linecap="round" opacity="1" stroke-linejoin="round"/>
<path stroke="#000000" stroke-width="50.4007" d="M442.821+138.774C442.821+257.573+431.963+378.19+443.821+496.774C446.829+526.854+437.435+585.002+450.821+611.774" fill="none" stroke-linecap="round" opacity="1" stroke-linejoin="round"/>
<path stroke="#000000" stroke-width="50.4007" d="M1007.82+148.774C1007.82+267.573+996.963+388.19+1008.82+506.774C1011.83+536.854+1002.44+595.002+1015.82+621.774" fill="none" stroke-linecap="round" opacity="1" stroke-linejoin="round"/>
<path stroke="#000000" stroke-width="50.4007" d="M1545.82+140.774C1545.82+259.573+1534.96+380.19+1546.82+498.774C1549.83+528.854+1540.44+587.002+1553.82+613.774" fill="none" stroke-linecap="round" opacity="1" stroke-linejoin="round"/>
<path stroke="#000000" stroke-width="50.4007" d="M449.821+617.774C449.821+735.953+108.821+709.814+108.821+599.774" fill="none" stroke-linecap="round" opacity="1" stroke-linejoin="round"/>
<path stroke="#000000" stroke-width="50.4007" d="M1014.82+627.774C1014.82+745.953+673.821+719.814+673.821+609.774" fill="none" stroke-linecap="round" opacity="1" stroke-linejoin="round"/>
<path stroke="#000000" stroke-width="50.4007" d="M1552.82+619.774C1552.82+737.953+1211.82+711.814+1211.82+601.774" fill="none" stroke-linecap="round" opacity="1" stroke-linejoin="round"/>
<path stroke="#000000" stroke-width="50.4007" d="M99.8212+276.774C124.257+350.08+438.821+377.909+438.821+253.774" fill="none" stroke-linecap="round" opacity="1" stroke-linejoin="round"/>
<path stroke="#000000" stroke-width="50.4007" d="M664.821+286.774C689.257+360.08+1003.82+387.909+1003.82+263.774" fill="none" stroke-linecap="round" opacity="1" stroke-linejoin="round"/>
<path stroke="#000000" stroke-width="50.4007" d="M1202.82+278.774C1227.26+352.08+1541.82+379.909+1541.82+255.774" fill="none" stroke-linecap="round" opacity="1" stroke-linejoin="round"/>
<path stroke="#000000" stroke-width="50.4007" d="M108.821+401.774C133.985+477.264+432.821+511.537+432.821+409.774" fill="none" stroke-linecap="round" opacity="1" stroke-linejoin="round"/>
<path stroke="#000000" stroke-width="50.4007" d="M673.821+411.774C698.985+487.264+997.821+521.537+997.821+419.774" fill="none" stroke-linecap="round" opacity="1" stroke-linejoin="round"/>
<path stroke="#000000" stroke-width="50.4007" d="M1211.82+403.774C1236.98+479.264+1535.82+513.537+1535.82+411.774" fill="none" stroke-linecap="round" opacity="1" stroke-linejoin="round"/>
<path stroke="#000000" stroke-width="50.4007" d="M108.821+532.774C120.112+566.645+187.889+574.641+216.821+578.774C294.193+589.827+396.36+609.697+438.821+524.774" fill="none" stroke-linecap="round" opacity="1" stroke-linejoin="round"/>
<path stroke="#000000" stroke-width="50.4007" d="M673.821+542.774C685.112+576.645+752.889+584.641+781.821+588.774C859.193+599.827+961.36+619.697+1003.82+534.774" fill="none" stroke-linecap="round" opacity="1" stroke-linejoin="round"/>
<path stroke="#000000" stroke-width="50.4007" d="M1211.82+534.774C1223.11+568.645+1290.89+576.641+1319.82+580.774C1397.19+591.827+1499.36+611.697+1541.82+526.774" fill="none" stroke-linecap="round" opacity="1" stroke-linejoin="round"/>
<path stroke="#000000" stroke-width="50.4007" d="M260.212+929.085C281.391+918.495+327.625+925.91+350.702+928.007C424.486+934.715+500.588+935.548+574.771+935.548C838.989+935.548+1104.72+925.853+1367.63+925.853" fill="none" stroke-linecap="round" opacity="1" stroke-linejoin="round"/>
<path stroke="#000000" stroke-width="50.4007" d="M1373.02+925.853C1383.24+956.517+1377.33+991.837+1377.33+1023.88" fill="none" stroke-linecap="round" opacity="1" stroke-linejoin="round"/>
<path stroke="#000000" stroke-width="50.4007" d="M255.903+931.239C238.329+940.026+259.047+1016.61+252.671+1035.73" fill="none" stroke-linecap="round" opacity="1" stroke-linejoin="round"/>
<path stroke="#000000" stroke-width="50.4007" d="M248.362+1056.2C245.991+1051.46+290.573+1079.73+296.839+1084.21C327.269+1105.95+361.182+1123.75+393.792+1142.38C484.928+1194.46+597.584+1260.94+697.579+1294.28" fill="none" stroke-linecap="round" opacity="1" stroke-linejoin="round"/>
<path stroke="#000000" stroke-width="50.4007" d="M923.803+1287.81C919.175+1278.56+1019.61+1234.44+1028.3+1227.49C1124.74+1150.33+1266.81+1101.76+1377.33+1046.51" fill="none" stroke-linecap="round" opacity="1" stroke-linejoin="round"/>
<path stroke="#000000" stroke-width="50.4007" d="M701.683+1291.59C701.683+1338.41+694.775+1415.92+705.692+1459.59C714.249+1493.82+779.156+1524.47+806.335+1542.59C826.076+1555.75+852.889+1587.41+875.703+1593.11C876.26+1593.25+878.412+1594.25+878.91+1593.92C886.25+1589.02+880.113+1535.79+880.113+1525.75C880.113+1463.12+858.279+1370.5+872.896+1312.04C877.357+1294.19+929.087+1287.92+942.263+1274.75" fill="none" stroke-linecap="round" opacity="1" stroke-linejoin="round"/>
<path stroke="#000000" stroke-width="50.4007" d="M374.274+1049.01L374.274+1047.01L374.274+1049.01L376.274+1049.01L378.274+1049.01L378.274+1047.01L375.274+1046.01L375.274+1046.01" fill="none" stroke-linecap="round" opacity="1" stroke-linejoin="round"/>
<path stroke="#000000" stroke-width="50.4007" d="M487.274+1053.01L486.274+1055.01L488.274+1055.01L486.274+1055.01L485.274+1057.01L485.274+1057.01" fill="none" stroke-linecap="round" opacity="1" stroke-linejoin="round"/>
<path stroke="#000000" stroke-width="50.4007" d="M594.274+1055.01C594.607+1054.34+594.941+1053.67+595.274+1053.01" fill="none" stroke-linecap="round" opacity="1" stroke-linejoin="round"/>
<path stroke="#000000" stroke-width="50.4007" d="M698.554+1052.86C698.554+1049.11+702.392+1052.21+704.64+1052.86C726.926+1059.22+749.511+1056.03+772.457+1054.59C820.878+1051.57+869.191+1051.8+917.656+1049.38C1066+1041.96+1216.92+1043.29+1365.43+1043.29" fill="none" stroke-linecap="round" opacity="1" stroke-linejoin="round"/>
<path stroke="#000000" stroke-width="50.4007" d="M1649.75+729.933C1649.75+714.86+1651.43+721.987+1644.71+708.547" fill="none" stroke-linecap="round" opacity="1" stroke-linejoin="round"/>
<path stroke="#000000" stroke-width="50.4007" d="M823.087+920.638C823.087+859.65+827.311+797.206+827.311+736.914" fill="none" stroke-linecap="round" opacity="1" stroke-linejoin="round"/>
<path stroke="#000000" stroke-width="50.4007" d="M287.754+703.126C257.725+823.243+385.92+786.525+451.416+819.273C483.331+835.231+485.52+898.988+491.54+929.085" fill="none" stroke-linecap="round" opacity="1" stroke-linejoin="round"/>
<path stroke="#000000" stroke-width="50.4007" d="M1376.37+712.629C1404.83+726.859+1351.18+783.956+1333.08+786.541C1264.43+796.349+1140.16+742.756+1119.79+844.615C1117.06+858.252+1110.1+885.416+1116.62+898.465" fill="none" stroke-linecap="round" opacity="1" stroke-linejoin="round"/>
<path stroke="#000000" stroke-width="0.612162" d="M977+1313C976.47+1312.09+974.745+1311.25+974+1312C972.999+1313+977.572+1318.63+982+1325C987.56+1332.99+993.397+1340.85+1000+1348C1000.96+1349.04+1001.59+1351+1003+1351C1004.05+1351+1002.6+1348.86+1002+1348C1000.24+1345.48+997.867+1343.44+996+1341C993.528+1337.77+991.292+1334.36+989+1331C981.366+1319.8+966.369+1301.05+971+1286C972.778+1280.22+981.482+1281.07+985+1284C992.472+1290.23+1002.65+1313.51+999+1323C996.174+1330.35+984.198+1327.26+980+1324C977.546+1322.09+977.933+1314.6+977+1313Z" fill="none" stroke-linecap="round" opacity="1" stroke-linejoin="round"/>
<path stroke="#000000" stroke-width="0.612162" d="M1022+1316C1018.75+1312.75+1016.25+1310.12+1012+1308C991.612+1297.81+999.096+1314.7+1009+1325C1013.91+1330.11+1018.87+1335.44+1025+1339C1029.48+1341.6+1034.87+1343.67+1040+1343C1043.51+1342.54+1046.57+1339.24+1048+1336C1050.45+1330.43+1051+1324.08+1051+1318C1051+1304.81+1047.59+1290.78+1040+1280C1035.78+1274.01+1026.91+1264.43+1019+1262C1017.85+1261.65+1015.92+1262.8+1016+1264C1016.82+1276.33+1025.02+1284.45+1033+1293C1041.9+1302.53+1053.09+1312.16+1066+1314C1069.45+1314.49+1073.44+1313.36+1076+1311C1078.32+1308.86+1078.75+1305.15+1079+1302C1079.43+1296.67+1079.05+1291.24+1078+1286C1075.63+1274.15+1069.93+1262.9+1063+1253C1061.51+1250.87+1060.6+1247+1058+1247C1055.6+1247+1060.59+1251.06+1062+1253C1065.92+1258.39+1069.85+1263.78+1074+1269C1078.86+1275.12+1083.16+1281.81+1089+1287C1092.34+1289.97+1096.53+1292.79+1101+1293C1104.43+1293.16+1107.96+1290.76+1110+1288C1112.94+1284.01+1114.26+1278.9+1115+1274C1116.84+1261.83+1115.47+1250.94+1110+1240C1108.3+1236.6+1105.69+1233.69+1103+1231C1101.95+1229.95+1099+1227.51+1099+1229C1099+1232.28+1100.93+1235.45+1103+1238C1106.71+1242.58+1111.07+1246.77+1116+1250C1125.31+1256.1+1138.67+1259.13+1149+1255C1154.08+1252.97+1158.52+1249.21+1162+1245C1165.04+1241.32+1166.99+1236.66+1168+1232C1168.71+1228.73+1169.01+1224.68+1167+1222C1164.49+1218.66+1160.12+1216.69+1156+1216C1149.74+1214.96+1143.22+1215.76+1137+1217C1126.45+1219.11+1116.18+1222.51+1106+1226C1092.82+1230.52+1079.65+1235.17+1067+1241C1054.27+1246.86+1041.55+1253.05+1030+1261C1021.06+1267.15+1013.57+1275.22+1006+1283C1001.21+1287.92+996.602+1293.15+993+1299C991.176+1301.96+988.899+1305.7+990+1309C990.767+1311.3+994.627+1311.51+997+1311C1004.32+1309.43+1011.27+1306.3+1018+1303C1028.99+1297.61+1039.57+1291.4+1050+1285C1064.58+1276.06+1078.63+1266.28+1093+1257C1124.89+1236.41+1156.69+1215.25+1191+1199C1201.01+1194.26+1211.64+1190.94+1222+1187C1228.31+1184.6+1234.72+1182.47+1241+1180C1245.22+1178.34+1249.97+1176.06+1252+1172" fill="none" stroke-linecap="round" opacity="1" stroke-linejoin="round"/>
</g>
</svg>
