<?xml version="1.0" encoding="UTF-8" standalone="no"?> <!-- Created with Vectornator for iOS (http://vectornator.io/) --><!DOCTYPE svg PUBLIC "-//W3C//DTD SVG 1.1//EN" "http://www.w3.org/Graphics/SVG/1.1/DTD/svg11.dtd">
<svg height="100%" style="fill-rule:nonzero;clip-rule:evenodd;stroke-linecap:round;stroke-linejoin:round;" xmlns:xlink="http://www.w3.org/1999/xlink" xmlns="http://www.w3.org/2000/svg" xml:space="preserve" width="100%" xmlns:vectornator="http://vectornator.io" version="1.1" viewBox="0 0 1620 1620">
<metadata>
<vectornator:setting key="DimensionsVisible" value="1"/>
<vectornator:setting key="PencilOnly" value="0"/>
<vectornator:setting key="SnapToPoints" value="0"/>
<vectornator:setting key="GuidesVisible" value="1"/>
<vectornator:setting key="RulersVisible" value="1"/>
<vectornator:setting key="OutlineMode" value="0"/>
<vectornator:setting key="SnapToEdges" value="0"/>
<vectornator:setting key="CMYKEnabledKey" value="0"/>
<vectornator:setting key="DisplayWhiteBackground" value="0"/>
<vectornator:setting key="doHistoryDisabled" value="0"/>
<vectornator:setting key="SnapToGuides" value="1"/>
<vectornator:setting key="TimeLapseWatermarkDisabled" value="0"/>
<vectornator:setting key="DynamicGuides" value="0"/>
<vectornator:setting key="IsolateActiveLayer" value="0"/>
<vectornator:setting key="SnapToGrid" value="0"/>
<vectornator:setting key="Units" value="Pixels"/>
</metadata>
<defs/>
<g id="Layer 1" vectornator:layerName="Layer 1">
<path stroke="#000000" stroke-width="50.4924" d="M903.562+646.438C886.217+655.656+867.341+666.848+847.562+679.562C845.365+680.975+842.92+682.753+840+685.062C837.694+686.887+837.262+687.237+830.938+692.5C815.778+705.115+807.229+711.116+795.344+715.688C784.441+719.881+773.628+717.971+764.5+712C759.56+708.768+756.167+705.396+751.188+699.625C750.992+699.399+749.495+697.65+749.094+697.188C748.445+696.439+747.95+695.886+747.531+695.438C747.517+695.422+747.514+695.421+747.5+695.406C746.015+694.831+743.932+694.258+739.312+693.344C739.086+693.299+739.104+693.295+738.875+693.25C728.824+691.262+724.015+689.992+717.594+686.781C708.196+682.082+691.49+667.113+677.906+653.156C613.137+672.357+570.125+705.825+570.125+744C570.125+803.647+674.861+852+804.062+852C933.264+852+1038+803.647+1038+744C1038+700.812+982.927+663.7+903.562+646.438Z" fill="none" stroke-linecap="round" opacity="1" stroke-linejoin="round"/>
<path stroke="#000000" stroke-width="50.4924" d="M574.722+1492.24L570.278+748.761" fill="none" stroke-linecap="round" opacity="1" stroke-linejoin="round"/>
<path stroke="#000000" stroke-width="50.4924" d="M1039.72+1498.24L1035.28+754.761" fill="none" stroke-linecap="round" opacity="1" stroke-linejoin="round"/>
<path stroke="#000000" stroke-width="50.4924" d="M578+1503C638.122+1623.24+970.748+1568.25+1043+1496" fill="none" stroke-linecap="round" opacity="1" stroke-linejoin="round"/>
<path stroke="#000000" stroke-width="50.4924" d="M588+923C697.183+1032.18+903.744+1002.63+1025+942" fill="none" stroke-linecap="round" opacity="1" stroke-linejoin="round"/>
<path stroke="#000000" stroke-width="50.4924" d="M587+1355C696.183+1464.18+902.744+1434.63+1024+1374" fill="none" stroke-linecap="round" opacity="1" stroke-linejoin="round"/>
<path stroke="#000000" stroke-width="50.4924" d="M586+1200C695.183+1309.18+901.744+1279.63+1023+1219" fill="none" stroke-linecap="round" opacity="1" stroke-linejoin="round"/>
<path stroke="#000000" stroke-width="50.4924" d="M585+1061C694.183+1170.18+900.744+1140.63+1022+1080" fill="none" stroke-linecap="round" opacity="1" stroke-linejoin="round"/>
<path stroke="#000000" stroke-width="50.4924" d="M133+371L1491+375" fill="none" stroke-linecap="round" opacity="1" stroke-linejoin="round"/>
<path stroke="#000000" stroke-width="50.4924" d="M780+728L354+436" fill="none" stroke-linecap="round" opacity="1" stroke-linejoin="round"/>
<path stroke="#000000" stroke-width="50.4924" d="M789+727L1215+435" fill="none" stroke-linecap="round" opacity="1" stroke-linejoin="round"/>
<path stroke="#000000" stroke-width="50.4924" d="M188.596+209L284.404+209C284.733+209+285+209.267+285+209.596L285+350.404C285+350.733+284.733+351+284.404+351L188.596+351C188.267+351+188+350.733+188+350.404L188+209.596C188+209.267+188.267+209+188.596+209Z" fill="none" stroke-linecap="round" opacity="1" stroke-linejoin="round"/>
<path stroke="#000000" stroke-width="50.4924" d="M375.596+66L479.404+66C479.733+66+480+66.267+480+66.5964L480+350.404C480+350.733+479.733+351+479.404+351L375.596+351C375.267+351+375+350.733+375+350.404L375+66.5964C375+66.267+375.267+66+375.596+66Z" fill="none" stroke-linecap="round" opacity="1" stroke-linejoin="round"/>
<path stroke="#000000" stroke-width="50.4924" d="M565.596+167L662.404+167C662.733+167+663+167.267+663+167.596L663+348.404C663+348.733+662.733+349+662.404+349L565.596+349C565.267+349+565+348.733+565+348.404L565+167.596C565+167.267+565.267+167+565.596+167Z" fill="none" stroke-linecap="round" opacity="1" stroke-linejoin="round"/>
<path stroke="#000000" stroke-width="50.4924" d="M754.596+246L849.404+246C849.733+246+850+246.267+850+246.596L850+357.404C850+357.733+849.733+358+849.404+358L754.596+358C754.267+358+754+357.733+754+357.404L754+246.596C754+246.267+754.267+246+754.596+246Z" fill="none" stroke-linecap="round" opacity="1" stroke-linejoin="round"/>
<path stroke="#000000" stroke-width="50.4924" d="M964.596+40L1085.4+40C1085.73+40+1086+40.267+1086+40.5964L1086+344.404C1086+344.733+1085.73+345+1085.4+345L964.596+345C964.267+345+964+344.733+964+344.404L964+40.5964C964+40.267+964.267+40+964.596+40Z" fill="none" stroke-linecap="round" opacity="1" stroke-linejoin="round"/>
<path stroke="#000000" stroke-width="50.4924" d="M1176.6+123L1281.4+123C1281.73+123+1282+123.267+1282+123.596L1282+355.404C1282+355.733+1281.73+356+1281.4+356L1176.6+356C1176.27+356+1176+355.733+1176+355.404L1176+123.596C1176+123.267+1176.27+123+1176.6+123Z" fill="none" stroke-linecap="round" opacity="1" stroke-linejoin="round"/>
<path stroke="#000000" stroke-width="50.4924" d="M1357.6+209L1451.4+209C1451.73+209+1452+209.267+1452+209.596L1452+358.404C1452+358.733+1451.73+359+1451.4+359L1357.6+359C1357.27+359+1357+358.733+1357+358.404L1357+209.596C1357+209.267+1357.27+209+1357.6+209Z" fill="none" stroke-linecap="round" opacity="1" stroke-linejoin="round"/>
<path stroke="#000000" stroke-width="1.44192" d="M758+584.5C773.894+601.813+795.688+612.606+815+626C820.168+629.584+825.585+632.8+831+636C832.925+637.138+838.746+640.397+837+639C833.606+636.285+829.515+634.556+826+632C818.505+626.549+811.488+620.46+804+615C776.819+595.181+749.271+577.788+727+552C721.681+545.841+716.818+539.187+713+532C711.066+528.359+710+524.123+710+520C710+515.877+710.495+511.275+713+508C715.264+505.04+719.273+503+723+503C728.907+503+734.717+505.358+740+508C756.463+516.231+770.627+528.502+785+540C791.099+544.879+797.935+549.055+803+555C807.329+560.081+809.411+571.092+804+575C794.936+581.546+782.071+579.443+771+581C766.556+581.625+754.965+581.194+758+584.5Z" fill="none" stroke-linecap="round" opacity="1" stroke-linejoin="round"/>
<path stroke="#000000" stroke-width="1.44192" d="M847+566C842.35+565.225+837.589+565.08+833+564C823.595+561.787+815.714+557.388+806+556C802.355+555.479+798.584+554.157+795+555C792.466+555.596+790.101+557.641+789+560C787.583+563.036+786.704+566.911+788+570C791.254+577.758+796.129+584.974+802+591C808.979+598.162+817.131+604.381+826+609C833.391+612.849+841.677+616.406+850+616C856.404+615.688+862.74+611.792+867+607C871.277+602.188+873.372+595.407+874+589C875.075+578.032+874.912+566.629+872+556C868.137+541.899+861.597+528.493+854+516C846.481+503.635+836.859+492.595+827+482C814.472+468.537+801.253+455.622+787+444C779.468+437.859+771.407+431.439+762+429C759.339+428.31+758.867+434.496+760+437C765.49+449.137+772.51+460.736+781+471C794.972+487.892+809.763+504.456+827+518C842.735+530.363+859.953+541.863+879+548C891.06+551.886+904.599+549.6+917+547C925.754+545.165+934.096+540.686+941+535C945.855+531.002+949.942+525.2+951+519C952.413+510.727+951.25+501.738+948+494C944.024+484.533+936.574+476.889+930+469C923.208+460.85+915.748+453.248+908+446C905.367+443.537+902.536+439.293+899+440C896.365+440.527+901.1+445.1+903+447C908.855+452.855+914.872+458.788+922+463C929.727+467.566+938.192+471.277+947+473C953.878+474.346+961.373+474.278+968+472C972.686+470.389+976.85+466.465+979+462C981.475+456.859+982.591+450.479+981+445C979.345+439.301+975.161+433.929+970+431C962.194+426.57+952.953+424.631+944+424C929.022+422.945+913.734+423.111+899+426C879.447+429.834+859.923+435.295+842+444C824.535+452.483+807.561+463.104+794+477C780.053+491.292+771.027+509.731+761+527C752.99+540.795+746.063+555.246+740+570C736.032+579.657+731.904+589.599+731+600C730.516+605.567+730.886+613.75+736+616C742.29+618.768+750.072+614.475+756+611C769.746+602.942+781.95+592.425+794+582C811.655+566.726+828.113+550.119+845+534C904.931+476.793+963.903+419.143+1030+369" fill="none" stroke-linecap="round" opacity="1" stroke-linejoin="round"/>
</g>
</svg>
