<?xml version="1.0" encoding="UTF-8" standalone="no"?> <!-- Created with Vectornator for iOS (http://vectornator.io/) --><!DOCTYPE svg PUBLIC "-//W3C//DTD SVG 1.1//EN" "http://www.w3.org/Graphics/SVG/1.1/DTD/svg11.dtd">
<svg height="100%" style="fill-rule:nonzero;clip-rule:evenodd;stroke-linecap:round;stroke-linejoin:round;" xmlns:xlink="http://www.w3.org/1999/xlink" xmlns="http://www.w3.org/2000/svg" xml:space="preserve" width="100%" xmlns:vectornator="http://vectornator.io" version="1.1" viewBox="0 0 1620 1620">
<metadata>
<vectornator:setting key="DimensionsVisible" value="1"/>
<vectornator:setting key="PencilOnly" value="0"/>
<vectornator:setting key="SnapToPoints" value="0"/>
<vectornator:setting key="GuidesVisible" value="1"/>
<vectornator:setting key="OutlineMode" value="0"/>
<vectornator:setting key="CMYKEnabledKey" value="0"/>
<vectornator:setting key="RulersVisible" value="1"/>
<vectornator:setting key="SnapToEdges" value="0"/>
<vectornator:setting key="DisplayWhiteBackground" value="0"/>
<vectornator:setting key="doHistoryDisabled" value="0"/>
<vectornator:setting key="TimeLapseWatermarkDisabled" value="0"/>
<vectornator:setting key="SnapToGuides" value="1"/>
<vectornator:setting key="DynamicGuides" value="0"/>
<vectornator:setting key="IsolateActiveLayer" value="0"/>
<vectornator:setting key="Units" value="Pixels"/>
<vectornator:setting key="SnapToGrid" value="0"/>
</metadata>
<defs/>
<g id="Layer 1" vectornator:layerName="Layer 1">
<path stroke="#000000" stroke-width="50.4007" d="M402.435+714.194L404.744+714.194C512.809+714.194+600.412+801.565+600.412+909.341L600.412+909.341C600.412+1017.12+512.809+1104.49+404.744+1104.49L402.435+1104.49C294.371+1104.49+206.767+1017.12+206.767+909.341L206.767+909.341C206.767+801.565+294.371+714.194+402.435+714.194Z" fill="none" stroke-linecap="round" opacity="1" stroke-linejoin="round"/>
<path stroke="#000000" stroke-width="50.4007" d="M402.435+714.194L404.744+714.194C512.809+714.194+600.412+801.565+600.412+909.341L600.412+909.341C600.412+1017.12+512.809+1104.49+404.744+1104.49L402.435+1104.49C294.371+1104.49+206.767+1017.12+206.767+909.341L206.767+909.341C206.767+801.565+294.371+714.194+402.435+714.194Z" fill="none" stroke-linecap="round" opacity="1" stroke-linejoin="round"/>
<path stroke="#000000" stroke-width="50.4007" d="M316.518+1117L408.785+1268.97L501.301+1117C601.547+1117+682.813+1225.01+682.813+1358.25L682.813+1358.25C682.813+1491.5+715.666+1600.18+615.419+1600.18L408.785+1602.96L217.157+1602.48C116.91+1602.48+135.005+1491.5+135.005+1358.25L135.005+1358.25C135.005+1225.01+216.271+1117+316.518+1117Z" fill="none" stroke-linecap="round" opacity="1" stroke-linejoin="round"/>
<path stroke="#000000" stroke-width="50.4007" d="M335.607+856.433L335.607+856.433C341.734+856.433+346.7+861.072+346.7+866.795L346.7+870.94C346.7+876.662+341.734+881.302+335.607+881.302L335.607+881.302C329.481+881.302+324.515+876.662+324.515+870.94L324.515+866.795C324.515+861.072+329.481+856.433+335.607+856.433Z" fill="none" stroke-linecap="round" opacity="1" stroke-linejoin="round"/>
<path stroke="#000000" stroke-width="50.4007" d="M459.126+855.282L459.126+855.282C465.253+855.282+470.219+859.921+470.219+865.644L470.219+869.789C470.219+875.511+465.253+880.15+459.126+880.15L459.126+880.15C453+880.15+448.034+875.511+448.034+869.789L448.034+865.644C448.034+859.921+453+855.282+459.126+855.282Z" fill="none" stroke-linecap="round" opacity="1" stroke-linejoin="round"/>
<path stroke="#000000" stroke-width="26.9252" d="M244.137+870.087L279.049+870.087L293.776+870.087" fill="none" stroke-linecap="round" opacity="1" stroke-linejoin="round"/>
<path stroke="#000000" stroke-width="26.9252" d="M376.427+871.036L411.338+871.036L426.065+871.036" fill="none" stroke-linecap="round" opacity="1" stroke-linejoin="round"/>
<path stroke="#000000" stroke-width="26.9252" d="M503.958+870.087L538.869+870.087L553.596+870.087" fill="none" stroke-linecap="round" opacity="1" stroke-linejoin="round"/>
<path stroke="#000000" stroke-width="50.4007" d="M683.951+538.044L1117.64+539.518L1200.69+857.967L596.949+857.967L683.951+538.044Z" fill="none" stroke-linecap="round" opacity="1" stroke-linejoin="round"/>
<path stroke="#000000" stroke-width="50.4007" d="M693.917+105.977L1113.46+105.977L1113.46+504.656L693.917+504.656L693.917+105.977Z" fill="none" stroke-linecap="round" opacity="1" stroke-linejoin="round"/>
<path stroke="#000000" stroke-width="50.4007" d="M693.917+105.977L1113.46+105.977L1113.46+504.656L693.917+504.656L693.917+105.977Z" fill="none" stroke-linecap="round" opacity="1" stroke-linejoin="round"/>
<path stroke="#000000" stroke-width="50.4007" d="M759.892+174.638L1039.08+174.638L1039.08+436.729L759.892+436.729L759.892+174.638Z" fill="none" stroke-linecap="round" opacity="1" stroke-linejoin="round"/>
<path stroke="#000000" stroke-width="50.4007" d="M752.817+164.661L1052.93+164.661L1052.93+440.724L752.817+440.724L752.817+164.661Z" fill="none" stroke-linecap="round" opacity="1" stroke-linejoin="round"/>
<path stroke="#000000" stroke-width="50.4007" d="M726.24+693.471L794.348+694.622" fill="none" stroke-linecap="round" opacity="1" stroke-linejoin="round"/>
<path stroke="#000000" stroke-width="50.4007" d="M874.001+694.622L942.109+695.773" fill="none" stroke-linecap="round" opacity="1" stroke-linejoin="round"/>
<path stroke="#000000" stroke-width="50.4007" d="M1014.84+692.319L1082.94+693.471" fill="none" stroke-linecap="round" opacity="1" stroke-linejoin="round"/>
<path stroke="#000000" stroke-width="50.4007" d="M1057+1151.63L1150+1151.63C1112+1194.56+1181+1406.81+1181+1406.81C1181+1406.81+1303+1455.21+1303+1488.78L1303+1488.78C1303+1520.8+1280.02+1568.23+1252.95+1588.23C1228.96+1605.96+1203.04+1598.14+1168+1598.14L1033+1598.14C990.63+1598.14+956.819+1613.78+932.069+1589.04C913.265+1570.25+898+1514.85+898+1488.78L898+1488.78C898+1469.96+988+1438.4+1044+1410.86C1071.73+1397.22+1059.97+1349.64+1063+1327.42C1068.57+1286.51+1072.51+1249.26+1072+1215.63C1071.74+1198.44+1066.59+1164.67+1057+1151.63Z" fill="none" stroke-linecap="round" opacity="1" stroke-linejoin="round"/>
<path stroke="#000000" stroke-width="50.4007" d="M1234.03+956.623L1234.03+956.623C1242.88+956.623+1250.06+963.59+1250.06+972.184L1250.06+979.257C1250.06+987.851+1242.88+994.818+1234.03+994.818L1234.03+994.818C1225.18+994.818+1218+987.851+1218+979.257L1218+972.184C1218+963.59+1225.18+956.623+1234.03+956.623Z" fill="none" stroke-linecap="round" opacity="1" stroke-linejoin="round"/>
<path stroke="#000000" stroke-width="50.4007" d="M1120.1+1043.39L1120.1+1043.39C1128.99+1043.39+1136.2+1050.21+1136.2+1058.64L1136.2+1065.57C1136.2+1073.99+1128.99+1080.82+1120.1+1080.82L1120.1+1080.82C1111.21+1080.82+1104+1073.99+1104+1065.57L1104+1058.64C1104+1050.21+1111.21+1043.39+1120.1+1043.39Z" fill="none" stroke-linecap="round" opacity="1" stroke-linejoin="round"/>
<path stroke="#000000" stroke-width="50.4007" d="M167.059+99.1278L414.54+99.1278L414.54+505.597L167.059+505.597L167.059+99.1278Z" fill="none" stroke-linecap="round" opacity="1" stroke-linejoin="round"/>
<path stroke="#000000" stroke-width="50.4007" d="M240.553+171.122L339.546+172.622" fill="none" stroke-linecap="round" opacity="1" stroke-linejoin="round"/>
<path stroke="#000000" stroke-width="50.4007" d="M245.053+297.113L344.045+298.613" fill="none" stroke-linecap="round" opacity="1" stroke-linejoin="round"/>
<path stroke="#000000" stroke-width="50.4007" d="M230.054+429.103L338.046+430.603" fill="none" stroke-linecap="round" opacity="1" stroke-linejoin="round"/>
<path stroke="#000000" stroke-width="50.4007" d="M1337.19+132.079C1337.19+108.441+1382.59+89.279+1438.59+89.279C1494.59+89.279+1539.99+108.441+1539.99+132.079C1539.99+155.717+1494.59+174.88+1438.59+174.88C1382.59+174.88+1337.19+155.717+1337.19+132.079Z" fill="none" stroke-linecap="round" opacity="1" stroke-linejoin="round"/>
<path stroke="#000000" stroke-width="50.4007" d="M1337.61+144.192L1334.53+431.723" fill="none" stroke-linecap="round" opacity="1" stroke-linejoin="round"/>
<path stroke="#000000" stroke-width="50.4007" d="M1539.3+144.721L1536.21+432.251" fill="none" stroke-linecap="round" opacity="1" stroke-linejoin="round"/>
<path stroke="#000000" stroke-width="50.4007" d="M1336.7+294.509C1413.41+337.826+1460.8+330.089+1535.92+298.278" fill="none" stroke-linecap="round" opacity="1" stroke-linejoin="round"/>
<path stroke="#000000" stroke-width="50.4007" d="M1336.98+218.939C1411.68+263.139+1457.82+255.245+1530.96+222.786" fill="none" stroke-linecap="round" opacity="1" stroke-linejoin="round"/>
<path stroke="#000000" stroke-width="50.4007" d="M1336.42+435.378C1412.91+479.577+1460.16+471.683+1535.05+439.224" fill="none" stroke-linecap="round" opacity="1" stroke-linejoin="round"/>
<path stroke="#000000" stroke-width="50.4007" d="M1339.21+368.234C1415.47+412.434+1462.58+404.54+1537.25+372.081" fill="none" stroke-linecap="round" opacity="1" stroke-linejoin="round"/>
<path stroke="#000000" stroke-width="50.4007" d="M1423.52+927.656C1423.52+779.738+1424.03+797.106+1471.97+797.106C1519.92+797.106+1528.5+773.009+1528.5+920.927C1528.5+1068.84+1525.3+1328.73+1477.36+1328.73C1429.41+1328.73+1423.52+1075.57+1423.52+927.656Z" fill="none" stroke-linecap="round" opacity="1" stroke-linejoin="round"/>
<path stroke="#000000" stroke-width="50.4007" d="M1432.94+888.626C1436.76+888.626+1439.8+887.28+1443.71+887.28C1463.29+887.28+1481.94+888.626+1501.58+888.626" fill="none" stroke-linecap="round" opacity="1" stroke-linejoin="round"/>
<path stroke="#000000" stroke-width="50.4007" d="M1388.53+751.347L1344.11+700.203" fill="none" stroke-linecap="round" opacity="1" stroke-linejoin="round"/>
<path stroke="#000000" stroke-width="50.4007" d="M1470.29+735.416L1469.62+667.683" fill="none" stroke-linecap="round" opacity="1" stroke-linejoin="round"/>
<path stroke="#000000" stroke-width="50.4007" d="M1547.92+753.854L1585.79+697.696" fill="none" stroke-linecap="round" opacity="1" stroke-linejoin="round"/>
<path stroke="#000000" stroke-width="50.4007" d="M1001+1434L1102.01+1433.51L1207+1433" fill="none" stroke-linecap="round" opacity="1" stroke-linejoin="round"/>
<path stroke="#000000" stroke-width="1.01594" d="M224+1465C197.599+1482.6+228.966+1589.1+239+1559C252.842+1517.47+244.333+1454.08+250+1410C259.817+1333.65+255.322+1469.82+251+1479C240.144+1502.07+196.532+1465.94+208+1443" fill="none" stroke-linecap="round" opacity="1" stroke-linejoin="round"/>
<path stroke="#000000" stroke-width="1.01594" d="M229+1455C238.333+1466+247.538+1477.11+257+1488C338.196+1581.45+265.358+1442.33+250+1443C227.864+1443.96+250.087+1541.64+316+1520C402.946+1491.45+363.854+1363.11+352+1372C311.115+1402.66+321.353+1490.33+366+1511C402.287+1527.8+442.131+1495.6+446+1460C447.13+1449.6+436.753+1420.91+434+1431C406.716+1531.04+554.923+1549.46+561+1513C563.766+1496.4+534.436+1491.7+519+1485C476.093+1466.39+230.543+1373.98+205+1457C195.77+1487+381.115+1469.11+383+1469C488.08+1462.93+584.543+1461.87+687+1487" fill="none" stroke-linecap="round" opacity="1" stroke-linejoin="round"/>
</g>
</svg>
