<?xml version="1.0" encoding="UTF-8" standalone="no"?> <!-- Created with Vectornator for iOS (http://vectornator.io/) --><!DOCTYPE svg PUBLIC "-//W3C//DTD SVG 1.1//EN" "http://www.w3.org/Graphics/SVG/1.1/DTD/svg11.dtd">
<svg height="100%" style="fill-rule:nonzero;clip-rule:evenodd;stroke-linecap:round;stroke-linejoin:round;" xmlns:xlink="http://www.w3.org/1999/xlink" xmlns="http://www.w3.org/2000/svg" xml:space="preserve" width="100%" xmlns:vectornator="http://vectornator.io" version="1.1" viewBox="0 0 1620 1620">
<metadata>
<vectornator:setting key="DimensionsVisible" value="1"/>
<vectornator:setting key="PencilOnly" value="0"/>
<vectornator:setting key="SnapToPoints" value="0"/>
<vectornator:setting key="GuidesVisible" value="1"/>
<vectornator:setting key="RulersVisible" value="1"/>
<vectornator:setting key="CMYKEnabledKey" value="0"/>
<vectornator:setting key="SnapToEdges" value="0"/>
<vectornator:setting key="OutlineMode" value="0"/>
<vectornator:setting key="DisplayWhiteBackground" value="0"/>
<vectornator:setting key="doHistoryDisabled" value="0"/>
<vectornator:setting key="TimeLapseWatermarkDisabled" value="0"/>
<vectornator:setting key="SnapToGuides" value="1"/>
<vectornator:setting key="DynamicGuides" value="0"/>
<vectornator:setting key="IsolateActiveLayer" value="0"/>
<vectornator:setting key="Units" value="Pixels"/>
<vectornator:setting key="SnapToGrid" value="0"/>
</metadata>
<defs/>
<g id="Layer 1" vectornator:layerName="Layer 1">
<path stroke="#000000" stroke-width="50.4924" d="M897.452+430.895C894.718+425.34+888.515+420.714+886.539+414.692C884.202+407.573+884.933+399.084+884.02+391.667C882.996+383.344+885.551+375.812+886.539+367.789C887.709+358.273+892.407+351.383+898.292+343.91C905.566+334.674+918.33+322.192+930.193+319.179C959.045+311.852+995.509+327.164+1014.14+349.88C1021.51+358.857+1021.7+375.468+1021.7+386.55C1021.7+395.101+1018.64+405.555+1014.98+412.987C1009.21+424.714+1005.85+435.055+996.515+444.54" fill="none" stroke-linecap="round" opacity="1" stroke-linejoin="round"/>
<path stroke="#000000" stroke-width="50.4924" d="M897.452+430.895C894.718+425.34+888.515+420.714+886.539+414.692C884.202+407.573+884.933+399.084+884.02+391.667C882.996+383.344+885.551+375.812+886.539+367.789C887.709+358.273+892.407+351.383+898.292+343.91C905.566+334.674+918.33+322.192+930.193+319.179C959.045+311.852+995.509+327.164+1014.14+349.88C1021.51+358.857+1021.7+375.468+1021.7+386.55C1021.7+395.101+1018.64+405.555+1014.98+412.987C1009.21+424.714+1005.85+435.055+996.515+444.54" fill="none" stroke-linecap="round" opacity="1" stroke-linejoin="round"/>
<path stroke="#000000" stroke-width="50.4924" d="M1082.27+475.445C1082.77+469.256+1079.84+462.028+1081.23+455.841C1082.88+448.525+1087.85+441.658+1090.86+434.839C1094.24+427.188+1100.28+422.103+1105.23+415.769C1111.1+408.258+1118.64+404.851+1127.49+401.573C1138.43+397.523+1155.72+393.597+1167.4+397.286C1195.79+406.258+1219.11+438.59+1223.41+467.835C1225.11+479.392+1216.78+493.685+1211.11+503.153C1206.73+510.458+1198.77+517.775+1191.84+522.193C1180.91+529.165+1172.75+536.226+1159.92+539.4" fill="none" stroke-linecap="round" opacity="1" stroke-linejoin="round"/>
<path stroke="#000000" stroke-width="50.4924" d="M1219.67+616.991C1222.76+611.631+1223.19+603.826+1227.08+598.857C1231.68+592.982+1239.08+588.969+1244.7+584.144C1251+578.728+1258.61+576.792+1265.77+573.252C1274.25+569.054+1282.5+569.29+1291.88+570.219C1303.47+571.368+1320.73+575.417+1329.69+583.869C1351.49+604.425+1358.76+643.818+1350.2+672.08C1346.82+683.247+1333.22+692.479+1324.08+698.529C1317.03+703.197+1306.74+706.301+1298.61+707.245C1285.78+708.734+1275.42+711.521+1262.5+708.752" fill="none" stroke-linecap="round" opacity="1" stroke-linejoin="round"/>
<path stroke="#000000" stroke-width="50.4924" d="M1277.42+801.556C1282.39+797.935+1285.9+790.982+1291.44+788.048C1297.99+784.58+1306.36+783.971+1313.43+781.884C1321.36+779.541+1329.08+780.914+1337.04+780.636C1346.47+780.307+1353.91+783.93+1362.1+788.652C1372.23+794.488+1386.38+805.319+1391.19+816.743C1402.87+844.525+1393.75+883.52+1374.61+905.802C1367.05+914.607+1350.93+917.424+1340.16+919.176C1331.85+920.527+1321.2+919.112+1313.4+916.617C1301.09+912.68+1290.51+910.945+1279.81+903.077" fill="none" stroke-linecap="round" opacity="1" stroke-linejoin="round"/>
<path stroke="#000000" stroke-width="50.4924" d="M1162.29+1144.43C1168.14+1146.23+1175.71+1144.83+1181.37+1147.51C1188.07+1150.67+1193.64+1157.05+1199.57+1161.47C1206.23+1166.43+1209.86+1173.49+1214.92+1179.73C1220.92+1187.13+1222.63+1195.34+1223.93+1204.81C1225.54+1216.53+1225.69+1234.53+1219.7+1245.35C1205.11+1271.68+1169.11+1288.07+1140.06+1286.22C1128.58+1285.49+1116.56+1274.22+1108.64+1266.6C1102.52+1260.73+1097.14+1251.29+1094.34+1243.48C1089.92+1231.16+1084.83+1221.58+1084.46+1208.17" fill="none" stroke-linecap="round" opacity="1" stroke-linejoin="round"/>
<path stroke="#000000" stroke-width="50.4924" d="M994.136+1247.2C998.775+1251.25+1006.26+1253.07+1010.38+1257.84C1015.24+1263.49+1017.81+1271.6+1021.48+1278.08C1025.6+1285.35+1026.11+1293.3+1028.26+1301.09C1030.81+1310.32+1029.11+1318.52+1026.53+1327.72C1023.35+1339.1+1016.34+1355.63+1006.55+1363.08C982.748+1381.19+943.292+1381.42+917.449+1367.81C907.237+1362.43+900.726+1347.19+896.5+1336.98C893.239+1329.09+892.072+1318.25+892.61+1309.96C893.459+1296.88+892.613+1286.02+897.604+1273.6" fill="none" stroke-linecap="round" opacity="1" stroke-linejoin="round"/>
<path stroke="#000000" stroke-width="50.4924" d="M795.75+1276.55C798.002+1282.33+803.789+1287.48+805.247+1293.65C806.969+1300.95+805.521+1309.34+805.8+1316.81C806.114+1325.2+802.928+1332.47+801.263+1340.38C799.288+1349.76+794.023+1356.21+787.525+1363.14C779.494+1371.71+765.717+1383.02+753.642+1384.98C724.276+1389.75+689.248+1371.3+672.612+1347.04C666.038+1337.45+667.258+1320.89+668.199+1309.84C668.925+1301.33+672.86+1291.18+677.135+1284.09C683.882+1272.92+688.107+1262.91+698.216+1254.28" fill="none" stroke-linecap="round" opacity="1" stroke-linejoin="round"/>
<path stroke="#000000" stroke-width="50.4924" d="M605.858+1208.39C605.682+1214.59+608.995+1221.65+607.933+1227.9C606.678+1235.3+602.084+1242.43+599.436+1249.4C596.465+1257.23+590.708+1262.64+586.104+1269.24C580.643+1277.06+573.297+1280.87+564.634+1284.63C553.925+1289.28+536.868+1294.15+525.012+1291.1C496.179+1283.7+471.173+1252.7+465.325+1223.73C463.014+1212.29+470.576+1197.56+475.734+1187.79C479.713+1180.26+487.274+1172.51+493.956+1167.72C504.5+1160.16+512.273+1152.66+524.916+1148.79" fill="none" stroke-linecap="round" opacity="1" stroke-linejoin="round"/>
<path stroke="#000000" stroke-width="50.4924" d="M460.613+1074.56C457.813+1080.08+457.8+1087.9+454.182+1093.07C449.905+1099.19+442.728+1103.6+437.374+1108.73C431.366+1114.49+423.873+1116.84+416.915+1120.76C408.664+1125.42+400.416+1125.64+391.004+1125.23C379.371+1124.72+361.917+1121.62+352.519+1113.67C329.664+1094.34+320.301+1055.41+327.347+1026.72C330.132+1015.38+343.217+1005.41+352.022+998.872C358.816+993.823+368.928+990.158+376.992+988.77C389.718+986.579+399.918+983.228+412.967+985.283" fill="none" stroke-linecap="round" opacity="1" stroke-linejoin="round"/>
<path stroke="#000000" stroke-width="50.4924" d="M390.888+900.552C385.703+903.845+381.759+910.557+376.045+913.128C369.29+916.166+360.902+916.234+353.72+917.861C345.661+919.687+338.038+917.819+330.081+917.582C320.645+917.302+313.446+913.206+305.565+907.965C295.823+901.487+282.378+889.765+278.299+878.054C268.378+849.575+279.92+811.247+300.411+790.245C308.509+781.945+324.769+780.174+335.629+779.121C344.009+778.309+354.544+780.409+362.175+783.402C374.215+788.125+384.668+790.54+394.85+799.082" fill="none" stroke-linecap="round" opacity="1" stroke-linejoin="round"/>
<path stroke="#000000" stroke-width="50.4924" d="M426.591+713.041C420.776+714.96+415.349+720.502+409.192+721.59C401.914+722.875+393.759+720.877+386.403+720.689C378.148+720.477+371.198+716.788+363.535+714.601C354.447+712.007+348.439+706.262+342.042+699.237C334.135+690.555+323.886+675.873+322.721+663.508C319.888+633.435+340.226+599.089+365.115+583.755C374.95+577.695+391.149+579.978+401.937+581.629C410.26+582.903+419.981+587.533+426.671+592.315C437.226+599.86+446.792+604.775+454.634+615.568" fill="none" stroke-linecap="round" opacity="1" stroke-linejoin="round"/>
<path stroke="#000000" stroke-width="50.4924" d="M536.651+548.454C530.55+548.054+523.49+551.166+517.374+549.865C510.143+548.328+503.293+543.409+496.526+540.473C488.933+537.177+483.817+531.14+477.491+526.231C469.99+520.409+466.498+512.815+463.11+503.886C458.921+492.85+454.739+475.361+458.156+463.433C466.463+434.426+497.857+410.146+526.563+405.242C537.907+403.303+552.128+411.506+561.551+417.09C568.822+421.398+576.171+429.349+580.647+436.304C587.71+447.278+594.81+455.436+598.17+468.409" fill="none" stroke-linecap="round" opacity="1" stroke-linejoin="round"/>
<path stroke="#000000" stroke-width="50.4924" d="M700.418+436.06C695.462+432.423+687.855+431.241+683.358+426.834C678.041+421.623+674.818+413.756+670.628+407.612C665.925+400.717+664.756+392.84+661.973+385.264C658.672+376.28+659.693+367.963+661.502+358.572C663.737+346.964+669.359+329.896+678.5+321.644C700.73+301.576+740.028+297.991+766.901+309.356C777.521+313.847+785.264+328.479+790.317+338.301C794.216+345.879+796.272+356.583+796.418+364.891C796.65+378+798.387+388.746+794.436+401.545" fill="none" stroke-linecap="round" opacity="1" stroke-linejoin="round"/>
<path stroke="#000000" stroke-width="50.4924" d="M1243.67+1001.05C1249.36+998.785+1254.45+992.923+1260.53+991.463C1267.72+989.736+1275.98+991.235+1283.34+990.976C1291.59+990.684+1298.74+993.944+1306.52+995.661C1315.75+997.697+1322.08+1003.07+1328.88+1009.69C1337.29+1017.88+1348.38+1031.91+1350.27+1044.18C1354.88+1074.03+1336.6+1109.55+1312.66+1126.37C1303.2+1133.02+1286.89+1131.72+1276.03+1130.73C1267.65+1129.96+1257.67+1125.94+1250.71+1121.57C1239.73+1114.68+1229.89+1110.35+1221.43+1100.06" fill="none" stroke-linecap="round" opacity="1" stroke-linejoin="round"/>
<path stroke="#000000" stroke-width="50.4924" d="M1009.37+447.951C1027.14+438.928+1059.7+466.966+1073.18+476.093" fill="none" stroke-linecap="round" opacity="1" stroke-linejoin="round"/>
<path stroke="#000000" stroke-width="50.4924" d="M1157.13+547.728C1169.98+560.78+1182.23+572.878+1191.55+588.662C1194.85+594.256+1193.13+609.078+1198.26+611.688" fill="none" stroke-linecap="round" opacity="1" stroke-linejoin="round"/>
<path stroke="#000000" stroke-width="50.4924" d="M1254.51+714.875C1251.92+716.19+1264.1+735.925+1265.43+741.312C1268+751.768+1265.4+763.395+1267.94+773.718C1268.97+777.906+1266.81+782.5+1268.78+786.51" fill="none" stroke-linecap="round" opacity="1" stroke-linejoin="round"/>
<path stroke="#000000" stroke-width="50.4924" d="M1270.46+916.987C1268.39+923.313+1270.54+930.106+1269.62+936.602C1268.5+944.567+1266.56+952.447+1265.43+960.48C1264.11+969.83+1255.99+978.806+1251.99+986.916" fill="none" stroke-linecap="round" opacity="1" stroke-linejoin="round"/>
<path stroke="#000000" stroke-width="50.4924" d="M1200.78+1093.52C1200.78+1101.28+1193.65+1106.65+1189.03+1112.28C1185.77+1116.25+1183.74+1121.72+1180.64+1125.92C1175.52+1132.85+1167.33+1136.88+1161.33+1142.98" fill="none" stroke-linecap="round" opacity="1" stroke-linejoin="round"/>
<path stroke="#000000" stroke-width="50.4924" d="M1088.29+1223.99C1081.16+1223.99+1073.05+1232.89+1067.3+1236.78C1057.52+1243.41+1033.01+1256.4+1021.97+1256.4" fill="none" stroke-linecap="round" opacity="1" stroke-linejoin="round"/>
<path stroke="#000000" stroke-width="50.4924" d="M893.522+1293.07C889.798+1294.96+882.93+1292.15+878.411+1293.07C867.819+1295.22+855.283+1301.91+843.991+1299.04C835.955+1297+828.192+1293.92+819.645+1293.92" fill="none" stroke-linecap="round" opacity="1" stroke-linejoin="round"/>
<path stroke="#000000" stroke-width="50.4924" d="M679.446+1261.52C677.913+1262.29+676.245+1263.69+674.409+1263.22C667.804+1261.54+630.688+1244.33+628.236+1239.34" fill="none" stroke-linecap="round" opacity="1" stroke-linejoin="round"/>
<path stroke="#000000" stroke-width="50.4924" d="M516.581+1145.54C512.182+1147.77+503.7+1137.57+500.63+1134.45C495.918+1129.66+490.841+1124.65+487.198+1119.1C484.138+1114.44+483.157+1108.21+479.642+1103.75C474.201+1096.84+469.568+1094.76+469.568+1084.99" fill="none" stroke-linecap="round" opacity="1" stroke-linejoin="round"/>
<path stroke="#000000" stroke-width="50.4924" d="M426.753+980.094C419.14+980.094+415.285+966.467+413.321+960.48C407.663+943.237+400.58+925.965+406.605+907.607" fill="none" stroke-linecap="round" opacity="1" stroke-linejoin="round"/>
<path stroke="#000000" stroke-width="50.4924" d="M402.407+795.891C399.675+790.341+403.153+783.67+404.086+777.982C406.334+764.284+408.921+747.691+415+735.343" fill="none" stroke-linecap="round" opacity="1" stroke-linejoin="round"/>
<path stroke="#000000" stroke-width="50.4924" d="M467.049+620.215C460.452+616.865+468.378+607.284+470.408+603.16C476.49+590.803+485.572+581.346+493.914+570.753C497.026+566.802+500.823+558.814+506.507+558.814" fill="none" stroke-linecap="round" opacity="1" stroke-linejoin="round"/>
<path stroke="#000000" stroke-width="50.4924" d="M601.371+474.388C599.326+468.154+610.555+462.768+614.804+459.89C628.597+450.55+641.725+438.835+657.619+433.454C661.761+432.051+666.095+427.484+670.212+427.484" fill="none" stroke-linecap="round" opacity="1" stroke-linejoin="round"/>
<path stroke="#000000" stroke-width="50.4924" d="M808.731+405.312C798.495+405.312+825.588+399.035+827.2+398.489C840.612+393.948+853.729+399.342+866.657+399.342" fill="none" stroke-linecap="round" opacity="1" stroke-linejoin="round"/>
<path stroke="#000000" stroke-width="50.4924" d="M661.816+567.826C661.816+528.467+739.076+496.56+834.38+496.56C929.685+496.56+1006.94+528.467+1006.94+567.826C1006.94+607.185+929.685+639.092+834.38+639.092C739.076+639.092+661.816+607.185+661.816+567.826Z" fill="none" stroke-linecap="round" opacity="1" stroke-linejoin="round"/>
<path stroke="#000000" stroke-width="50.4924" d="M665.355+589.45L661.636+1082.49" fill="none" stroke-linecap="round" opacity="1" stroke-linejoin="round"/>
<path stroke="#000000" stroke-width="50.4924" d="M1006.2+581.775L1002.48+1074.82" fill="none" stroke-linecap="round" opacity="1" stroke-linejoin="round"/>
<path stroke="#000000" stroke-width="50.4924" d="M666.014+1093.52C656.755+1098.22+681.41+1114.93+686.162+1116.54C719.343+1127.78+753.031+1133.59+786.904+1142.98C854.049+1161.58+903.274+1160.91+964.88+1123.36C977.287+1115.8+998.463+1090.96+1008.54+1087.55" fill="none" stroke-linecap="round" opacity="1" stroke-linejoin="round"/>
<path stroke="#000000" stroke-width="50.4924" d="M666.853+690.997C718.914+743.882+865.236+731.407+928.781+707.2C943.473+701.604+961.624+697.416+974.955+689.292C979.711+686.393+989.59+677.353+994.263+677.353" fill="none" stroke-linecap="round" opacity="1" stroke-linejoin="round"/>
<path stroke="#000000" stroke-width="50.4924" d="M671.051+793.332C668.411+791.991+681.406+799.018+684.483+800.155C691.672+802.81+700.549+804.851+707.15+808.683C727.873+820.712+754.379+824.418+777.669+829.15C841.825+842.184+946.768+824.523+995.103+775.424" fill="none" stroke-linecap="round" opacity="1" stroke-linejoin="round"/>
<path stroke="#000000" stroke-width="50.4924" d="M674.409+898.226C681.99+898.226+692.844+906.736+699.594+910.165C718.313+919.673+759.815+930.796+781.027+933.191C867.898+942.996+924.691+915.654+997.621+878.612" fill="none" stroke-linecap="round" opacity="1" stroke-linejoin="round"/>
<path stroke="#000000" stroke-width="50.4924" d="M662.656+998.003C662.656+997.434+662.656+996.866+662.656+996.297" fill="none" stroke-linecap="round" opacity="1" stroke-linejoin="round"/>
<path stroke="#000000" stroke-width="50.4924" d="M670.212+992.886C681.553+1004.41+701.157+1007.02+715.545+1012.5C790.343+1040.99+835.648+1063.52+913.67+1029.56C936.673+1019.54+958.244+1004.66+979.992+992.033C985.435+988.873+989.147+978.389+995.942+978.389" fill="none" stroke-linecap="round" opacity="1" stroke-linejoin="round"/>
<path stroke="#000000" stroke-width="50.4924" d="M960.636+313.5C951.838+295.904+957.89+276.366+964.636+259.5C971.043+243.484+978.025+221.867+993.636+212.5C1005.43+205.425+1019.41+204.97+1032.64+203.5C1053.02+201.235+1075.95+197.544+1096.64+200.5C1110.99+202.551+1126.09+204.5+1140.64+204.5" fill="none" stroke-linecap="round" opacity="1" stroke-linejoin="round"/>
<path stroke="#000000" stroke-width="50.4924" d="M709.247+284.5C718.045+266.904+711.994+247.366+705.247+230.5C698.841+214.484+691.859+192.867+676.247+183.5C664.456+176.425+650.477+175.97+637.247+174.5C616.86+172.235+593.938+168.544+573.247+171.5C558.889+173.551+543.791+175.5+529.247+175.5" fill="none" stroke-linecap="round" opacity="1" stroke-linejoin="round"/>
<path stroke="#000000" stroke-width="50.4924" d="M1216.64+427.5C1237.09+427.5+1258.26+425.932+1278.64+427.5C1311.66+430.04+1345.91+431.954+1378.64+426.5C1388.1+424.924+1398.14+426.857+1407.64+425.5C1420.39+423.678+1436.58+411.088+1443.64+400.5C1461.6+373.555+1463.64+327.248+1463.64+295.5C1463.64+280.454+1470.63+241.48+1464.64+229.5" fill="none" stroke-linecap="round" opacity="1" stroke-linejoin="round"/>
<path stroke="#000000" stroke-width="50.4924" d="M492.062+411.5C471.61+411.5+450.44+409.932+430.062+411.5C397.04+414.04+362.786+415.954+330.062+410.5C320.603+408.924+310.56+410.857+301.062+409.5C288.309+407.678+272.121+395.088+265.062+384.5C247.098+357.555+245.062+311.248+245.062+279.5C245.062+264.454+238.072+225.48+244.062+213.5" fill="none" stroke-linecap="round" opacity="1" stroke-linejoin="round"/>
<path stroke="#000000" stroke-width="50.4924" d="M1358.64+624.5C1369.15+624.5+1379.9+620.553+1390.41+619.347C1407.81+617.35+1424.4+620.378+1441.52+620.378" fill="none" stroke-linecap="round" opacity="1" stroke-linejoin="round"/>
<path stroke="#000000" stroke-width="50.4924" d="M180.636+628.5C195.851+628.5+211.418+624.671+226.636+623.5C251.831+621.562+275.847+624.5+300.636+624.5" fill="none" stroke-linecap="round" opacity="1" stroke-linejoin="round"/>
<path stroke="#000000" stroke-width="50.4924" d="M1397.64+850.5C1419.98+857.948+1416.43+847.187+1440.01+847.187" fill="none" stroke-linecap="round" opacity="1" stroke-linejoin="round"/>
<path stroke="#000000" stroke-width="50.4924" d="M198.753+844.475C214.327+850.574+233.195+848.57+249.636+848.57" fill="none" stroke-linecap="round" opacity="1" stroke-linejoin="round"/>
<path stroke="#000000" stroke-width="50.4924" d="M1349.45+1087.39C1345.49+1087.39+1357.81+1085.59+1359.15+1085.16C1365.06+1083.29+1370.83+1081.36+1376.93+1080.71C1393.61+1078.95+1415.21+1078.13+1430.27+1088.5" fill="none" stroke-linecap="round" opacity="1" stroke-linejoin="round"/>
<path stroke="#000000" stroke-width="50.4924" d="M200.636+1082.5C195.732+1082.5+210.984+1080.88+212.636+1080.5C219.954+1078.81+227.084+1077.08+234.636+1076.5C255.272+1074.91+281.997+1074.18+300.636+1083.5" fill="none" stroke-linecap="round" opacity="1" stroke-linejoin="round"/>
<path stroke="#000000" stroke-width="50.4924" d="M1201.64+1280.5C1217.34+1284.43+1233.75+1278.5+1249.64+1278.5C1265.76+1278.5+1282.68+1276.17+1298.64+1277.5C1319.05+1279.2+1340.05+1280.87+1360.64+1279.5C1375.5+1278.51+1407.15+1272.76+1420.64+1279.5C1433.71+1286.03+1445.87+1295.11+1455.64+1306.5C1465.14+1317.59+1466.09+1341.54+1467.64+1355.5C1471.66+1391.73+1462.69+1404.93+1462.69+1441.25" fill="none" stroke-linecap="round" opacity="1" stroke-linejoin="round"/>
<path stroke="#000000" stroke-width="50.4924" d="M484.636+1278.78C469.015+1282.03+452.695+1277.12+436.896+1277.12C420.857+1277.12+404.033+1275.19+388.161+1276.29C367.857+1277.7+346.976+1279.09+326.496+1277.95C311.709+1277.13+280.232+1272.36+266.82+1277.95C253.821+1283.37+241.72+1290.89+232.01+1300.33C222.553+1309.53+221.617+1329.38+220.074+1340.95C216.071+1370.99+215.101+1400.37+215.101+1430.48" fill="none" stroke-linecap="round" opacity="1" stroke-linejoin="round"/>
<path stroke="#000000" stroke-width="50.4924" d="M971.636+1395.02C971.636+1413.63+976.19+1432.01+977.521+1450.51C979.205+1473.91+977.645+1506.92+994.333+1524.49C1013.33+1544.49+1045.03+1548.96+1069.15+1551.75C1081.06+1553.13+1092.62+1557.71+1104.45+1558.57C1115.34+1559.35+1125.42+1559.24+1136.4+1560.51C1152.8+1562.41+1169.76+1557.59+1185.99+1557.59" fill="none" stroke-linecap="round" opacity="1" stroke-linejoin="round"/>
<path stroke="#000000" stroke-width="50.4924" d="M736.636+1391.5C736.636+1410.62+731.963+1429.5+730.597+1448.5C728.868+1472.54+730.469+1506.45+713.34+1524.5C693.839+1545.05+661.308+1549.63+636.547+1552.5C624.318+1553.92+612.457+1558.62+600.308+1559.5C589.13+1560.31+578.788+1560.19+567.521+1561.5C550.681+1563.45+533.271+1558.5+516.613+1558.5" fill="none" stroke-linecap="round" opacity="1" stroke-linejoin="round"/>
<path stroke="#000000" stroke-width="50.4924" d="M1170.64+213.5C1170.64+173.735+1204.89+141.5+1247.14+141.5C1289.39+141.5+1323.64+173.735+1323.64+213.5C1323.64+253.265+1289.39+285.5+1247.14+285.5C1204.89+285.5+1170.64+253.265+1170.64+213.5Z" fill="none" stroke-linecap="round" opacity="1" stroke-linejoin="round"/>
<path stroke="#000000" stroke-width="50.4924" d="M1394.64+150.5C1394.64+110.735+1428.89+78.5+1471.14+78.5C1513.39+78.5+1547.64+110.735+1547.64+150.5C1547.64+190.265+1513.39+222.5+1471.14+222.5C1428.89+222.5+1394.64+190.265+1394.64+150.5Z" fill="none" stroke-linecap="round" opacity="1" stroke-linejoin="round"/>
<path stroke="#000000" stroke-width="50.4924" d="M1436.64+1085.5C1436.64+1045.74+1470.89+1013.5+1513.14+1013.5C1555.39+1013.5+1589.64+1045.74+1589.64+1085.5C1589.64+1125.26+1555.39+1157.5+1513.14+1157.5C1470.89+1157.5+1436.64+1125.26+1436.64+1085.5Z" fill="none" stroke-linecap="round" opacity="1" stroke-linejoin="round"/>
<path stroke="#000000" stroke-width="50.4924" d="M1177.64+1518.5C1177.64+1478.74+1211.89+1446.5+1254.14+1446.5C1296.39+1446.5+1330.64+1478.74+1330.64+1518.5C1330.64+1558.26+1296.39+1590.5+1254.14+1590.5C1211.89+1590.5+1177.64+1558.26+1177.64+1518.5Z" fill="none" stroke-linecap="round" opacity="1" stroke-linejoin="round"/>
<path stroke="#000000" stroke-width="50.4924" d="M134.636+1520.5C134.636+1480.74+168.887+1448.5+211.136+1448.5C253.386+1448.5+287.636+1480.74+287.636+1520.5C287.636+1560.26+253.386+1592.5+211.136+1592.5C168.887+1592.5+134.636+1560.26+134.636+1520.5Z" fill="none" stroke-linecap="round" opacity="1" stroke-linejoin="round"/>
<path stroke="#000000" stroke-width="50.4924" d="M29.6364+840.5C29.6364+800.735+63.8866+768.5+106.136+768.5C148.386+768.5+182.636+800.735+182.636+840.5C182.636+880.265+148.386+912.5+106.136+912.5C63.8866+912.5+29.6364+880.265+29.6364+840.5Z" fill="none" stroke-linecap="round" opacity="1" stroke-linejoin="round"/>
<path stroke="#000000" stroke-width="50.4924" d="M371.636+1521.5C371.636+1481.74+405.887+1449.5+448.136+1449.5C490.386+1449.5+524.636+1481.74+524.636+1521.5C524.636+1561.26+490.386+1593.5+448.136+1593.5C405.887+1593.5+371.636+1561.26+371.636+1521.5Z" fill="none" stroke-linecap="round" opacity="1" stroke-linejoin="round"/>
<path stroke="#000000" stroke-width="50.4924" d="M33.7273+1088.5C33.7273+1048.74+67.9775+1016.5+110.227+1016.5C152.477+1016.5+186.727+1048.74+186.727+1088.5C186.727+1128.26+152.477+1160.5+110.227+1160.5C67.9775+1160.5+33.7273+1128.26+33.7273+1088.5Z" fill="none" stroke-linecap="round" opacity="1" stroke-linejoin="round"/>
<path stroke="#000000" stroke-width="50.4924" d="M169.727+123.5C169.727+83.7355+203.977+51.5+246.227+51.5C288.477+51.5+322.727+83.7355+322.727+123.5C322.727+163.265+288.477+195.5+246.227+195.5C203.977+195.5+169.727+163.265+169.727+123.5Z" fill="none" stroke-linecap="round" opacity="1" stroke-linejoin="round"/>
<path stroke="#000000" stroke-width="50.4924" d="M23.7273+612.5C23.7273+572.735+57.9775+540.5+100.227+540.5C142.477+540.5+176.727+572.735+176.727+612.5C176.727+652.265+142.477+684.5+100.227+684.5C57.9775+684.5+23.7273+652.265+23.7273+612.5Z" fill="none" stroke-linecap="round" opacity="1" stroke-linejoin="round"/>
<path stroke="#000000" stroke-width="50.4924" d="M373.727+169.5C373.727+129.735+407.977+97.5+450.227+97.5C492.477+97.5+526.727+129.735+526.727+169.5C526.727+209.265+492.477+241.5+450.227+241.5C407.977+241.5+373.727+209.265+373.727+169.5Z" fill="none" stroke-linecap="round" opacity="1" stroke-linejoin="round"/>
<path stroke="#000000" stroke-width="50.4924" d="M1453.24+851.454C1453.24+811.689+1487.49+779.454+1529.74+779.454C1571.99+779.454+1606.24+811.689+1606.24+851.454C1606.24+891.218+1571.99+923.454+1529.74+923.454C1487.49+923.454+1453.24+891.218+1453.24+851.454Z" fill="none" stroke-linecap="round" opacity="1" stroke-linejoin="round"/>
<path stroke="#000000" stroke-width="50.4924" d="M1398.64+1517.5C1398.64+1477.74+1432.89+1445.5+1475.14+1445.5C1517.39+1445.5+1551.64+1477.74+1551.64+1517.5C1551.64+1557.26+1517.39+1589.5+1475.14+1589.5C1432.89+1589.5+1398.64+1557.26+1398.64+1517.5Z" fill="none" stroke-linecap="round" opacity="1" stroke-linejoin="round"/>
<path stroke="#000000" stroke-width="50.4924" d="M1433.64+622.5C1433.64+582.735+1467.89+550.5+1510.14+550.5C1552.39+550.5+1586.64+582.735+1586.64+622.5C1586.64+662.265+1552.39+694.5+1510.14+694.5C1467.89+694.5+1433.64+662.265+1433.64+622.5Z" fill="none" stroke-linecap="round" opacity="1" stroke-linejoin="round"/>
<path stroke="#000000" stroke-width="1.44192" d="M770.975+1527.94C769.704+1527.51+766.683+1528.42+767.309+1529.61C770.627+1535.9+775.922+1540.95+780.64+1546.27C787.518+1554.03+795.018+1561.24+802.637+1568.27C805.187+1570.62+807.842+1572.88+810.636+1574.94C812.078+1576+816.029+1579.24+815.302+1577.6C813.765+1574.14+810.473+1571.77+807.97+1568.94C803.806+1564.22+799.441+1559.68+795.305+1554.94C784.72+1542.8+773.928+1530.76+764.642+1517.61C761.543+1513.22+758.591+1508.62+756.644+1503.61C755.128+1499.72+753.759+1491.85+757.977+1488.28C765.48+1481.93+775.107+1489.94+779.307+1495.61C784.002+1501.95+787.423+1509.64+787.972+1517.61C788.335+1522.87+785.591+1532.94+778.64+1532.94C775.59+1532.94+773.864+1528.92+770.975+1527.94Z" fill="none" stroke-linecap="round" opacity="1" stroke-linejoin="round"/>
<path stroke="#000000" stroke-width="1.44192" d="M818.635+1531.61C814.991+1531.61+812.815+1527.22+809.969+1524.94C805.686+1521.52+801.872+1520.11+796.638+1518.94C794.889+1518.55+792.878+1517.42+791.305+1518.28C789.82+1519.09+789.306+1521.25+789.306+1522.94C789.306+1525.69+790.045+1528.5+791.305+1530.94C793.651+1535.49+796.519+1539.83+799.971+1543.61C803.695+1547.68+807.859+1551.51+812.636+1554.27C816.467+1556.49+820.876+1558.13+825.3+1558.27C828.394+1558.37+831.616+1556.95+833.966+1554.94C836.541+1552.73+838.582+1549.59+839.298+1546.27C842.08+1533.41+836.574+1519.67+831.3+1507.61C824.359+1491.75+813.682+1477.62+802.637+1464.28C797.117+1457.62+791.626+1450.87+785.306+1444.95C784.495+1444.19+781.622+1443.9+781.973+1444.95C783.673+1450.05+786.64+1454.74+789.972+1458.95C797.581+1468.58+805.764+1477.8+814.635+1486.28C825.804+1496.95+836.87+1508.08+849.964+1516.28C860.944+1523.15+873.277+1528.29+885.958+1530.94C892.972+1532.41+900.505+1530.58+907.289+1528.28C911.96+1526.69+916.638+1523.77+919.287+1519.61C921.7+1515.82+922.521+1510.6+921.287+1506.28C919.661+1500.59+915.423+1495.84+911.288+1491.61C905.758+1485.96+898.903+1481.76+892.624+1476.95C885.571+1471.54+878.959+1465.45+871.294+1460.95C868.55+1459.34+863.976+1456.49+861.962+1458.95C859.87+1461.51+863.492+1465.52+865.295+1468.28C869.782+1475.18+875.008+1481.61+880.626+1487.61C887.928+1495.42+895.003+1503.77+903.956+1509.61C910.666+1513.99+918.67+1516.62+926.619+1517.61C931.594+1518.23+936.902+1516.71+941.284+1514.28C945.269+1512.06+948.847+1508.48+950.616+1504.28C952.607+1499.55+953.271+1493.9+951.949+1488.95C950.456+1483.35+946.953+1478.13+942.617+1474.28C936.884+1469.2+929.667+1465.96+922.62+1462.95C914.475+1459.48+905.912+1456.97+897.29+1454.95C888.753+1452.96+880.061+1451.07+871.294+1450.95C862.779+1450.84+853.97+1451.38+845.964+1454.29C835.859+1457.95+826.721+1464.05+817.968+1470.28C807.311+1477.88+796.976+1486.12+787.972+1495.61C780.633+1503.35+774.435+1512.25+769.308+1521.61C765.459+1528.63+762.968+1536.43+761.31+1544.27C760.481+1548.19+759.144+1553.44+761.976+1556.27C764.495+1558.79+769.417+1557.12+772.641+1555.6C780.619+1551.86+787.833+1546.54+794.638+1540.94C805.442+1532.05+815.691+1522.45+825.3+1512.28C838.609+1498.19+849.897+1482.28+863.295+1468.28C879.702+1451.14+896.173+1433.88+914.621+1418.96C931.199+1405.55+949.641+1394.56+967.947+1383.63C993.49+1368.37+1021.68+1359.21+1043.94+1338.97" fill="none" stroke-linecap="round" opacity="1" stroke-linejoin="round"/>
</g>
<g id="Layer 2" vectornator:layerName="Layer 2" visibility="hidden">
<path stroke="#000000" stroke-width="50.4007" d="M960.297+314.369C1183.28+365.582+1349.51+564.366+1349.51+801.78C1349.51+1078.04+1124.42+1302+846.756+1302C569.092+1302+344+1078.04+344+801.78C344+525.516+569.092+301.56+846.756+301.56C885.803+301.56+923.81+305.989+960.297+314.369" fill="none" stroke-linecap="round" opacity="1" stroke-linejoin="round"/>
<path stroke="#000000" stroke-width="50.4924" d="M168.143+801.27C168.143+441.742+473.284+150.286+849.695+150.286C1226.11+150.286+1531.25+441.742+1531.25+801.27C1531.25+1160.8+1226.11+1452.25+849.695+1452.25C473.284+1452.25+168.143+1160.8+168.143+801.27Z" fill="none" stroke-linecap="round" opacity="1" stroke-linejoin="round"/>
</g>
</svg>
