<?xml version="1.0" encoding="UTF-8" standalone="no"?> <!-- Created with Vectornator for iOS (http://vectornator.io/) --><!DOCTYPE svg PUBLIC "-//W3C//DTD SVG 1.1//EN" "http://www.w3.org/Graphics/SVG/1.1/DTD/svg11.dtd">
<svg height="100%" style="fill-rule:nonzero;clip-rule:evenodd;stroke-linecap:round;stroke-linejoin:round;" xmlns:xlink="http://www.w3.org/1999/xlink" xmlns="http://www.w3.org/2000/svg" xml:space="preserve" width="100%" xmlns:vectornator="http://vectornator.io" version="1.1" viewBox="0 0 1620 1620">
<metadata>
<vectornator:setting key="DimensionsVisible" value="1"/>
<vectornator:setting key="PencilOnly" value="0"/>
<vectornator:setting key="SnapToPoints" value="0"/>
<vectornator:setting key="GuidesVisible" value="1"/>
<vectornator:setting key="RulersVisible" value="1"/>
<vectornator:setting key="CMYKEnabledKey" value="0"/>
<vectornator:setting key="SnapToEdges" value="0"/>
<vectornator:setting key="OutlineMode" value="0"/>
<vectornator:setting key="DisplayWhiteBackground" value="0"/>
<vectornator:setting key="doHistoryDisabled" value="0"/>
<vectornator:setting key="TimeLapseWatermarkDisabled" value="0"/>
<vectornator:setting key="SnapToGuides" value="1"/>
<vectornator:setting key="Units" value="Pixels"/>
<vectornator:setting key="SnapToGrid" value="0"/>
<vectornator:setting key="DynamicGuides" value="0"/>
<vectornator:setting key="IsolateActiveLayer" value="0"/>
</metadata>
<defs/>
<g id="Layer 1" vectornator:layerName="Layer 1">
<path stroke="#000000" stroke-width="50.4007" d="M667.652+16.6408L947.652+16.6408L947.652+452.641L667.652+452.641L667.652+16.6408Z" fill="none" stroke-linecap="round" opacity="1" stroke-linejoin="round"/>
<path stroke="#000000" stroke-width="50.4007" d="M670.693+598.632L836.19+598.632L950.693+598.632L950.693+1034.63L670.693+1034.63L670.693+598.632Z" fill="none" stroke-linecap="round" opacity="1" stroke-linejoin="round"/>
<path stroke="#000000" stroke-width="50.4007" d="M1128.62+601.879L1408.62+601.879L1408.62+1037.88L1128.62+1037.88L1128.62+601.879Z" fill="none" stroke-linecap="round" opacity="1" stroke-linejoin="round"/>
<path stroke="#000000" stroke-width="50.4007" d="M935.701+1148.18L1215.7+1148.18L1215.7+1584.18L935.701+1584.18L935.701+1148.18Z" fill="none" stroke-linecap="round" opacity="1" stroke-linejoin="round"/>
<path stroke="#000000" stroke-width="50.4007" d="M1310.45+1145.65L1590.45+1145.65L1590.45+1581.65L1310.45+1581.65L1310.45+1145.65Z" fill="none" stroke-linecap="round" opacity="1" stroke-linejoin="round"/>
<path stroke="#000000" stroke-width="50.4007" d="M217.778+596.273L497.778+596.273L497.778+1032.27L217.778+1032.27L217.778+596.273Z" fill="none" stroke-linecap="round" opacity="1" stroke-linejoin="round"/>
<path stroke="#000000" stroke-width="50.4007" d="M43.1722+1144.74L323.172+1144.74L323.172+1580.74L43.1722+1580.74L43.1722+1144.74Z" fill="none" stroke-linecap="round" opacity="1" stroke-linejoin="round"/>
<path stroke="#000000" stroke-width="50.4007" d="M421.492+1145.91L701.492+1145.91L701.492+1581.91L421.492+1581.91L421.492+1145.91Z" fill="none" stroke-linecap="round" opacity="1" stroke-linejoin="round"/>
<path stroke="#000000" stroke-width="50.4007" d="M804.154+471.739C672.056+537.788+485.273+468.24+369.713+545.281C356.702+553.954+332.921+577.945+349.284+594.308" fill="none" stroke-linecap="round" opacity="1" stroke-linejoin="round"/>
<path stroke="#000000" stroke-width="50.4007" d="M804.154+471.739C672.056+537.788+485.273+468.24+369.713+545.281C356.702+553.954+332.921+577.945+349.284+594.308" fill="none" stroke-linecap="round" opacity="1" stroke-linejoin="round"/>
<path stroke="#000000" stroke-width="50.4007" d="M819.034+477.186C951.132+543.235+1137.91+473.688+1253.48+550.728C1266.49+559.402+1290.27+583.393+1273.9+599.756" fill="none" stroke-linecap="round" opacity="1" stroke-linejoin="round"/>
<path stroke="#000000" stroke-width="50.4007" d="M807.004+476.6L807.992+585.805" fill="none" stroke-linecap="round" opacity="1" stroke-linejoin="round"/>
<path stroke="#000000" stroke-width="50.4007" d="M358.037+1043.76L235.546+1128.86" fill="none" stroke-linecap="round" opacity="1" stroke-linejoin="round"/>
<path stroke="#000000" stroke-width="50.4007" d="M511.473+1136.59L359.326+1050.2" fill="none" stroke-linecap="round" opacity="1" stroke-linejoin="round"/>
<path stroke="#000000" stroke-width="50.4007" d="M1085.25+1134.01L1260.6+1051.49" fill="none" stroke-linecap="round" opacity="1" stroke-linejoin="round"/>
<path stroke="#000000" stroke-width="50.4007" d="M1435.96+1131.44L1264.47+1050.2" fill="none" stroke-linecap="round" opacity="1" stroke-linejoin="round"/>
<path stroke="#000000" stroke-width="50.4007" d="M732.21+121.544L881.901+122.264" fill="none" stroke-linecap="round" opacity="1" stroke-linejoin="round"/>
<path stroke="#000000" stroke-width="50.4007" d="M723.574+233.093L890.537+230.934" fill="none" stroke-linecap="round" opacity="1" stroke-linejoin="round"/>
<path stroke="#000000" stroke-width="50.4007" d="M727.892+337.445L876.864+338.164" fill="none" stroke-linecap="round" opacity="1" stroke-linejoin="round"/>
<path stroke="#000000" stroke-width="50.4007" d="M286.757+698.975L422.622+698.256" fill="none" stroke-linecap="round" opacity="1" stroke-linejoin="round"/>
<path stroke="#000000" stroke-width="50.4007" d="M297.91+941.781L421.344+943.015" fill="none" stroke-linecap="round" opacity="1" stroke-linejoin="round"/>
<path stroke="#000000" stroke-width="50.4007" d="M279.395+826.987L426.281+828.221" fill="none" stroke-linecap="round" opacity="1" stroke-linejoin="round"/>
<path stroke="#000000" stroke-width="50.4007" d="M741.038+692.444L865.707+692.444" fill="none" stroke-linecap="round" opacity="1" stroke-linejoin="round"/>
<path stroke="#000000" stroke-width="50.4007" d="M737.335+941.781L859.535+941.781" fill="none" stroke-linecap="round" opacity="1" stroke-linejoin="round"/>
<path stroke="#000000" stroke-width="50.4007" d="M732.398+810.941L874.347+809.706" fill="none" stroke-linecap="round" opacity="1" stroke-linejoin="round"/>
<path stroke="#000000" stroke-width="50.4007" d="M1200.21+691.21L1331.05+692.444" fill="none" stroke-linecap="round" opacity="1" stroke-linejoin="round"/>
<path stroke="#000000" stroke-width="50.4007" d="M1201.45+955.358L1334.76+956.593" fill="none" stroke-linecap="round" opacity="1" stroke-linejoin="round"/>
<path stroke="#000000" stroke-width="50.4007" d="M1200.21+822.05L1332.29+823.284" fill="none" stroke-linecap="round" opacity="1" stroke-linejoin="round"/>
<path stroke="#000000" stroke-width="50.4007" d="M112.759+1231.85L234.959+1233.09" fill="none" stroke-linecap="round" opacity="1" stroke-linejoin="round"/>
<path stroke="#000000" stroke-width="50.4007" d="M116.462+1496L238.662+1494.77" fill="none" stroke-linecap="round" opacity="1" stroke-linejoin="round"/>
<path stroke="#000000" stroke-width="50.4007" d="M106.587+1357.75L244.833+1357.75" fill="none" stroke-linecap="round" opacity="1" stroke-linejoin="round"/>
<path stroke="#000000" stroke-width="50.4007" d="M500.342+1244.19L622.542+1245.43" fill="none" stroke-linecap="round" opacity="1" stroke-linejoin="round"/>
<path stroke="#000000" stroke-width="50.4007" d="M492.936+1500.94L631.182+1499.7" fill="none" stroke-linecap="round" opacity="1" stroke-linejoin="round"/>
<path stroke="#000000" stroke-width="50.4007" d="M487.998+1372.57L628.713+1372.57" fill="none" stroke-linecap="round" opacity="1" stroke-linejoin="round"/>
<path stroke="#000000" stroke-width="50.4007" d="M1008.89+1234.32L1131.09+1236.79" fill="none" stroke-linecap="round" opacity="1" stroke-linejoin="round"/>
<path stroke="#000000" stroke-width="50.4007" d="M996.547+1510.81L1147.14+1514.51" fill="none" stroke-linecap="round" opacity="1" stroke-linejoin="round"/>
<path stroke="#000000" stroke-width="50.4007" d="M1006.42+1377.5L1127.39+1379.97" fill="none" stroke-linecap="round" opacity="1" stroke-linejoin="round"/>
<path stroke="#000000" stroke-width="50.4007" d="M1381.66+1233.09L1517.44+1236.79" fill="none" stroke-linecap="round" opacity="1" stroke-linejoin="round"/>
<path stroke="#000000" stroke-width="50.4007" d="M1386.6+1497.23L1518.67+1498.47" fill="none" stroke-linecap="round" opacity="1" stroke-linejoin="round"/>
<path stroke="#000000" stroke-width="50.4007" d="M1370.55+1375.03L1532.25+1376.27" fill="none" stroke-linecap="round" opacity="1" stroke-linejoin="round"/>
<path stroke="#000000" stroke-width="1.20516" d="M846+1567C846.333+1566.33+846.277+1565.18+847+1565C853.22+1563.44+859.627+1562.71+866+1562C871.642+1561.37+877.327+1561.2+883+1561C886.998+1560.86+891+1561+895+1561C896.667+1561+901.667+1561+900+1561C873.364+1561+845.256+1560.57+819+1556C812.865+1554.93+806.7+1553.51+801+1551C794.982+1548.35+792+1543.38+792+1537C792+1533.6+791.984+1529.74+794+1527C796.966+1522.97+801.593+1520.36+806+1518C811.021+1515.31+816.453+1513.29+822+1512C826.556+1510.94+831.321+1511+836+1511C839.35+1511+842.964+1510.58+846+1512C848.359+1513.1+849.909+1515.64+851+1518C854.47+1525.52+848.958+1535.84+845+1542C843.592+1544.19+841.562+1545.92+840+1548C839.553+1548.6+838.473+1550.53+839+1550C841.173+1547.83+843+1545.33+845+1543" fill="none" stroke-linecap="round" opacity="1" stroke-linejoin="round"/>
<path stroke="#000000" stroke-width="1.20516" d="M880+1514C870.743+1511.69+858.557+1512.44+850+1517C847.275+1518.45+841.283+1523.85+842+1526C842.471+1527.41+844.545+1527.68+846+1528C850.602+1529.02+855.288+1529.85+860+1530C870.435+1530.34+882.809+1528.57+890+1521C893.08+1517.76+896+1513.47+896+1509C896+1503.92+893.207+1498.94+890+1495C885.659+1489.67+879.741+1485.78+874+1482C849.647+1465.98+825.327+1463+797+1463C796+1463+799.001+1462.96+800+1463C806.669+1463.29+813.325+1464+820+1464C829.339+1464+838.863+1464.93+848+1463C856.479+1461.21+865.232+1458.41+872+1453C877.491+1448.61+880.552+1441.59+883+1435C884.987+1429.65+885.78+1423.65+885+1418C882.572+1400.4+857.393+1394.59+844+1391C837.434+1389.24+830.611+1388.59+824+1387C822.255+1386.58+819+1386.8+819+1385C819+1383.06+822.131+1382.53+824+1382C831.544+1379.84+839.445+1379.12+847+1377C863.508+1372.38+881.318+1366.55+893+1354C896.861+1349.85+899.443+1344.45+901+1339C903.317+1330.89+898.963+1320.96+893+1315C889.814+1311.81+880.478+1305.71+879+1307C876.756+1308.96+876.057+1312.21+875+1315C872.383+1321.9+870.414+1329.03+868+1336C864.413+1346.36+860.467+1356.6+857+1367C851.8+1382.6+846.287+1398.12+842+1414C837.278+1431.49+832.224+1449.02+830+1467C828.199+1481.56+829.062+1496.36+830+1511C830.733+1522.43+832.539+1533.81+835+1545C836.224+1550.56+838.015+1556.15+841+1561C841.63+1562.02+842.593+1559.13+843+1558C845.607+1550.76+848.634+1543.57+850+1536C852.319+1523.14+852.624+1510+854+1497C855.624+1481.66+857.524+1466.35+859+1451C865.022+1388.37+871+1324.95+871+1262" fill="none" stroke-linecap="round" opacity="1" stroke-linejoin="round"/>
</g>
</svg>
