<?xml version="1.0" encoding="UTF-8" standalone="no"?> <!-- Created with Vectornator for iOS (http://vectornator.io/) --><!DOCTYPE svg PUBLIC "-//W3C//DTD SVG 1.1//EN" "http://www.w3.org/Graphics/SVG/1.1/DTD/svg11.dtd">
<svg height="100%" style="fill-rule:nonzero;clip-rule:evenodd;stroke-linecap:round;stroke-linejoin:round;" xmlns:xlink="http://www.w3.org/1999/xlink" xmlns="http://www.w3.org/2000/svg" xml:space="preserve" width="100%" xmlns:vectornator="http://vectornator.io" version="1.1" viewBox="0 0 1620 1620">
<metadata>
<vectornator:setting key="DimensionsVisible" value="1"/>
<vectornator:setting key="PencilOnly" value="0"/>
<vectornator:setting key="SnapToPoints" value="0"/>
<vectornator:setting key="OutlineMode" value="0"/>
<vectornator:setting key="CMYKEnabledKey" value="0"/>
<vectornator:setting key="RulersVisible" value="1"/>
<vectornator:setting key="SnapToEdges" value="0"/>
<vectornator:setting key="GuidesVisible" value="1"/>
<vectornator:setting key="DisplayWhiteBackground" value="0"/>
<vectornator:setting key="doHistoryDisabled" value="0"/>
<vectornator:setting key="SnapToGuides" value="1"/>
<vectornator:setting key="TimeLapseWatermarkDisabled" value="0"/>
<vectornator:setting key="Units" value="Pixels"/>
<vectornator:setting key="IsolateActiveLayer" value="0"/>
<vectornator:setting key="DynamicGuides" value="0"/>
<vectornator:setting key="SnapToGrid" value="0"/>
</metadata>
<defs/>
<g id="Layer 2" vectornator:layerName="Layer 2">
<path stroke="#000000" stroke-width="50.4007" d="M1418.3+783.015L242.334+148.374L818.981+1088.87L244.339+1381.53L1418.3+783.015Z" fill="none" stroke-linecap="round" opacity="1" stroke-linejoin="round"/>
<path stroke="#000000" stroke-width="50.4007" d="M274.267+35.9125L274.267+35.9125C179.774+35.9125+103.171+112.918+103.171+207.91L103.171+217.779C103.171+312.77+179.774+389.776+274.267+389.776L274.267+389.776C368.761+389.776+445.364+312.77+445.364+217.779L445.364+207.91C445.364+112.918+368.761+35.9125+274.267+35.9125Z" fill="none" stroke-linecap="round" opacity="1" stroke-linejoin="round"/>
<path stroke="#000000" stroke-width="50.4007" d="M860.267+298.912L860.267+298.912C765.774+298.912+689.171+375.918+689.171+470.91L689.171+480.779C689.171+575.77+765.774+652.776+860.267+652.776L860.267+652.776C954.761+652.776+1031.36+575.77+1031.36+480.779L1031.36+470.91C1031.36+375.918+954.761+298.912+860.267+298.912Z" fill="none" stroke-linecap="round" opacity="1" stroke-linejoin="round"/>
<path stroke="#000000" stroke-width="50.4007" d="M1419.27+604.912L1419.27+604.912C1324.77+604.912+1248.17+681.918+1248.17+776.91L1248.17+786.779C1248.17+881.77+1324.77+958.776+1419.27+958.776L1419.27+958.776C1513.76+958.776+1590.36+881.77+1590.36+786.779L1590.36+776.91C1590.36+681.918+1513.76+604.912+1419.27+604.912Z" fill="none" stroke-linecap="round" opacity="1" stroke-linejoin="round"/>
<path stroke="#000000" stroke-width="50.4007" d="M881.267+900.912L881.267+900.912C786.774+900.912+710.171+977.918+710.171+1072.91L710.171+1082.78C710.171+1177.77+786.774+1254.78+881.267+1254.78L881.267+1254.78C975.761+1254.78+1052.36+1177.77+1052.36+1082.78L1052.36+1072.91C1052.36+977.918+975.761+900.912+881.267+900.912Z" fill="none" stroke-linecap="round" opacity="1" stroke-linejoin="round"/>
<path stroke="#000000" stroke-width="50.4007" d="M274.767+603.912L274.767+603.912C180.549+603.912+104.171+680.918+104.171+775.91L104.171+785.779C104.171+880.77+180.549+957.776+274.767+957.776L274.767+957.776C368.984+957.776+445.362+880.77+445.362+785.779L445.362+775.91C445.362+680.918+368.984+603.912+274.767+603.912Z" fill="none" stroke-linecap="round" opacity="1" stroke-linejoin="round"/>
<path stroke="#000000" stroke-width="50.4007" d="M273.267+1181.91L273.267+1181.91C178.774+1181.91+102.171+1258.92+102.171+1353.91L102.171+1363.78C102.171+1458.77+178.774+1535.78+273.267+1535.78L273.267+1535.78C367.761+1535.78+444.364+1458.77+444.364+1363.78L444.364+1353.91C444.364+1258.92+367.761+1181.91+273.267+1181.91Z" fill="none" stroke-linecap="round" opacity="1" stroke-linejoin="round"/>
<path stroke="#000000" stroke-width="50.4007" d="M241.808+1382L850.808+474" fill="none" stroke-linecap="round" opacity="1" stroke-linejoin="round"/>
<path stroke="#000000" stroke-width="50.4007" d="M855.808+470L266.808+784" fill="none" stroke-linecap="round" opacity="1" stroke-linejoin="round"/>
<path stroke="#000000" stroke-width="50.4007" d="M806.923+1076.39L273.417+796.134" fill="none" stroke-linecap="round" opacity="1" stroke-linejoin="round"/>
<path stroke="#000000" stroke-width="1.20516" d="M953.312+785.898C951.088+785.88+951.131+790.253+951.76+792.386C955.608+805.448+961.803+817.706+966.454+830.505C968.003+834.766+969.105+839.177+970.349+843.537C970.727+844.858+971.317+847.544+971.317+847.544C971.317+847.544+970.686+844.869+970.349+843.537C968.747+837.187+967.3+830.795+965.502+824.497C962.435+813.751+959.208+803.048+955.76+792.418C951.725+779.983+947.411+767.64+943.057+755.314C939.263+744.573+935.103+733.963+931.315+723.219C929.562+718.249+926.393+713.45+926.435+708.179C926.451+706.236+929.597+705.776+931.459+705.22C934.034+704.45+937.073+703.063+939.467+704.284C944.301+706.75+948.302+710.91+951.378+715.38C957.637+724.475+962.632+734.432+967.145+744.508C974.417+760.742+979.408+778.827+978.727+796.602C978.537+801.554+978.328+809.033+973.614+810.562C969.999+811.735+966.71+806.697+964.671+803.49C962.51+800.091+961.944+795.833+959.759+792.45C958.097+789.876+956.376+785.922+953.312+785.898Z" fill="none" stroke-linecap="round" opacity="1" stroke-linejoin="round"/>
<path stroke="#000000" stroke-width="1.20516" d="M997.557+817.754C995.172+812.887+990.985+808.897+987.662+804.674C985.312+801.688+983.159+798.545+980.735+795.618C977.874+792.165+975.181+788.511+971.815+785.546C970.137+784.068+967.848+781.514+965.84+782.498C963.66+783.566+963.9+787.058+963.783+789.482C963.495+795.484+963.118+801.676+964.639+807.49C966.413+814.269+969.851+820.57+973.486+826.561C976.807+832.036+980.273+837.774+985.365+841.657C988.643+844.157+993.333+845.721+997.34+844.753C1001.01+843.868+1003.83+840.247+1005.4+836.818C1008.4+830.276+1009.7+823.002+1010.57+815.859C1014.84+780.821+997.976+749.503+980.337+720.613C977.975+716.743+976.96+709.585+972.426+709.549C968.744+709.519+972.283+717.029+973.337+720.557C977.505+734.5+982.85+748.068+988.008+761.676C993.624+776.494+998.603+791.627+1005.65+805.819C1010.8+816.169+1016.2+826.849+1024.42+834.971C1028.69+839.194+1035.38+840.659+1041.37+841.107C1045.89+841.445+1051.1+840.316+1054.4+837.212C1059.08+832.822+1061.46+826.351+1063.54+820.285C1065.62+814.218+1066.47+807.717+1066.69+801.309C1067.13+788.624+1062.52+776.095+1057.99+764.238C1057.35+762.561+1056.04+757.427+1056.03+759.222C1055.96+768.484+1064.51+775.754+1069.84+783.334C1073.94+789.172+1078+795.068+1082.7+800.438C1089.37+808.067+1100.08+818.572+1111.58+815.67C1116.5+814.428+1121.46+812.688+1125.63+809.783C1132.01+805.33+1137.87+799.975+1142.75+793.92C1147.07+788.579+1151.36+782.689+1152.9+776.001C1154.25+770.119+1153.42+763.533+1151.04+757.986C1147.36+749.404+1141.53+741.747+1135.23+734.858C1128.2+727.176+1120.93+718.844+1111.39+714.666C1105.86+712.243+1097.77+712.379+1093.37+716.521C1088.08+721.516+1087.68+730.208+1087.21+737.472C1086.52+747.831+1088.39+758.233+1089.96+768.495C1091.56+778.967+1093.72+789.386+1096.71+799.55C1097.97+803.841+1100.75+807.531+1102.61+811.598C1103.05+812.557+1104.41+813.954+1103.59+814.606C1101.99+815.86+1099.6+815.49+1097.58+815.558C1091.58+815.759+1085.58+815.461+1079.58+815.413C1058.58+815.245+1037.41+816.648+1016.59+813.907C1001.75+811.954+986.745+809.633+972.663+804.554C956.255+798.636+941.492+788.891+925.849+781.177C911.941+774.319+899.191+764.003+884.011+760.84C878.851+759.765+871.94+764.561+870.939+769.736C869.692+776.182+874.494+782.838+878.794+787.799C887.013+797.281+896.393+806.39+907.6+812.031C921.833+819.196+937.656+823.656+953.495+825.401C970.752+827.302+988.322+825.219+1005.52+822.818C1026.82+819.844+1047.66+814.123+1068.63+809.325C1087.07+805.105+1105.58+801.078+1123.74+795.767C1133.36+792.953+1142.5+788.676+1151.83+784.993C1163.8+780.264+1175.57+775.93+1185.96+768.266" fill="none" stroke-linecap="round" opacity="1" stroke-linejoin="round"/>
</g>
</svg>
