<?xml version="1.0" encoding="UTF-8" standalone="no"?> <!-- Created with Vectornator for iOS (http://vectornator.io/) --><!DOCTYPE svg PUBLIC "-//W3C//DTD SVG 1.1//EN" "http://www.w3.org/Graphics/SVG/1.1/DTD/svg11.dtd">
<svg height="100%" style="fill-rule:nonzero;clip-rule:evenodd;stroke-linecap:round;stroke-linejoin:round;" xmlns:xlink="http://www.w3.org/1999/xlink" xmlns="http://www.w3.org/2000/svg" xml:space="preserve" width="100%" xmlns:vectornator="http://vectornator.io" version="1.1" viewBox="0 0 1620 1620">
<metadata>
<vectornator:setting key="DimensionsVisible" value="1"/>
<vectornator:setting key="PencilOnly" value="0"/>
<vectornator:setting key="SnapToPoints" value="0"/>
<vectornator:setting key="GuidesVisible" value="1"/>
<vectornator:setting key="CMYKEnabledKey" value="0"/>
<vectornator:setting key="OutlineMode" value="0"/>
<vectornator:setting key="SnapToEdges" value="0"/>
<vectornator:setting key="RulersVisible" value="1"/>
<vectornator:setting key="DisplayWhiteBackground" value="0"/>
<vectornator:setting key="doHistoryDisabled" value="0"/>
<vectornator:setting key="TimeLapseWatermarkDisabled" value="0"/>
<vectornator:setting key="SnapToGuides" value="1"/>
<vectornator:setting key="DynamicGuides" value="0"/>
<vectornator:setting key="SnapToGrid" value="0"/>
<vectornator:setting key="IsolateActiveLayer" value="0"/>
<vectornator:setting key="Units" value="Pixels"/>
</metadata>
<defs/>
<g id="Layer 1" vectornator:layerName="Layer 1">
<path stroke="#000000" stroke-width="50.4007" d="M227.866+1084.93C-46.0218+685.242-7.74289+238.768+313.365+87.7016C634.472-63.3647+1116.81+138.182+1390.7+537.869C1664.59+937.557+1626.31+1384.03+1305.2+1535.1C984.094+1686.16+501.755+1484.62+227.866+1084.93Z" fill="none" stroke-linecap="round" opacity="1" stroke-linejoin="round"/>
<path stroke="#000000" stroke-width="50.4007" d="M347.529+1033.3C129.531+707.172+159.999+342.864+415.58+219.599C671.161+96.3338+1055.07+260.79+1273.07+586.921C1491.07+913.053+1460.6+1277.36+1205.02+1400.63C949.438+1523.89+565.527+1359.44+347.529+1033.3Z" fill="none" stroke-linecap="round" opacity="1" stroke-linejoin="round"/>
<path stroke="#000000" stroke-width="50.4007" d="M518.781+987.361C343.051+765.606+325.878+493.249+480.423+379.034C634.968+264.82+902.709+351.999+1078.44+573.755C1254.17+795.51+1271.34+1067.87+1116.8+1182.08C962.251+1296.3+694.51+1209.12+518.781+987.361Z" fill="none" stroke-linecap="round" opacity="1" stroke-linejoin="round"/>
<path stroke="#000000" stroke-width="50.4007" d="M656.068+897.355C563.539+778.761+554.497+633.105+635.871+572.023C717.245+510.941+858.221+557.565+950.75+676.159C1043.28+794.754+1052.32+940.41+970.947+1001.49C889.573+1062.57+748.597+1015.95+656.068+897.355Z" fill="none" stroke-linecap="round" opacity="1" stroke-linejoin="round"/>
<path stroke="#000000" stroke-width="50.4007" d="M806.276+784.541L666.883+743.457" fill="none" stroke-linecap="round" opacity="1" stroke-linejoin="round"/>
<path stroke="#000000" stroke-width="50.4007" d="M647.808+739.055L680.089+567.382" fill="none" stroke-linecap="round" opacity="1" stroke-linejoin="round"/>
<path stroke="#000000" stroke-width="50.4007" d="M392.499+573.251L661.014+557.111" fill="none" stroke-linecap="round" opacity="1" stroke-linejoin="round"/>
<path stroke="#000000" stroke-width="50.4007" d="M530.717+369.272L406.88+561.538" fill="none" stroke-linecap="round" opacity="1" stroke-linejoin="round"/>
<path stroke="#000000" stroke-width="50.4007" d="M250.172+442.662L512.689+375.166" fill="none" stroke-linecap="round" opacity="1" stroke-linejoin="round"/>
<path stroke="#000000" stroke-width="50.4007" d="M423.312+216.699L256.041+442.662" fill="none" stroke-linecap="round" opacity="1" stroke-linejoin="round"/>
<path stroke="#000000" stroke-width="50.4007" d="M66.76+383.97L386.63+221.101" fill="none" stroke-linecap="round" opacity="1" stroke-linejoin="round"/>
<path stroke="#000000" stroke-width="50.4007" d="M270.714+103.717L88.7694+366.363" fill="none" stroke-linecap="round" opacity="1" stroke-linejoin="round"/>
<path stroke="#000000" stroke-width="1.00361" d="M1161.36+1494.71C1160.87+1498.14+1158.94+1501.66+1159.89+1504.98C1166.86+1529.37+1175.42+1553.33+1184.84+1576.88C1189.14+1587.65+1195.11+1597.69+1200.98+1607.69C1203.45+1611.91+1206.51+1615.8+1209.78+1619.43C1210.96+1620.74+1212.94+1623.61+1214.18+1622.37C1215.61+1620.94+1213.26+1618.44+1212.72+1616.5C1209.84+1606.21+1206.72+1595.99+1203.91+1585.68C1199.39+1569.09+1194.83+1552.5+1190.71+1535.8C1179.81+1491.65+1170.77+1447.04+1162.83+1402.27C1161.27+1393.48+1160.02+1384.64+1158.43+1375.86C1158.07+1373.88+1155.09+1369.24+1156.96+1369.99C1160.81+1371.53+1163.8+1375.14+1165.76+1378.8C1171.25+1389.04+1175.23+1400.07+1178.97+1411.08C1188.82+1440.1+1196.67+1468.32+1198.04+1499.11C1198.39+1506.99+1197.71+1515.15+1195.11+1522.59C1194.07+1525.55+1190.86+1528.97+1187.77+1528.46C1183.32+1527.72+1179.86+1523.5+1177.5+1519.66C1171.88+1510.52+1168.11+1500.33+1164.3+1490.31C1160.28+1479.76+1156.83+1468.97+1154.02+1458.03C1151.93+1449.85+1149.62+1441.53+1149.62+1433.09C1149.62+1431.32+1152.56+1429.17+1154.02+1430.15C1158.09+1432.86+1160.36+1437.66+1162.83+1441.89C1167.24+1449.45+1170.48+1457.63+1174.57+1465.37C1185.19+1485.49+1195.8+1505.63+1206.85+1525.52C1213.65+1537.77+1221.19+1548.34+1227.39+1560.74C1228.57+1563.1+1230.32+1570.71+1230.32+1568.08C1230.32+1563.57+1228.27+1559.29+1227.39+1554.87C1225.34+1544.62+1223.95+1534.23+1221.52+1524.06C1216.21+1501.86+1206.88+1471.69+1198.04+1450.69C1195.24+1444.04+1192.35+1437.21+1187.77+1431.62C1186.9+1430.55+1184.7+1433.18+1184.84+1434.55C1185.74+1443.53+1187.66+1452.47+1190.71+1460.96C1196.99+1478.5+1202.96+1496.46+1212.72+1512.32C1222.73+1528.59+1234.08+1544.93+1249.4+1556.34C1260.07+1564.29+1274.25+1567.79+1287.55+1568.08C1297.91+1568.3+1308.27+1563.55+1316.89+1557.81C1324.97+1552.42+1332.36+1544.81+1335.97+1535.8C1341.49+1521.98+1343.31+1506.65+1343.31+1491.78C1343.31+1473.03+1340.15+1454.29+1335.97+1436.02C1330.83+1413.55+1323.41+1391.62+1315.43+1369.99C1308.22+1350.47+1302.27+1329.91+1290.48+1312.77C1285.4+1305.37+1275.56+1296.82+1267.01+1299.56C1258.05+1302.43+1254.99+1315.17+1253.8+1324.51C1250.97+1346.83+1251.26+1369.86+1255.27+1392C1260.64+1421.69+1268.3+1451.53+1281.68+1478.57C1292.18+1499.79+1305.14+1522.58+1325.7+1534.33C1339.74+1542.35+1358.55+1535.77+1374.12+1531.39C1390.54+1526.77+1407.18+1519.61+1419.6+1507.92C1433.04+1495.27+1442.83+1478.38+1448.95+1460.96C1455.83+1441.39+1459.17+1420.04+1457.75+1399.34C1456.17+1376.14+1450.28+1352.77+1440.15+1331.84C1434.57+1320.32+1424.92+1307.38+1412.27+1305.43C1400.99+1303.7+1390.81+1314.79+1382.92+1323.04C1368.85+1337.75+1358.79+1355.85+1347.71+1372.93C1321.03+1414.02+1296.32+1456.36+1269.94+1497.65C1260.59+1512.28+1251.87+1527.33+1242.06+1541.66C1239.13+1545.96+1236.31+1550.82+1231.79+1553.4C1230.09+1554.37+1231.79+1549.49+1231.79+1547.53C1231.79+1538.73+1234.26+1529.57+1231.79+1521.12C1228.23+1508.95+1222.93+1496.56+1214.18+1487.37C1202.77+1475.39+1188.77+1464.81+1173.1+1459.5C1160.13+1455.1+1145.04+1455.25+1132.02+1459.5C1121.12+1463.05+1111.46+1471.66+1105.6+1481.51C1100.01+1490.91+1096.19+1503.44+1099.73+1513.79C1103.43+1524.59+1114.31+1532.49+1124.68+1537.26C1139.67+1544.16+1156.62+1548.36+1173.1+1547.53C1196.68+1546.35+1220.45+1540.89+1242.06+1531.39C1273.4+1517.63+1301.43+1497.25+1330.1+1478.57C1366.02+1455.17+1399.88+1428.7+1435.74+1405.21C1490.15+1369.57+1546.39+1335.94+1605.95+1309.83C1624.1+1301.88+1643.42+1295.34+1663.18+1293.69" fill="none" stroke-linecap="round" opacity="1" stroke-linejoin="round"/>
</g>
</svg>
