<?xml version="1.0" encoding="UTF-8" standalone="no"?> <!-- Created with Vectornator for iOS (http://vectornator.io/) --><!DOCTYPE svg PUBLIC "-//W3C//DTD SVG 1.1//EN" "http://www.w3.org/Graphics/SVG/1.1/DTD/svg11.dtd">
<svg height="100%" style="fill-rule:nonzero;clip-rule:evenodd;stroke-linecap:round;stroke-linejoin:round;" xmlns:xlink="http://www.w3.org/1999/xlink" xmlns="http://www.w3.org/2000/svg" xml:space="preserve" width="100%" xmlns:vectornator="http://vectornator.io" version="1.1" viewBox="0 0 1620 1620">
<metadata>
<vectornator:setting key="DimensionsVisible" value="1"/>
<vectornator:setting key="PencilOnly" value="0"/>
<vectornator:setting key="SnapToPoints" value="0"/>
<vectornator:setting key="OutlineMode" value="0"/>
<vectornator:setting key="RulersVisible" value="1"/>
<vectornator:setting key="CMYKEnabledKey" value="0"/>
<vectornator:setting key="GuidesVisible" value="1"/>
<vectornator:setting key="SnapToEdges" value="0"/>
<vectornator:setting key="DisplayWhiteBackground" value="0"/>
<vectornator:setting key="doHistoryDisabled" value="0"/>
<vectornator:setting key="TimeLapseWatermarkDisabled" value="0"/>
<vectornator:setting key="SnapToGuides" value="1"/>
<vectornator:setting key="DynamicGuides" value="0"/>
<vectornator:setting key="IsolateActiveLayer" value="0"/>
<vectornator:setting key="SnapToGrid" value="0"/>
<vectornator:setting key="Units" value="Pixels"/>
</metadata>
<defs/>
<g id="Layer 1" vectornator:layerName="Layer 1">
<path stroke="#000000" stroke-width="50.4007" d="M210+151L228+1452" fill="none" stroke-linecap="round" opacity="1" stroke-linejoin="round"/>
<path stroke="#000000" stroke-width="50.4007" d="M1521+1434L234+1449" fill="none" stroke-linecap="round" opacity="1" stroke-linejoin="round"/>
<path stroke="#000000" stroke-width="50.4007" d="M1449+1357L1551+1431" fill="none" stroke-linecap="round" opacity="1" stroke-linejoin="round"/>
<path stroke="#000000" stroke-width="50.4007" d="M1451+1511L1552+1443" fill="none" stroke-linecap="round" opacity="1" stroke-linejoin="round"/>
<path stroke="#000000" stroke-width="50.4007" d="M97+247L203+120" fill="none" stroke-linecap="round" opacity="1" stroke-linejoin="round"/>
<path stroke="#000000" stroke-width="50.4007" d="M308+248L208+116" fill="none" stroke-linecap="round" opacity="1" stroke-linejoin="round"/>
<path stroke="#000000" stroke-width="50.4007" d="M1300+534L310+1339L1300+534Z" fill="none" stroke-linecap="round" opacity="1" stroke-linejoin="round"/>
<path stroke="#000000" stroke-width="50.4007" d="M774+1036.5C774+1032.36+776.239+1029+779+1029C781.761+1029+784+1032.36+784+1036.5C784+1040.64+781.761+1044+779+1044C776.239+1044+774+1040.64+774+1036.5Z" fill="none" stroke-linecap="round" opacity="1" stroke-linejoin="round"/>
<path stroke="#000000" stroke-width="50.4007" d="M626+910.976C626+907.097+628.997+903.953+632.694+903.953C636.392+903.953+639.389+907.097+639.389+910.976C639.389+914.855+636.392+918+632.694+918C628.997+918+626+914.855+626+910.976Z" fill="none" stroke-linecap="round" opacity="1" stroke-linejoin="round"/>
<path stroke="#000000" stroke-width="50.4007" d="M965+877.5C965+873.358+967.91+870+971.5+870C975.09+870+978+873.358+978+877.5C978+881.642+975.09+885+971.5+885C967.91+885+965+881.642+965+877.5Z" fill="none" stroke-linecap="round" opacity="1" stroke-linejoin="round"/>
<path stroke="#000000" stroke-width="50.4007" d="M752+424C752+420.134+755.582+417+760+417C764.418+417+768+420.134+768+424C768+427.866+764.418+431+760+431C755.582+431+752+427.866+752+424Z" fill="none" stroke-linecap="round" opacity="1" stroke-linejoin="round"/>
<path stroke="#000000" stroke-width="50.4007" d="M918.525+362.081C918.525+358.215+922.107+355.081+926.525+355.081C930.943+355.081+934.525+358.215+934.525+362.081C934.525+365.947+930.943+369.081+926.525+369.081C922.107+369.081+918.525+365.947+918.525+362.081Z" fill="none" stroke-linecap="round" opacity="1" stroke-linejoin="round"/>
<path stroke="#000000" stroke-width="50.4007" d="M1140.86+886.574C1140.86+882.708+1144.45+879.574+1148.86+879.574C1153.28+879.574+1156.86+882.708+1156.86+886.574C1156.86+890.44+1153.28+893.574+1148.86+893.574C1144.45+893.574+1140.86+890.44+1140.86+886.574Z" fill="none" stroke-linecap="round" opacity="1" stroke-linejoin="round"/>
<path stroke="#000000" stroke-width="50.4007" d="M784.28+548.541C784.28+544.675+787.862+541.541+792.28+541.541C796.699+541.541+800.28+544.675+800.28+548.541C800.28+552.407+796.699+555.541+792.28+555.541C787.862+555.541+784.28+552.407+784.28+548.541Z" fill="none" stroke-linecap="round" opacity="1" stroke-linejoin="round"/>
<path stroke="#000000" stroke-width="50.4007" d="M1113.58+796.639C1113.58+792.773+1117.16+789.639+1121.58+789.639C1125.99+789.639+1129.58+792.773+1129.58+796.639C1129.58+800.505+1125.99+803.639+1121.58+803.639C1117.16+803.639+1113.58+800.505+1113.58+796.639Z" fill="none" stroke-linecap="round" opacity="1" stroke-linejoin="round"/>
<path stroke="#000000" stroke-width="50.4007" d="M1083.51+1029.58C1083.51+1025.72+1087.09+1022.58+1091.51+1022.58C1095.93+1022.58+1099.51+1025.72+1099.51+1029.58C1099.51+1033.45+1095.93+1036.58+1091.51+1036.58C1087.09+1036.58+1083.51+1033.45+1083.51+1029.58Z" fill="none" stroke-linecap="round" opacity="1" stroke-linejoin="round"/>
<path stroke="#000000" stroke-width="50.4007" d="M550.594+689.656C548.906+690.877+547.288+691.708+545.656+692.594C544.989+693.263+543.455+694.841+541.719+696.594C541.781+700.413+545.308+703.5+549.688+703.5C554.106+703.5+557.688+700.366+557.688+696.5C557.687+692.914+554.566+690.066+550.594+689.656Z" fill="none" stroke-linecap="round" opacity="1" stroke-linejoin="round"/>
<path stroke="#000000" stroke-width="50.4007" d="M650.767+811.487C650.767+807.621+654.348+804.487+658.767+804.487C663.185+804.487+666.767+807.621+666.767+811.487C666.767+815.353+663.185+818.487+658.767+818.487C654.348+818.487+650.767+815.353+650.767+811.487Z" fill="none" stroke-linecap="round" opacity="1" stroke-linejoin="round"/>
<path stroke="#000000" stroke-width="50.4007" d="M479.145+872.701C479.145+868.835+482.726+865.701+487.145+865.701C491.563+865.701+495.145+868.835+495.145+872.701C495.145+876.567+491.563+879.701+487.145+879.701C482.726+879.701+479.145+876.567+479.145+872.701Z" fill="none" stroke-linecap="round" opacity="1" stroke-linejoin="round"/>
<path stroke="#000000" stroke-width="50.4007" d="M420.544+1108.73C420.544+1104.86+424.125+1101.73+428.544+1101.73C432.962+1101.73+436.544+1104.86+436.544+1108.73C436.544+1112.59+432.962+1115.73+428.544+1115.73C424.125+1115.73+420.544+1112.59+420.544+1108.73Z" fill="none" stroke-linecap="round" opacity="1" stroke-linejoin="round"/>
<path stroke="#000000" stroke-width="50.4007" d="M645.603+1193.62C645.603+1189.75+649.185+1186.62+653.603+1186.62C658.021+1186.62+661.603+1189.75+661.603+1193.62C661.603+1197.48+658.021+1200.62+653.603+1200.62C649.185+1200.62+645.603+1197.48+645.603+1193.62Z" fill="none" stroke-linecap="round" opacity="1" stroke-linejoin="round"/>
<path stroke="#000000" stroke-width="50.4007" d="M812.323+1203.22C812.323+1199.36+815.905+1196.22+820.323+1196.22C824.742+1196.22+828.323+1199.36+828.323+1203.22C828.323+1207.09+824.742+1210.22+820.323+1210.22C815.905+1210.22+812.323+1207.09+812.323+1203.22Z" fill="none" stroke-linecap="round" opacity="1" stroke-linejoin="round"/>
<path stroke="#000000" stroke-width="50.4007" d="M675.834+590.379C675.834+586.513+679.416+583.379+683.834+583.379C688.253+583.379+691.834+586.513+691.834+590.379C691.834+594.245+688.253+597.379+683.834+597.379C679.416+597.379+675.834+594.245+675.834+590.379Z" fill="none" stroke-linecap="round" opacity="1" stroke-linejoin="round"/>
<path stroke="#000000" stroke-width="50.4007" d="M907.213+501.372C907.213+497.506+910.795+494.372+915.213+494.372C919.631+494.372+923.213+497.506+923.213+501.372C923.213+505.238+919.631+508.372+915.213+508.372C910.795+508.372+907.213+505.238+907.213+501.372Z" fill="none" stroke-linecap="round" opacity="1" stroke-linejoin="round"/>
<path stroke="#000000" stroke-width="50.4007" d="M1083.2+317.934C1083.2+314.068+1086.79+310.934+1091.2+310.934C1095.62+310.934+1099.2+314.068+1099.2+317.934C1099.2+321.8+1095.62+324.934+1091.2+324.934C1086.79+324.934+1083.2+321.8+1083.2+317.934Z" fill="none" stroke-linecap="round" opacity="1" stroke-linejoin="round"/>
<path stroke="#000000" stroke-width="50.4007" d="M1437.7+706.399C1437.7+702.533+1441.29+699.399+1445.7+699.399C1450.12+699.399+1453.7+702.533+1453.7+706.399C1453.7+710.265+1450.12+713.399+1445.7+713.399C1441.29+713.399+1437.7+710.265+1437.7+706.399Z" fill="none" stroke-linecap="round" opacity="1" stroke-linejoin="round"/>
<path stroke="#000000" stroke-width="50.4007" d="M1194.48+1289.97C1194.48+1286.1+1198.06+1282.97+1202.48+1282.97C1206.9+1282.97+1210.48+1286.1+1210.48+1289.97C1210.48+1293.83+1206.9+1296.97+1202.48+1296.97C1198.06+1296.97+1194.48+1293.83+1194.48+1289.97Z" fill="none" stroke-linecap="round" opacity="1" stroke-linejoin="round"/>
<path stroke="#000000" stroke-width="50.4007" d="M1380.75+946.014C1380.75+942.148+1384.33+939.014+1388.75+939.014C1393.16+939.014+1396.75+942.148+1396.75+946.014C1396.75+949.88+1393.16+953.014+1388.75+953.014C1384.33+953.014+1380.75+949.88+1380.75+946.014Z" fill="none" stroke-linecap="round" opacity="1" stroke-linejoin="round"/>
<path stroke="#000000" stroke-width="0.983139" d="M1445.22+1247.53C1444.54+1248.28+1444.56+1249.81+1445.24+1250.56C1446.1+1251.51+1447.7+1251.3+1448.93+1251.62C1452.04+1252.42+1455.18+1253.08+1458.27+1253.93C1465.71+1256+1473.01+1258.54+1480.42+1260.71C1482.79+1261.4+1485.19+1262+1487.59+1262.61C1488.52+1262.85+1491.1+1263.92+1490.41+1263.24C1489.6+1262.44+1488.22+1262.59+1487.15+1262.18C1483.94+1260.95+1480.76+1259.67+1477.59+1258.35C1473.44+1256.62+1469.29+1254.88+1465.2+1253.02C1452.73+1247.33+1440.39+1241.28+1428.66+1234.21C1425.19+1232.12+1421.85+1229.81+1418.64+1227.35C1415.71+1225.1+1411.45+1222.64+1411.43+1218.95C1411.41+1216.27+1416.38+1214.81+1417.68+1214.78C1420.68+1214.72+1423.71+1215.35+1426.58+1216.24C1435.26+1218.94+1448.62+1225.69+1453.57+1233.81C1455.2+1236.48+1455.61+1240.95+1453.43+1243.57C1452.66+1244.49+1451.27+1244.59+1450.19+1245.11C1448.53+1245.91+1446.46+1246.16+1445.22+1247.53Z" fill="none" stroke-linecap="round" opacity="1" stroke-linejoin="round"/>
<path stroke="#000000" stroke-width="0.983139" d="M1478.05+1232.12C1476.3+1231.92+1473.82+1231.48+1471.98+1231.73C1470.62+1231.92+1469.4+1232.67+1468.09+1233.06C1463.8+1234.32+1463.5+1237.41+1467.49+1240.22C1471.86+1243.29+1477.74+1244.69+1482.67+1241.84C1483.82+1241.18+1484.9+1240.07+1485.25+1238.79C1487.43+1230.7+1474.99+1224.13+1469.1+1222.43C1466.06+1221.56+1460.85+1220.69+1460.86+1222.93C1460.89+1226.1+1470.36+1226.28+1471.94+1225.66C1473.67+1224.99+1475.67+1224.07+1476.46+1222.38C1477.68+1219.81+1477.98+1216.72+1477.49+1213.92C1476.81+1210.09+1474.97+1206.51+1473.07+1203.12C1470.48+1198.48+1467.22+1194.26+1464.1+1189.96C1457.16+1180.44+1450.18+1170.56+1440.93+1163.26C1434.85+1158.46+1426.22+1154.74+1418.33+1154.32C1417.01+1154.25+1414.39+1154.56+1414.66+1155.86C1415.2+1158.47+1417.77+1160.3+1419.9+1161.89C1424.95+1165.65+1430.31+1169.07+1436.01+1171.75C1443.42+1175.22+1451.07+1178.38+1459.04+1180.25C1466.47+1181.99+1474.21+1183.05+1481.81+1182.47C1486.01+1182.15+1490.12+1180.16+1493.48+1177.62C1495.97+1175.74+1497.63+1172.74+1498.62+1169.78C1500.57+1163.96+1497.12+1157.16+1493.73+1152.04C1491.05+1148.01+1487.86+1144.34+1484.76+1140.62C1481.16+1136.3+1476.88+1132.51+1473.62+1127.92C1471.43+1124.83+1468.41+1121.55+1468.56+1117.77C1468.65+1115.57+1471.99+1114.55+1474.17+1114.26C1479.19+1113.6+1484.29+1114.76+1489.35+1115.02C1495.49+1115.33+1501.63+1116.26+1507.77+1115.97C1512.53+1115.75+1517.45+1115.32+1521.84+1113.49C1525.26+1112.06+1528.14+1109.37+1530.46+1106.49C1532.69+1103.72+1534.31+1100.37+1535.16+1096.92C1536.58+1091.13+1535.03+1082.54+1532.63+1077.22C1531.74+1075.24+1530.63+1073.02+1528.7+1072.05C1526.43+1070.91+1523.57+1070.83+1521.11+1071.45C1516.31+1072.66+1511.6+1074.62+1507.5+1077.4C1501.13+1081.71+1495.29+1086.85+1490.05+1092.48C1483.26+1099.78+1476.96+1107.62+1471.58+1116.01C1465.2+1125.97+1459.4+1136.4+1454.9+1147.34C1450.13+1158.96+1446.59+1171.12+1443.89+1183.39C1441.47+1194.43+1440.81+1205.78+1439.58+1217.01C1438.64+1225.74+1437.84+1234.48+1437.39+1243.25C1437.14+1248.15+1436.99+1253.1+1437.49+1257.98C1437.63+1259.27+1437.97+1261.61+1439.25+1261.44C1441.49+1261.14+1443.22+1258.98+1444.42+1257.07C1447.09+1252.83+1448.82+1248.05+1450.61+1243.37C1456.14+1228.86+1460.57+1213.94+1465.03+1199.06C1480.96+1145.93+1492.45+1091.06+1515.25+1040.29" fill="none" stroke-linecap="round" opacity="1" stroke-linejoin="round"/>
<path stroke="#000000" stroke-width="24.2161" d="M552.688+687.938C552.022+688.494+551.387+689.082+550.688+689.594C548.964+690.855+547.32+691.691+545.656+692.594C544.437+693.816+538.693+699.619+538.438+699.875C537.852+700.461+537.515+700.74+536.969+701.281C537.055+702.663+537.427+703.868+538.281+704.656C540.569+706.768+544.035+706.643+546.938+705.438C547.555+705.473+548.171+705.494+548.844+705.375C550.77+705.035+552.066+703.625+553.094+701.969C557.374+704.539+565.703+695.448+558.719+692.344C557.265+691.698+556.05+691.77+554.656+691.531C554.291+690.393+553.558+689.031+552.688+687.938Z" fill="none" stroke-linecap="round" opacity="1" stroke-linejoin="round"/>
<path stroke="#000000" stroke-width="24.2161" d="M659.481+806.132C660.545+805.931+660.556+803.979+660.186+802.961C659.628+801.429+653.377+802.256+652.435+802.609C645.868+805.072+640.025+816.285+646.445+821.635C653.688+827.671+663.729+824.002+667.937+816.35C668.474+815.374+668.92+814.291+668.994+813.179C669.313+808.39+654.9+797.458+651.025+804.723C644.419+817.109+663.32+828.913+672.165+815.645C673.275+813.981+674.945+809.634+674.631+807.542C673.968+803.117+666.81+800.486+663.004+801.2C660.953+801.584+654.239+807.127+659.481+806.132Z" fill="none" stroke-linecap="round" opacity="1" stroke-linejoin="round"/>
<path stroke="#000000" stroke-width="24.2161" d="M637.989+907.25C634.888+904.925+630.052+902.025+626.01+903.727C617.532+907.297+616.441+917.48+623.191+923.105C624.244+923.982+625.39+924.871+626.715+925.219C631.386+926.448+635.662+920.026+637.637+917.116C640.855+912.373+644.638+905.244+639.398+900.556C638.136+899.427+636.73+898.397+635.171+897.738C619.212+890.986+614.832+921.608+631.295+923.105C635.165+923.457+636.087+922.471+639.046+919.934C642.25+917.188+647.672+910.574+644.331+905.841C640.623+900.588+632.793+898.353+628.124+903.022" fill="none" stroke-linecap="round" opacity="1" stroke-linejoin="round"/>
<path stroke="#000000" stroke-width="24.2161" d="M486.488+862.329C484.819+863.484+478.498+862.906+476.976+864.619C470.722+871.654+482.532+889.571+491.421+887.52C498.938+885.785+508.32+872.49+500.582+866.38C496.299+862.999+489.076+860.951+483.67+862.152C481.731+862.583+479.539+865.043+479.794+867.085C481.565+881.25+503.048+882.966+503.048+868.142C503.048+862.694+496.708+855.709+490.716+858.277C488.532+859.213+488.325+861.058+486.488+862.329Z" fill="none" stroke-linecap="round" opacity="1" stroke-linejoin="round"/>
<path stroke="#000000" stroke-width="24.2161" d="M686.258+589.099C677.791+588.04+671.751+594.581+675.336+603.544C678.146+610.57+688.875+610.87+693.305+605.658C694.361+604.415+695.091+602.913+695.771+601.43C696.39+600.08+696.914+598.664+697.18+597.202C698.259+591.267+692.374+587.92+688.372+584.871C686.4+583.369+684.157+581.117+681.678+580.291C674.941+578.045+670.79+587.402+670.403+592.622C670.281+594.266+670.342+595.959+670.756+597.555C672.212+603.173+678.485+607.662+684.496+605.658C689.574+603.966+694.795+595.664+695.066+590.508C695.202+587.931+693.095+585.805+691.543+584.166C687.544+579.946+681.586+576.285+675.688+579.234C671.107+581.524+668.719+586.71+672.517+590.508" fill="none" stroke-linecap="round" opacity="1" stroke-linejoin="round"/>
<path stroke="#000000" stroke-width="24.2161" d="M799.003+546.115C795.451+543.07+792.346+538.184+787.024+538.716C772.181+540.2+770.6+558.711+781.739+566.55C797.192+577.425+811.972+550.295+797.241+539.773C788.042+533.202+774.022+543.853+778.215+554.571C779.335+557.431+782.937+559.007+785.614+559.503C792.498+560.778+805.402+553.205+802.526+545.058C801.656+542.593+800.68+541.778+798.298+541.182C787.332+538.441+779.592+558.776+792.661+556.685C794.385+556.409+795.949+555.51+797.593+554.923" fill="none" stroke-linecap="round" opacity="1" stroke-linejoin="round"/>
<path stroke="#000000" stroke-width="24.2161" d="M926.545+493.97C920.468+492.313+912.443+489.393+906.11+491.152C893.616+494.622+898.581+512.808+906.463+518.633C913.138+523.567+920.258+519.971+923.727+513.348C927.297+506.533+924.767+496.29+918.089+492.209C907.025+485.447+896.514+506.178+908.577+512.996C914.523+516.357+921.234+514.176+925.841+509.825C929.561+506.311+931.42+500.445+926.545+496.789C920.084+491.943+905.514+499.011+913.157+506.654" fill="none" stroke-linecap="round" opacity="1" stroke-linejoin="round"/>
<path stroke="#000000" stroke-width="24.2161" d="M977.985+872.018C974.526+869.597+968.31+863.824+963.54+864.619C957.902+865.558+957.959+875.639+958.607+879.417C959.656+885.536+966.442+895.881+973.757+895.271C981.91+894.592+991.502+877.691+984.327+871.313C982.374+869.577+977.888+868.213+975.519+867.79C972.51+867.252+966.885+866.583+964.244+868.847C963.476+869.505+964.181+872.19+964.244+872.37C964.8+873.957+965.501+875.504+966.358+876.95C968.475+880.522+970.333+883.325+974.462+884.701C976.369+885.337+978.458+885.663+980.451+885.406C984.177+884.925+991.266+879.906+988.907+875.189C986.102+869.578+978.947+866.733+973.052+866.733" fill="none" stroke-linecap="round" opacity="1" stroke-linejoin="round"/>
<path stroke="#000000" stroke-width="24.2161" d="M765.169+415.585C753.557+407.788+738.528+424.345+751.737+433.997C759.714+439.827+767.296+432.206+770.149+424.942C771.16+422.369+771.11+420.991+769.546+418.905C760.427+406.747+740.354+419.416+750.529+430.979C757.195+438.553+765.877+432.299+769.546+425.244C770.407+423.588+771.495+420.79+770.149+418.905C768.99+417.282+766.825+416.697+765.169+415.585Z" fill="none" stroke-linecap="round" opacity="1" stroke-linejoin="round"/>
<path stroke="#000000" stroke-width="24.2161" d="M927.713+355.518C922.391+350.204+914.477+348.985+909.904+355.518C906.972+359.706+907.747+365.39+909.904+369.704C910.642+371.18+911.68+372.542+912.922+373.628C921.102+380.785+933.156+375.248+938.579+367.591C939.999+365.587+941.116+362.89+940.692+360.347C940.143+357.053+938.77+356.047+936.165+354.31C930.295+350.397+921.675+348.904+917.752+356.423C917.119+357.636+916.636+358.982+916.545+360.347C916.43+362.065+916.56+363.86+917.148+365.478C917.797+367.263+918.824+368.966+920.167+370.308C927.855+377.996+946.491+371.379+941.296+360.045C939.542+356.218+936.545+354.247+932.542+353.405C930.812+353.04+930.101+357.902+927.713+355.518Z" fill="none" stroke-linecap="round" opacity="1" stroke-linejoin="round"/>
<path stroke="#000000" stroke-width="24.2161" d="M1096.41+317.055C1096.21+316.073+1094.99+315.548+1094.06+315.175C1079.59+309.385+1092.69+326.777+1096.88+323.634C1103.58+318.609+1092.32+306.58+1089.36+309.536C1086.73+312.17+1087.76+320.952+1091.24+322.694C1099.24+326.695+1099.69+307.46+1094.06+302.957C1092.29+301.54+1088.15+298.865+1085.6+300.138C1081.21+302.332+1071.65+316.002+1075.26+320.815C1078.44+325.043+1088.9+324.505+1093.12+322.694C1096.21+321.37+1101.13+317.423+1096.88+314.236C1095.6+313.277+1093.76+313.558+1092.18+313.296C1083.44+311.839+1079.11+318.261+1078.08+326.454C1077.93+327.697+1077.52+329.092+1078.08+330.213C1080.15+334.337+1088.19+337.166+1092.18+333.973C1097.04+330.086+1097.49+322.299+1096.41+317.055Z" fill="none" stroke-linecap="round" opacity="1" stroke-linejoin="round"/>
<path stroke="#000000" stroke-width="24.2161" d="M1459.67+699.58C1457.17+698.333+1455.71+695.93+1453.09+694.881C1451.34+694.183+1449.31+694.615+1447.45+694.881C1434.14+696.782+1446.42+719.712+1457.79+717.438C1464.6+716.076+1458.74+697.072+1449.33+698.64C1438.04+700.522+1438.83+728.328+1451.21+722.137C1457.65+718.916+1458.17+708.003+1451.21+705.22C1441.95+701.514+1430.76+705.029+1429.59+715.558C1429.41+717.242+1429.34+720.553+1430.53+722.137C1431.55+723.497+1433.99+723.077+1435.23+723.077C1441.44+723.077+1446.3+712.011+1444.63+706.159C1442.43+698.451+1431.73+699.925+1430.53+707.099C1430.43+707.717+1430.21+708.442+1430.53+708.979C1431.74+710.989+1434.3+712.428+1436.17+713.678" fill="none" stroke-linecap="round" opacity="1" stroke-linejoin="round"/>
<path stroke="#000000" stroke-width="24.2161" d="M1397.64+943.475C1394.68+938.654+1387.51+932.476+1380.72+933.607C1374.07+934.716+1370.4+946.025+1376.02+950.524C1383.21+956.279+1394.12+948.213+1397.64+942.066C1398.47+940.601+1400.53+938.716+1399.52+937.366C1398.57+936.098+1393.46+934.73+1392+934.547C1389.51+934.236+1386.78+933.559+1384.48+934.547C1378.67+937.037+1374.27+948.832+1377.9+954.284C1383.08+962.054+1399.03+947.664+1402.34+943.945C1402.64+943.608+1407.78+937.851+1404.22+936.426C1395.62+932.988+1385.92+942.438+1383.54+949.585C1383.1+950.904+1381.66+953.88+1383.54+955.224C1389.33+959.358+1396.26+959.86+1399.52+953.344C1399.83+952.717+1400.59+952.152+1400.46+951.464C1399.93+948.69+1399.12+945.882+1397.64+943.475Z" fill="none" stroke-linecap="round" opacity="1" stroke-linejoin="round"/>
<path stroke="#000000" stroke-width="24.2161" d="M1136.82+794.507C1134.15+791.722+1124.77+780.563+1119.44+783.228C1111.92+786.989+1110.25+804.98+1117.56+809.545C1130.24+817.472+1140.84+796.965+1124.14+789.807C1122.75+789.212+1118.19+788.239+1116.62+788.868C1112.21+790.631+1115.96+802.559+1117.56+804.845C1122.39+811.755+1129.37+813.039+1135.41+807.665C1137.57+805.746+1141.75+803.888+1141.05+801.086C1140.42+798.557+1138.63+796.387+1136.82+794.507Z" fill="none" stroke-linecap="round" opacity="1" stroke-linejoin="round"/>
<path stroke="#000000" stroke-width="24.2161" d="M1160.32+886.144C1157.86+880.252+1149.7+874.132+1141.99+877.215C1136.68+879.339+1138.61+894.134+1141.99+896.952C1149.36+903.088+1161.25+891.034+1163.61+884.734C1164.36+882.733+1165.32+880.807+1163.61+879.095C1160.18+875.659+1160.25+876.524+1156.09+875.335C1148.12+873.057+1147.63+877.38+1147.63+884.734C1147.63+887.867+1146.73+891.132+1147.63+894.133C1149.02+898.746+1156.51+905.24+1158.91+896.952C1159.92+893.463+1161.72+889.496+1160.32+886.144Z" fill="none" stroke-linecap="round" opacity="1" stroke-linejoin="round"/>
<path stroke="#000000" stroke-width="24.2161" d="M1094.06+1039.81C1095.75+1036.42+1097.28+1032.29+1097.82+1028.53C1098.98+1020.41+1092.03+1015.65+1084.66+1020.07C1079.41+1023.23+1079.96+1027.88+1079.96+1033.23C1079.96+1035.86+1079.3+1036.41+1081.84+1037.93C1084.07+1039.27+1085.92+1038.87+1088.42+1038.87C1104.87+1038.87+1105.23+1005.15+1089.36+1021.01" fill="none" stroke-linecap="round" opacity="1" stroke-linejoin="round"/>
<path stroke="#000000" stroke-width="24.2161" d="M781.556+1031.82C782.462+1031.19+779.317+1032.64+778.266+1032.29C776.585+1031.73+776.152+1029.19+774.507+1028.53C769.519+1026.54+766.582+1030.84+766.048+1035.11C765.892+1036.36+766.048+1037.62+766.048+1038.87C766.048+1040.68+765.528+1043.05+766.988+1044.51C770.474+1048+792.981+1044.22+795.184+1039.81C795.847+1038.48+795.382+1032.54+795.184+1031.35C794.859+1029.4+793.46+1029.05+792.364+1027.59C788.169+1022+785.041+1023.92+780.146+1027.59C779.455+1028.11+774.383+1030.7+775.446+1032.29C777.039+1034.68+780.123+1032.83+781.556+1031.82Z" fill="none" stroke-linecap="round" opacity="1" stroke-linejoin="round"/>
<path stroke="#000000" stroke-width="24.2161" d="M820.56+1199.59C821.961+1200.29+824.152+1200.7+825.259+1199.59C826.173+1198.68+824.633+1197.08+824.319+1195.83C823.054+1190.77+820.038+1185.22+813.981+1186.43C810.814+1187.06+810.454+1189.72+809.282+1192.07C805.345+1199.94+802.317+1211.91+813.041+1216.51C817.319+1218.34+826.638+1218.78+829.959+1214.63C831.744+1212.4+831.208+1205.82+830.899+1203.35C830.72+1201.92+829.628+1195.92+828.079+1194.89C827.337+1194.39+817.527+1194.76+817.74+1195.83C818.048+1197.37+819.159+1198.89+820.56+1199.59Z" fill="none" stroke-linecap="round" opacity="1" stroke-linejoin="round"/>
<path stroke="#000000" stroke-width="24.2161" d="M658.903+1190.19C663.934+1185.71+648.77+1184.16+645.745+1186.43C640.44+1190.41+640.106+1196.17+640.106+1202.41C640.106+1205.36+639.585+1205.65+641.986+1208.05C644.364+1210.43+649.112+1211.45+652.324+1211.81C665.299+1213.25+668.942+1201.51+665.482+1191.13C664.945+1189.52+663.467+1187.77+662.663+1186.43C656.288+1175.81+645.284+1187.54+651.384+1197.71C652.136+1198.96+652.199+1200.53+654.204+1200.53C656.475+1200.53+659.007+1193.63+657.963+1192.07C657.575+1191.49+655.77+1191.76+656.084+1191.13C656.527+1190.24+658.163+1190.85+658.903+1190.19Z" fill="none" stroke-linecap="round" opacity="1" stroke-linejoin="round"/>
<path stroke="#000000" stroke-width="24.2161" d="M430.986+1110.3C430.986+1107.38+429.837+1104.51+428.636+1101.84C427.699+1099.76+422.34+1100.93+421.117+1101.84C418.083+1104.12+412.993+1111.8+415.478+1115.94C416.367+1117.42+422.229+1119.39+422.997+1119.7C432.14+1123.36+439.658+1122.73+444.614+1114.06C446.283+1111.14+447.203+1109.15+446.494+1105.6C445.945+1102.86+443.135+1101.1+440.854+1099.96C433.498+1096.28+427.04+1103.81+424.877+1110.3C424.053+1112.77+425.016+1116.08+426.756+1117.82C427.252+1118.32+428.293+1119.37+428.636+1118.76C430.071+1116.21+430.986+1113.23+430.986+1110.3Z" fill="none" stroke-linecap="round" opacity="1" stroke-linejoin="round"/>
<path stroke="#000000" stroke-width="24.2161" d="M543.84+682.522C544.174+682.917+545.175+683.368+544.809+683.734C544.444+684.099+544.011+683.075+543.598+682.764C542.73+682.114+540.689+681.31+540.689+681.31C540.689+681.31+541.693+680.283+542.143+680.583C542.858+681.06+543.285+681.866+543.84+682.522Z" fill="none" stroke-linecap="round" opacity="1" stroke-linejoin="round"/>
<path stroke="#000000" stroke-width="24.2161" d="M545.779+686.642C544.281+684.146+544.167+683.034+540.932+682.764C540.046+682.691+539.149+682.666+538.266+682.764C537.778+682.819+536.592+683.446+536.812+683.007C537.516+681.598+539.931+681.795+541.174+681.795" fill="none" stroke-linecap="round" opacity="1" stroke-linejoin="round"/>
<path stroke="#000000" stroke-width="24.2161" d="M1201.31+1285.72C1199.05+1287.42+1196.58+1289.3+1193.76+1289.61C1191.98+1289.81+1190.46+1288.14+1189.02+1287.08C1188.37+1286.61+1187.76+1284.33+1187.63+1285.12C1186.37+1292.52+1198.85+1307.6+1206.36+1300.71C1211.16+1296.31+1212.66+1268.79+1199.22+1275.71C1189.2+1280.87+1199.24+1298.91+1208.89+1295.97C1217.57+1293.32+1215.99+1273.02+1208.38+1278.64C1205.7+1280.62+1203.98+1283.72+1201.31+1285.72Z" fill="none" stroke-linecap="round" opacity="1" stroke-linejoin="round"/>
</g>
</svg>
