<?xml version="1.0" encoding="UTF-8" standalone="no"?> <!-- Created with Vectornator for iOS (http://vectornator.io/) --><!DOCTYPE svg PUBLIC "-//W3C//DTD SVG 1.1//EN" "http://www.w3.org/Graphics/SVG/1.1/DTD/svg11.dtd">
<svg height="100%" style="fill-rule:nonzero;clip-rule:evenodd;stroke-linecap:round;stroke-linejoin:round;" xmlns:xlink="http://www.w3.org/1999/xlink" xmlns="http://www.w3.org/2000/svg" xml:space="preserve" width="100%" xmlns:vectornator="http://vectornator.io" version="1.1" viewBox="0 0 1620 1620">
<metadata>
<vectornator:setting key="DimensionsVisible" value="1"/>
<vectornator:setting key="PencilOnly" value="0"/>
<vectornator:setting key="SnapToPoints" value="0"/>
<vectornator:setting key="GuidesVisible" value="1"/>
<vectornator:setting key="CMYKEnabledKey" value="0"/>
<vectornator:setting key="RulersVisible" value="1"/>
<vectornator:setting key="SnapToEdges" value="0"/>
<vectornator:setting key="OutlineMode" value="0"/>
<vectornator:setting key="DisplayWhiteBackground" value="0"/>
<vectornator:setting key="doHistoryDisabled" value="0"/>
<vectornator:setting key="SnapToGuides" value="1"/>
<vectornator:setting key="TimeLapseWatermarkDisabled" value="0"/>
<vectornator:setting key="DynamicGuides" value="0"/>
<vectornator:setting key="SnapToGrid" value="0"/>
<vectornator:setting key="IsolateActiveLayer" value="0"/>
<vectornator:setting key="Units" value="Pixels"/>
</metadata>
<defs/>
<g id="Layer 1" vectornator:layerName="Layer 1">
<path stroke="#000000" stroke-width="50.4007" d="M1438+129C1379.64+99.8223+1246.49+129.112+1181+127C892.836+117.704+551.39+76.9152+370+349C279.067+485.4+322.036+622.236+270+761C239.1+843.399+126.895+880.629+111+976C99.4014+1045.59+204.308+1032.05+238+1059C369.081+1163.86+147.93+1205+461+1205" fill="none" stroke-linecap="round" opacity="1" stroke-linejoin="round"/>
<path stroke="#000000" stroke-width="50.4007" d="M306+1203C232.351+1203+335.8+1321.8+337+1329C347.566+1392.39+275.322+1441.65+326+1505C397.68+1594.6+616.497+1549+714+1549" fill="none" stroke-linecap="round" opacity="1" stroke-linejoin="round"/>
<path stroke="#000000" stroke-width="50.4007" d="M716+1547C711.4+1556.2+716+1570.91+716+1581" fill="none" stroke-linecap="round" opacity="1" stroke-linejoin="round"/>
<path stroke="#000000" stroke-width="50.4007" d="M1211+1583C1179.31+1519.62+1220+1359.4+1220+1287" fill="none" stroke-linecap="round" opacity="1" stroke-linejoin="round"/>
<path stroke="#000000" stroke-width="50.4007" d="M1223+1279C1285.85+1268.52+1348.4+1278+1411+1278" fill="none" stroke-linecap="round" opacity="1" stroke-linejoin="round"/>
<path stroke="#000000" stroke-width="50.4007" d="M981.5+456L981.5+456C1096.65+456+1190+549.349+1190+664.5L1190+669.5C1190+784.651+1096.65+878+981.5+878L981.5+878C866.349+878+773+784.651+773+669.5L773+664.5C773+549.349+866.349+456+981.5+456Z" fill="none" stroke-linecap="round" opacity="1" stroke-linejoin="round"/>
<path stroke="#000000" stroke-width="50.4007" d="M949+272C945.467+272+942.461+273.615+939+274C920.66+276.038+903.869+277.127+886+282C866.541+287.307+846.22+288.593+827+295C821.783+296.739+801.35+299.65+798+303C796.563+304.437+806.743+327.487+808+330C814.511+343.021+828.519+358.077+832+372C834.442+381.77+840.57+390.279+843+400C843.941+403.763+844.136+406.272+846+410" fill="none" stroke-linecap="round" opacity="1" stroke-linejoin="round"/>
<path stroke="#000000" stroke-width="50.4007" d="M845+413C828.251+413+805.931+428.656+793+439C788.112+442.91+781.388+445.612+777+450C772.643+454.357+771.54+461.46+767+466" fill="none" stroke-linecap="round" opacity="1" stroke-linejoin="round"/>
<path stroke="#000000" stroke-width="50.4007" d="M761+466C759.006+466+742.926+454.756+740+453C730.536+447.322+719.386+442.188+711+435C706.193+430.879+703.108+425.694+699+421C693.824+415.084+687.104+410.955+682+405C676.184+398.215+668.951+395.951+663+390C662.786+389.786+660.999+385.201+660+386C656.508+388.794+656.219+394.117+654+398C652.741+400.204+646.911+409.372+645+412C631.183+430.998+618.533+450.934+608+472C600.825+486.35+596.177+500.645+589+515" fill="none" stroke-linecap="round" opacity="1" stroke-linejoin="round"/>
<path stroke="#000000" stroke-width="50.4007" d="M584+526C592.044+534.044+604.098+533.756+614+538C624.294+542.412+634.035+547.867+645+551C661.434+555.695+677.786+557.393+693+565" fill="none" stroke-linecap="round" opacity="1" stroke-linejoin="round"/>
<path stroke="#000000" stroke-width="50.4007" d="M696+572C692.404+572+690.739+589.362+689+594C682.871+610.345+672.933+651.866+681+668" fill="none" stroke-linecap="round" opacity="1" stroke-linejoin="round"/>
<path stroke="#000000" stroke-width="50.4007" d="M677+677C664.48+677+651.437+675.869+639+677C623.348+678.423+605.956+682.659+590+680C586.247+679.374+564.754+674.328+562+678C556.624+685.167+563.396+705.981+565+714C569.437+736.183+577.295+757.771+581+780C582.654+789.926+584.395+796.791+589+806C591.357+810.714+590.899+814.899+595+819" fill="none" stroke-linecap="round" opacity="1" stroke-linejoin="round"/>
<path stroke="#000000" stroke-width="50.4007" d="M600+822C603.103+822+604.976+819.864+608+819C619.302+815.771+628.453+809.52+639+805C649.223+800.619+664.165+797.709+675+795C684.627+792.593+691.753+787+702+787" fill="none" stroke-linecap="round" opacity="1" stroke-linejoin="round"/>
<path stroke="#000000" stroke-width="50.4007" d="M709+788C705.709+794.582+719.052+809.103+722+815C725.09+821.179+726.807+829.409+731+835C739.88+846.84+749.555+857.555+760+868" fill="none" stroke-linecap="round" opacity="1" stroke-linejoin="round"/>
<path stroke="#000000" stroke-width="50.4007" d="M758+880C753.791+881.403+753.896+884.104+751+887C742.29+895.71+734.976+904.536+728+915C722.237+923.644+714.421+931.579+707+939C704.865+941.135+700.155+945.618+701+949C701.912+952.649+706.523+952.762+709+954C712.727+955.864+715.681+959.511+719+962C723.958+965.719+730.09+968.072+735+972C749.828+983.862+768.668+992.668+782+1006C784+1008+788+1008+790+1010C796.998+1017+806.717+1025.43+811+1034" fill="none" stroke-linecap="round" opacity="1" stroke-linejoin="round"/>
<path stroke="#000000" stroke-width="50.4007" d="M814+1035C820.948+1021.1+835.473+1012.91+845+1001C862.911+978.611+873.63+953.37+894+933" fill="none" stroke-linecap="round" opacity="1" stroke-linejoin="round"/>
<path stroke="#000000" stroke-width="50.4007" d="M896+937C901.328+937+906.099+939.775+911+941C924.745+944.436+938.5+948+953+948C958.097+948+969.854+946.806+973+951C978.744+958.658+978+972.965+978+982C978+994.065+976.021+1008.13+978+1020C979.444+1028.67+982+1037.2+982+1046C982+1054.53+981.627+1061.86+980+1070C979.831+1070.85+978.356+1075.36+979+1076C981.302+1078.3+1001.79+1072.84+1006+1072C1010.77+1071.05+1016.29+1073.18+1021+1072C1035.58+1068.35+1060.47+1070+1076+1070" fill="none" stroke-linecap="round" opacity="1" stroke-linejoin="round"/>
<path stroke="#000000" stroke-width="50.4007" d="M989+452C980.4+452+971.117+441.397+966+435C959.714+427.143+958.363+419.249+955+410C950.707+398.193+945.293+388.61+943+376C942.011+370.562+939.55+365.504+939+360C938.003+350.027+939+340.832+939+331C939+323.425+938.49+315.02+942+308C950.167+291.667+960.247+283.221+975+274C980.38+270.637+984.808+267.238+991+266C1000.84+264.033+1012+267+1022+266C1041.6+264.04+1066.46+262.056+1085+270C1114.42+282.608+1145.38+298.261+1151+332C1152.35+340.089+1153.68+344.953+1151+353" fill="none" stroke-linecap="round" opacity="1" stroke-linejoin="round"/>
<path stroke="#000000" stroke-width="50.4007" d="M989+452C980.4+452+971.117+441.397+966+435C959.714+427.143+958.363+419.249+955+410C950.707+398.193+945.293+388.61+943+376C942.011+370.562+939.55+365.504+939+360C938.003+350.027+939+340.832+939+331C939+323.425+938.49+315.02+942+308C950.167+291.667+960.247+283.221+975+274C980.38+270.637+984.808+267.238+991+266C1000.84+264.033+1012+267+1022+266C1041.6+264.04+1066.46+262.056+1085+270C1114.42+282.608+1145.38+298.261+1151+332C1152.35+340.089+1153.68+344.953+1151+353" fill="none" stroke-linecap="round" opacity="1" stroke-linejoin="round"/>
<path stroke="#000000" stroke-width="50.4007" d="M989+452C980.4+452+971.117+441.397+966+435C959.714+427.143+958.363+419.249+955+410C950.707+398.193+945.293+388.61+943+376C942.011+370.562+939.55+365.504+939+360C938.003+350.027+939+340.832+939+331C939+323.425+938.49+315.02+942+308C950.167+291.667+960.247+283.221+975+274C980.38+270.637+984.808+267.238+991+266C1000.84+264.033+1012+267+1022+266C1041.6+264.04+1066.46+262.056+1085+270C1114.42+282.608+1145.38+298.261+1151+332C1152.35+340.089+1153.68+344.953+1151+353" fill="none" stroke-linecap="round" opacity="1" stroke-linejoin="round"/>
<path stroke="#000000" stroke-width="50.4007" d="M1152+356C1147.94+358.031+1161.52+350.826+1164+350C1174.39+346.536+1185.05+346.369+1196+345C1206.86+343.643+1219.34+342.868+1230+345C1235.89+346.179+1241.24+350.56+1247+352C1259.03+355.008+1272.11+358.465+1283+365C1288.96+368.574+1292.74+377.681+1297+383C1301.83+389.041+1309.48+396.449+1312+404C1314.37+411.117+1313+420.462+1313+428C1313+435.371+1314.46+444.722+1313+452C1310.23+465.838+1288.45+487.775+1276+494" fill="none" stroke-linecap="round" opacity="1" stroke-linejoin="round"/>
<path stroke="#000000" stroke-width="50.4007" d="M1283+496C1281.67+496+1278.06+496.943+1279+496C1280.91+494.091+1284.77+495.371+1287+495C1299.78+492.87+1311.91+490.955+1324+497C1333.99+501.996+1349.55+505.241+1358+512C1369.32+521.054+1372.83+531.668+1379+544C1382.33+550.662+1387.23+557.067+1390+564C1394.78+575.944+1399.06+607.872+1393+620C1390.27+625.458+1386.01+629.991+1383+635C1380.07+639.887+1378.86+646.238+1376+651C1373.73+654.782+1368.57+657.324+1365+660C1350.05+671.215+1330.57+679+1312+679" fill="none" stroke-linecap="round" opacity="1" stroke-linejoin="round"/>
<path stroke="#000000" stroke-width="50.4007" d="M1311+680C1309.67+680.442+1303.07+681.107+1305+684C1308.42+689.13+1321.9+690.471+1327+692C1340.57+696.071+1351.16+700.707+1362+710C1367.93+715.08+1377.38+718.841+1382+725C1387.34+732.124+1388.59+742.038+1392+750C1396.56+760.635+1403.34+772.374+1405+784C1406.09+791.616+1406.05+799.369+1407+807C1407.65+812.173+1408.76+817.677+1408+823C1407.14+829.013+1402.91+834.915+1400+840C1388.49+860.139+1367.63+871.749+1347+880C1343.13+881.547+1339.12+884.314+1335+885C1332.09+885.484+1328.89+884.423+1326+885C1317.6+886.68+1307.9+888.483+1299+887C1281.01+884.001+1257+858.557+1257+840" fill="none" stroke-linecap="round" opacity="1" stroke-linejoin="round"/>
<path stroke="#000000" stroke-width="50.4007" d="M1254+848C1249.53+848+1257.36+856.394+1260+860C1264.98+866.786+1269.56+874.651+1275+881C1276.53+882.79+1278.95+883.892+1280+886C1286.07+898.145+1287.88+911.601+1289+925C1289.68+933.163+1294+940.025+1295+948C1296.94+963.502+1289.35+979.783+1280+991C1270+1003+1253.61+1011.2+1240+1018C1235.81+1020.1+1232.77+1023.05+1228+1024C1221.51+1025.3+1213.12+1020.53+1207+1019C1195.61+1016.15+1183.41+1017.8+1172+1014C1167.5+1012.5+1164.72+1008.48+1161+1006C1156.83+1003.22+1150.71+1001.71+1147+998C1129.98+980.977+1121+960.107+1121+936" fill="none" stroke-linecap="round" opacity="1" stroke-linejoin="round"/>
<path stroke="#000000" stroke-width="50.4007" d="M1024+897C1024.91+892.431+1023.39+884.307+1028+882" fill="none" stroke-linecap="round" opacity="1" stroke-linejoin="round"/>
<path stroke="#000000" stroke-width="50.4007" d="M1160+1005C1157.76+1009.48+1160.05+1010.31+1161+1016C1161.84+1021.06+1161.72+1028.94+1161+1034C1159.58+1043.97+1150.59+1053.93+1143+1060C1129.94+1070.45+1115.8+1065.85+1101+1064C1090.67+1062.71+1077.56+1059.78+1068+1055C1050.42+1046.21+1045.39+1029.25+1038+1013C1031.37+998.423+1025.98+982.847+1024+967C1023.05+959.371+1023.52+951.597+1022+944C1018.71+927.532+1020.82+912.9+1024+897" fill="none" stroke-linecap="round" opacity="1" stroke-linejoin="round"/>
<path stroke="#000000" stroke-width="50.4007" d="M1387+117L1525+120" fill="none" stroke-linecap="round" opacity="1" stroke-linejoin="round"/>
<path stroke="#000000" stroke-width="50.4007" d="M1517+445L1322+443" fill="none" stroke-linecap="round" opacity="1" stroke-linejoin="round"/>
<path stroke="#000000" stroke-width="50.4007" d="M1541+864L1393+864" fill="none" stroke-linecap="round" opacity="1" stroke-linejoin="round"/>
<path stroke="#000000" stroke-width="50.4007" d="M1545+1280L1412+1279" fill="none" stroke-linecap="round" opacity="1" stroke-linejoin="round"/>
<path stroke="#000000" stroke-width="50.4007" d="M1541.2+407.633L1541.2+407.633C1562.85+407.633+1580.4+422.997+1580.4+441.95L1580.4+449.683C1580.4+468.636+1562.85+484+1541.2+484L1541.2+484C1519.55+484+1502+468.636+1502+449.683L1502+441.95C1502+422.997+1519.55+407.633+1541.2+407.633Z" fill="none" stroke-linecap="round" opacity="1" stroke-linejoin="round"/>
<path stroke="#000000" stroke-width="50.4007" d="M1541.2+824.633L1541.2+824.633C1562.85+824.633+1580.4+839.997+1580.4+858.95L1580.4+866.683C1580.4+885.636+1562.85+901+1541.2+901L1541.2+901C1519.55+901+1502+885.636+1502+866.683L1502+858.95C1502+839.997+1519.55+824.633+1541.2+824.633Z" fill="none" stroke-linecap="round" opacity="1" stroke-linejoin="round"/>
<path stroke="#000000" stroke-width="50.4007" d="M1541.2+1237.63L1541.2+1237.63C1562.85+1237.63+1580.4+1253+1580.4+1271.95L1580.4+1279.68C1580.4+1298.64+1562.85+1314+1541.2+1314L1541.2+1314C1519.55+1314+1502+1298.64+1502+1279.68L1502+1271.95C1502+1253+1519.55+1237.63+1541.2+1237.63Z" fill="none" stroke-linecap="round" opacity="1" stroke-linejoin="round"/>
<path stroke="#000000" stroke-width="50.4007" d="M1541.2+83.6333L1541.2+83.6333C1562.85+83.6333+1580.4+98.9974+1580.4+117.95L1580.4+125.683C1580.4+144.636+1562.85+160+1541.2+160L1541.2+160C1519.55+160+1502+144.636+1502+125.683L1502+117.95C1502+98.9974+1519.55+83.6333+1541.2+83.6333Z" fill="none" stroke-linecap="round" opacity="1" stroke-linejoin="round"/>
<path stroke="#000000" stroke-width="50.4007" d="M1555.5+443C1556.37+443.521+1556.63+446.797+1556+446C1553.6+442.943+1552.88+438.608+1550+436C1545.68+432.088+1540.72+428.144+1535+427C1532.69+426.538+1531.39+430.094+1530+432C1528.68+433.808+1528+436+1527+438C1522.71+446.579+1520.41+458.822+1525+468C1527.88+473.758+1538.51+475.717+1544+474C1554.12+470.837+1570.94+452.748+1568+441C1566.32+434.298+1547.48+429.519+1543+434C1539.23+437.769+1536.2+448.882+1541+453C1542.41+454.211+1550.83+454.213+1552+454C1563.47+451.914+1571.61+424.439+1559+421C1554.69+419.824+1548.26+424.565+1546+427C1539.4+434.103+1535.73+443.519+1535+453C1534.87+454.662+1534.17+456.553+1535+458C1538.19+463.578+1546.61+458.172+1549+456C1558.01+447.808+1564.46+434.394+1563+422C1562.74+419.779+1561.58+417.581+1560+416C1556.57+412.567+1550.81+417.29+1549+420C1545.97+424.552+1543.41+432.444+1545+438C1546.06+441.727+1552.17+441.008+1555.5+443Z" fill="none" stroke-linecap="round" opacity="1" stroke-linejoin="round"/>
<path stroke="#000000" stroke-width="50.4007" d="M1553+107C1547.17+105.542+1530.66+102.475+1526+109C1520.94+116.084+1524.65+145.857+1532+151C1538.64+155.648+1548.82+147.898+1553+144C1560.56+136.943+1566.08+128.228+1568+118C1568.72+114.172+1568.6+110.401+1565+108C1563.06+106.706+1560.33+108+1558+108C1556+108+1553.9+107.368+1552+108C1543.75+110.751+1539.45+125.875+1539+133C1538.85+135.352+1538.73+138.011+1540+140C1542.32+143.639+1549.16+145.296+1553+145C1563.25+144.211+1574.63+124.064+1571+115C1569.02+110.062+1560.45+111.707+1557+113C1549.46+115.826+1546.46+124.561+1546+132C1545.55+139.164+1551.41+149.37+1560+144C1566.47+139.956+1567.16+132.736+1568+126" fill="none" stroke-linecap="round" opacity="1" stroke-linejoin="round"/>
<path stroke="#000000" stroke-width="50.4007" d="M1562+851C1556.54+851+1555.35+847.355+1552+844C1546.19+838.191+1533.55+832.718+1526+838C1512.68+847.322+1514.6+867.605+1525+878C1529.19+882.19+1536.5+888.544+1543+885C1552.84+879.631+1557.23+863.478+1556+853C1554.8+842.786+1539.44+833.955+1530+838C1516.05+843.978+1524.45+874.455+1532+882C1534.12+884.123+1540.83+886.584+1544+885C1553.93+880.036+1558+858.72+1558+849C1558+845.31+1557.25+833.377+1550+837C1546.6+838.702+1544.64+844.997+1544+848C1541.59+859.263+1544.49+875.298+1558+878C1564.25+879.251+1566.12+876.529+1569+872C1574.95+862.645+1572.15+851.87+1565+844C1562.14+840.856+1559.45+838.518+1555+840C1541.78+844.407+1543.85+880.757+1564+875C1571.37+872.894+1572.89+870.111+1578+865" fill="none" stroke-linecap="round" opacity="1" stroke-linejoin="round"/>
<path stroke="#000000" stroke-width="50.4007" d="M1553.5+1254.5C1554.35+1254.5+1556.84+1254.91+1556+1255C1549.98+1255.67+1544.85+1253.9+1539+1253C1536.67+1252.64+1534.35+1252.17+1532+1252C1521.15+1251.22+1504.86+1253.66+1511+1269C1515+1279+1541.21+1309.98+1552+1292C1554.42+1287.96+1554.8+1279.93+1555+1276C1555.64+1263.19+1551.15+1249.97+1536+1253C1532.59+1253.68+1528.96+1254.18+1526+1256C1518.97+1260.33+1519.81+1274.55+1524+1280C1530.3+1288.19+1543.25+1294.2+1553+1288C1564.48+1280.69+1559.34+1256.65+1553+1248C1552.23+1246.95+1546.21+1241.08+1543+1242C1537.96+1243.44+1536.57+1256.33+1537+1260C1538.16+1269.89+1546.37+1284.11+1558+1282C1575.6+1278.8+1558.64+1247.89+1545+1253C1542.86+1253.8+1539.65+1259.7+1539+1261C1533.6+1271.79+1539.71+1285.9+1553+1284C1561.79+1282.74+1571.15+1272.44+1566+1263C1563.61+1258.62+1558.42+1256.33+1554+1255C1553.04+1254.71+1551.71+1255.71+1551+1255C1550.4+1254.4+1552.65+1254.5+1553.5+1254.5Z" fill="none" stroke-linecap="round" opacity="1" stroke-linejoin="round"/>
<path stroke="#000000" stroke-width="1.42699" d="M1271+1184C1282.34+1193.72+1294.16+1202.89+1306+1212C1309.59+1214.76+1313.46+1217.17+1317+1220C1318.47+1221.18+1322.33+1225.33+1321+1224C1300.79+1203.79+1287.88+1175.17+1275+1150C1271.94+1144.03+1268.61+1138.18+1266+1132C1264.55+1128.57+1262.33+1124.33+1264+1121C1265.34+1118.32+1270.76+1121.85+1271+1122C1274.2+1124.06+1277.38+1126.24+1280+1129C1287.04+1136.41+1293.48+1147.53+1299+1156C1301.57+1159.94+1307.52+1165.12+1305+1171C1303.99+1173.36+1291.93+1171.32+1290+1171" fill="none" stroke-linecap="round" opacity="1" stroke-linejoin="round"/>
<path stroke="#000000" stroke-width="1.42699" d="M1327+1189C1321.08+1186.04+1318.32+1179.01+1314+1174C1311.54+1171.15+1308.94+1168.36+1306+1166C1303.2+1163.76+1298.54+1159.46+1296+1162C1295.48+1162.52+1299.38+1167.14+1304+1172C1307.9+1176.1+1311.53+1180.53+1316+1184C1320.6+1187.58+1325.55+1190.93+1331+1193C1335.41+1194.67+1340.57+1196.61+1345+1195C1349.01+1193.54+1351.57+1189.02+1353+1185C1358.81+1168.64+1355.01+1149.62+1350+1133C1343.59+1111.73+1332.73+1091.47+1319+1074C1314.63+1068.44+1309.84+1062.99+1304+1059C1302.77+1058.16+1300+1059.51+1300+1061C1300+1066.17+1301.69+1071.37+1304+1076C1309.09+1086.18+1315.22+1095.86+1322+1105C1329.6+1115.25+1336.91+1126.19+1347+1134C1355.03+1140.21+1364.93+1144.69+1375+1146C1381.27+1146.82+1387.86+1143.69+1393+1140C1398.96+1135.72+1403.78+1129.6+1407+1123C1410.62+1115.59+1412.66+1107.24+1413+1099C1413.34+1090.9+1411.62+1082.68+1409+1075C1406.54+1067.8+1402.42+1061.19+1398+1055C1395.67+1051.73+1392.34+1049.23+1389+1047C1388.45+1046.63+1388.58+1048.49+1389+1049C1403.12+1066.14+1420.02+1083.52+1443+1087C1447.63+1087.7+1452.58+1087.53+1457+1086C1469.29+1081.75+1481.2+1065.94+1485+1054C1485.91+1051.14+1487.47+1046.7+1485+1045C1480.57+1041.95+1474.3+1042.12+1469+1043C1457.98+1044.84+1447.17+1048.37+1437+1053C1420.71+1060.42+1404.65+1068.71+1390+1079C1373.16+1090.82+1357.46+1104.36+1343+1119C1331+1131.15+1321.42+1145.47+1311+1159C1305.75+1165.81+1300.56+1172.71+1296+1180C1295.47+1180.85+1295.1+1183.43+1296+1183C1316.49+1173.3+1333.68+1157.62+1351+1143C1383.3+1115.73+1412.93+1085.33+1446+1059C1482.9+1029.62+1523.16+1004.16+1563+979" fill="none" stroke-linecap="round" opacity="1" stroke-linejoin="round"/>
<path stroke="#000000" stroke-width="50.4007" d="M1044.29+353.249L1044.29+353.249C1050.33+353.249+1055.22+358.144+1055.22+364.183L1055.22+364.774C1055.22+370.813+1050.33+375.708+1044.29+375.708L1044.29+375.708C1038.25+375.708+1033.35+370.813+1033.35+364.774L1033.35+364.183C1033.35+358.144+1038.25+353.249+1044.29+353.249Z" fill="none" stroke-linecap="round" opacity="1" stroke-linejoin="round"/>
<path stroke="#000000" stroke-width="50.4007" d="M1282.47+578.432L1282.47+578.432C1288.51+578.432+1293.41+583.328+1293.41+589.366L1293.41+589.957C1293.41+595.996+1288.51+600.892+1282.47+600.892L1282.47+600.892C1276.44+600.892+1271.54+595.996+1271.54+589.957L1271.54+589.366C1271.54+583.328+1276.44+578.432+1282.47+578.432Z" fill="none" stroke-linecap="round" opacity="1" stroke-linejoin="round"/>
<path stroke="#000000" stroke-width="50.4007" d="M1201.5+431.265L1201.5+431.265C1207.54+431.265+1212.44+436.16+1212.44+442.199L1212.44+442.79C1212.44+448.829+1207.54+453.724+1201.5+453.724L1201.5+453.724C1195.46+453.724+1190.57+448.829+1190.57+442.79L1190.57+442.199C1190.57+436.16+1195.46+431.265+1201.5+431.265Z" fill="none" stroke-linecap="round" opacity="1" stroke-linejoin="round"/>
<path stroke="#000000" stroke-width="50.4007" d="M1188.5+887.543L1188.5+887.543C1194.54+887.543+1199.43+892.438+1199.43+898.477L1199.43+899.068C1199.43+905.107+1194.54+910.002+1188.5+910.002L1188.5+910.002C1182.46+910.002+1177.57+905.107+1177.57+899.068L1177.57+898.477C1177.57+892.438+1182.46+887.543+1188.5+887.543Z" fill="none" stroke-linecap="round" opacity="1" stroke-linejoin="round"/>
<path stroke="#000000" stroke-width="50.4007" d="M1051.97+951.965L1051.97+951.965C1058.01+951.965+1062.91+956.861+1062.91+962.899L1062.91+963.49C1062.91+969.529+1058.01+974.424+1051.97+974.424L1051.97+974.424C1045.93+974.424+1041.04+969.529+1041.04+963.49L1041.04+962.899C1041.04+956.861+1045.93+951.965+1051.97+951.965Z" fill="none" stroke-linecap="round" opacity="1" stroke-linejoin="round"/>
<path stroke="#000000" stroke-width="50.4007" d="M1286.02+752.787L1286.02+752.787C1292.06+752.787+1296.95+757.682+1296.95+763.721L1296.95+764.312C1296.95+770.351+1292.06+775.246+1286.02+775.246L1286.02+775.246C1279.98+775.246+1275.09+770.351+1275.09+764.312L1275.09+763.721C1275.09+757.682+1279.98+752.787+1286.02+752.787Z" fill="none" stroke-linecap="round" opacity="1" stroke-linejoin="round"/>
</g>
<g id="Layer 2" vectornator:layerName="Layer 2" visibility="hidden">
<path stroke="#000000" stroke-width="24.2161" d="M957.321+296.873L1079.3+296.873C1279.41+296.873+1441.62+451.105+1441.62+641.359L1441.62+768.819C1441.62+959.073+1279.41+1113.31+1079.3+1113.31L957.321+1113.31C757.217+1113.31+595+959.073+595+768.819L595+641.359C595+451.105+757.217+296.873+957.321+296.873Z" fill="none" stroke-linecap="round" opacity="1" stroke-linejoin="round"/>
</g>
</svg>
