<?xml version="1.0" encoding="UTF-8" standalone="no"?> <!-- Created with Vectornator for iOS (http://vectornator.io/) --><!DOCTYPE svg PUBLIC "-//W3C//DTD SVG 1.1//EN" "http://www.w3.org/Graphics/SVG/1.1/DTD/svg11.dtd">
<svg height="100%" style="fill-rule:nonzero;clip-rule:evenodd;stroke-linecap:round;stroke-linejoin:round;" xmlns:xlink="http://www.w3.org/1999/xlink" xmlns="http://www.w3.org/2000/svg" xml:space="preserve" width="100%" xmlns:vectornator="http://vectornator.io" version="1.1" viewBox="0 0 1620 1620">
<metadata>
<vectornator:setting key="DimensionsVisible" value="1"/>
<vectornator:setting key="PencilOnly" value="0"/>
<vectornator:setting key="SnapToPoints" value="0"/>
<vectornator:setting key="GuidesVisible" value="1"/>
<vectornator:setting key="OutlineMode" value="0"/>
<vectornator:setting key="RulersVisible" value="1"/>
<vectornator:setting key="SnapToEdges" value="0"/>
<vectornator:setting key="CMYKEnabledKey" value="0"/>
<vectornator:setting key="DisplayWhiteBackground" value="0"/>
<vectornator:setting key="doHistoryDisabled" value="0"/>
<vectornator:setting key="TimeLapseWatermarkDisabled" value="0"/>
<vectornator:setting key="SnapToGuides" value="1"/>
<vectornator:setting key="Units" value="Pixels"/>
<vectornator:setting key="DynamicGuides" value="0"/>
<vectornator:setting key="SnapToGrid" value="0"/>
<vectornator:setting key="IsolateActiveLayer" value="0"/>
</metadata>
<defs/>
<g id="Layer 1" vectornator:layerName="Layer 1">
<path stroke="#000000" stroke-width="50.4897" d="M806.609+132.709C1188.03+132.709+1497.23+434.899+1497.23+807.669C1497.23+1180.44+1188.03+1482.63+806.609+1482.63C800.123+1482.63+793.663+1483.38+658.027+1480.64" fill="none" stroke-linecap="round" opacity="1" stroke-linejoin="round"/>
<path stroke="#000000" stroke-width="50.4897" d="M301.188+1267.65C186.283+1147.11+115.986+985.411+115.986+807.669C115.986+467.728+373.125+186.483+707.679+139.582" fill="none" stroke-linecap="round" opacity="1" stroke-linejoin="round"/>
<path stroke="#000000" stroke-width="50.4897" d="M64.7906+1476.53L1477.32+1494.34" fill="none" stroke-linecap="round" opacity="1" stroke-linejoin="round"/>
<path stroke="#000000" stroke-width="50.4897" d="M1380.05+1392.96L1493.76+1491.6" fill="none" stroke-linecap="round" opacity="1" stroke-linejoin="round"/>
<path stroke="#000000" stroke-width="50.4897" d="M1489.65+1490.23L1375.94+1588.88" fill="none" stroke-linecap="round" opacity="1" stroke-linejoin="round"/>
<path stroke="#000000" stroke-width="50.4897" d="M814.214+140.72L921.079+225.664" fill="none" stroke-linecap="round" opacity="1" stroke-linejoin="round"/>
<path stroke="#000000" stroke-width="50.4897" d="M918.339+43.4461L811.474+128.39" fill="none" stroke-linecap="round" opacity="1" stroke-linejoin="round"/>
<path stroke="#000000" stroke-width="50.4897" d="M1007.22+727.262L1170.14+842.764L1110.64+1033.41L910.939+1035.73L847.02+846.522L1007.22+727.262Z" fill="none" stroke-linecap="round" opacity="1" stroke-linejoin="round"/>
<path stroke="#000000" stroke-width="50.4897" d="M893.623+460.674L956.234+650.321L795.217+768.472L633.092+651.846L693.91+461.617L893.623+460.674Z" fill="none" stroke-linecap="round" opacity="1" stroke-linejoin="round"/>
<path stroke="#000000" stroke-width="50.4897" d="M673.414+1043.44L473.746+1039.1L416.177+847.86L580.265+734.013L739.246+854.889L673.414+1043.44Z" fill="none" stroke-linecap="round" opacity="1" stroke-linejoin="round"/>
<path stroke="#000000" stroke-width="50.4897" d="M471.699+590.786C471.699+577.544+484.273+566.81+499.785+566.81C515.297+566.81+527.871+577.544+527.871+590.786C527.871+604.027+515.297+614.762+499.785+614.762C484.273+614.762+471.699+604.027+471.699+590.786Z" fill="none" stroke-linecap="round" opacity="1" stroke-linejoin="round"/>
<path stroke="#000000" stroke-width="50.4897" d="M756.672+1144.29C756.672+1131.05+769.246+1120.31+784.758+1120.31C800.269+1120.31+812.844+1131.05+812.844+1144.29C812.844+1157.53+800.269+1168.27+784.758+1168.27C769.246+1168.27+756.672+1157.53+756.672+1144.29Z" fill="none" stroke-linecap="round" opacity="1" stroke-linejoin="round"/>
<path stroke="#000000" stroke-width="50.4897" d="M1067.68+577.085C1067.68+563.843+1080.25+553.109+1095.76+553.109C1111.27+553.109+1123.85+563.843+1123.85+577.085C1123.85+590.327+1111.27+601.061+1095.76+601.061C1080.25+601.061+1067.68+590.327+1067.68+577.085Z" fill="none" stroke-linecap="round" opacity="1" stroke-linejoin="round"/>
<path stroke="#000000" stroke-width="1.36487" d="M452.518+1499.82C454.345+1504.39+454.926+1509.68+457.998+1513.52C471.528+1530.43+487.177+1545.54+501.84+1561.47C511.244+1571.7+520.79+1581.79+530.611+1591.62C532.438+1593.44+526.485+1588.34+525.131+1586.14C519.133+1576.39+513.809+1566.23+508.69+1555.99C501.929+1542.47+495.227+1528.89+489.51+1514.89C474.304+1477.66+462.494+1438.4+457.998+1398.44C456.16+1382.09+454.418+1365.41+456.628+1349.11C458.144+1337.94+463.156+1327.28+468.959+1317.6C471.638+1313.14+476.194+1309.09+481.289+1308.01C485.955+1307.03+491.698+1308.67+494.99+1312.12C501.913+1319.38+506.233+1328.89+510.061+1338.15C514.97+1350.04+518.359+1362.56+521.021+1375.15C523.401+1386.4+525.357+1397.9+525.131+1409.4C524.896+1421.41+523.45+1433.62+519.651+1445.02C516.926+1453.19+511.204+1460.11+505.95+1466.94C502.013+1472.06+497.672+1477.13+492.25+1480.64C489.539+1482.39+485.856+1481.55+482.659+1482.01" fill="none" stroke-linecap="round" opacity="1" stroke-linejoin="round"/>
<path stroke="#000000" stroke-width="1.36487" d="M610.075+1520.37C610.532+1516.26+613.688+1511.52+611.445+1508.04C589.846+1474.58+567.13+1441.48+540.202+1412.14C535.478+1406.99+526.629+1408.36+519.651+1408.03C514.158+1407.77+507.151+1415.08+508.69+1420.36C511.15+1428.79+515.973+1436.46+521.021+1443.65C531.103+1458.01+541.392+1472.45+553.903+1484.75C568.956+1499.55+584.024+1515.71+603.225+1524.48C617.401+1530.96+634.403+1530.98+649.807+1528.59C661.916+1526.71+673.164+1519.86+682.688+1512.15C692.778+1503.98+702.158+1493.91+707.349+1482.01C713.476+1467.97+715.338+1452.11+715.57+1436.8C715.801+1421.56+713.669+1406+708.719+1391.59C703.015+1374.97+693.464+1359.84+684.058+1345C672.86+1327.34+661.216+1309.72+647.067+1294.31C640.384+1287.04+632.04+1280.06+622.406+1277.87C618.815+1277.06+616.405+1283.82+616.925+1287.46C618.825+1300.76+623.249+1313.81+629.256+1325.82C639.799+1346.91+651.492+1367.72+666.248+1386.11C681.407+1405+697.348+1424.66+718.31+1436.8C733.581+1445.64+752.728+1446.13+770.372+1446.39C783.895+1446.59+797.226+1442.3+810.104+1438.17C821.585+1434.49+833.307+1430.29+842.986+1423.1C849.805+1418.03+854.771+1410.38+858.056+1402.55C860.904+1395.76+862.097+1387.87+860.796+1380.63C858.804+1369.52+853.353+1359.28+848.466+1349.11C841.912+1335.48+834.666+1322.14+826.545+1309.38C824.975+1306.92+818.507+1301.23+819.694+1303.9C822.627+1310.5+827.476+1316.11+832.025+1321.71C847.13+1340.33+860.887+1360.37+878.607+1376.52C897.245+1393.5+917.987+1408.53+940.26+1420.36C955.444+1428.42+972.725+1432.06+989.582+1435.43C1000.34+1437.58+1011.5+1437.16+1022.46+1436.8C1025.35+1436.7+1031.7+1436.76+1030.68+1434.06C1028.95+1429.43+1022.99+1427.54+1018.35+1425.84C1000.45+1419.26+982.296+1412.91+963.551+1409.4C938.271+1404.66+912.518+1402.43+886.827+1401.18C846.684+1399.23+806.452+1399.58+766.262+1399.81C725.607+1400.04+684.73+1398.03+644.327+1402.55C610.852+1406.29+576.813+1411.6+545.682+1424.47C520.51+1434.87+498.498+1452.51+478.549+1471.05C465.56+1483.12+457.02+1499.39+448.408+1514.89C445.449+1520.22+439.989+1528.39+444.298+1532.7C450.509+1538.91+461.606+1537.85+470.329+1536.81C492.659+1534.15+514.577+1528.29+536.092+1521.74C567.185+1512.28+597.55+1500.53+627.886+1488.86C668.808+1473.12+709.215+1456.07+749.821+1439.54C797.812+1420+845.035+1398.49+893.678+1380.63C939.637+1363.75+986.423+1349.12+1033.42+1335.41C1074.15+1323.54+1115.65+1314.51+1156.73+1303.9C1184.61+1296.7+1213.16+1291.6+1240.3+1281.98C1257.25+1275.98+1272.27+1265.54+1288.26+1257.32" fill="none" stroke-linecap="round" opacity="1" stroke-linejoin="round"/>
</g>
</svg>
