<?xml version="1.0" encoding="UTF-8" standalone="no"?> <!-- Created with Vectornator for iOS (http://vectornator.io/) --><!DOCTYPE svg PUBLIC "-//W3C//DTD SVG 1.1//EN" "http://www.w3.org/Graphics/SVG/1.1/DTD/svg11.dtd">
<svg height="100%" style="fill-rule:nonzero;clip-rule:evenodd;stroke-linecap:round;stroke-linejoin:round;" xmlns:xlink="http://www.w3.org/1999/xlink" xmlns="http://www.w3.org/2000/svg" xml:space="preserve" width="100%" xmlns:vectornator="http://vectornator.io" version="1.1" viewBox="0 0 1620 1620">
<metadata>
<vectornator:setting key="DimensionsVisible" value="1"/>
<vectornator:setting key="PencilOnly" value="0"/>
<vectornator:setting key="SnapToPoints" value="0"/>
<vectornator:setting key="OutlineMode" value="0"/>
<vectornator:setting key="GuidesVisible" value="1"/>
<vectornator:setting key="RulersVisible" value="1"/>
<vectornator:setting key="SnapToEdges" value="0"/>
<vectornator:setting key="CMYKEnabledKey" value="0"/>
<vectornator:setting key="DisplayWhiteBackground" value="0"/>
<vectornator:setting key="doHistoryDisabled" value="0"/>
<vectornator:setting key="SnapToGuides" value="1"/>
<vectornator:setting key="TimeLapseWatermarkDisabled" value="0"/>
<vectornator:setting key="DynamicGuides" value="0"/>
<vectornator:setting key="SnapToGrid" value="0"/>
<vectornator:setting key="Units" value="Pixels"/>
<vectornator:setting key="IsolateActiveLayer" value="0"/>
</metadata>
<defs/>
<g id="Layer 1" vectornator:layerName="Layer 1">
<path stroke="#000000" stroke-width="50.4007" d="M1011.15+1435.43L112.08+994.881" fill="none" stroke-linecap="round" opacity="1" stroke-linejoin="round"/>
<path stroke="#000000" stroke-width="50.4007" d="M1272.92+1101.9L768.638+1451.57" fill="none" stroke-linecap="round" opacity="1" stroke-linejoin="round"/>
<path stroke="#000000" stroke-width="50.4007" d="M1581.94+887.628L1272.92+1101.9" fill="none" stroke-linecap="round" opacity="1" stroke-linejoin="round"/>
<path stroke="#000000" stroke-width="1.13573" d="M1070.55+1557.01C1072.09+1560.61+1072.89+1564.62+1075.17+1567.8C1087.34+1584.75+1100.06+1601.34+1113.7+1617.12C1116.6+1620.47+1120.82+1622.38+1124.49+1624.83C1125.45+1625.47+1128.09+1627.4+1127.58+1626.37C1120.95+1613.12+1110.44+1602.15+1102.91+1589.38C1079.47+1549.63+1059.86+1507.31+1052.05+1461.45C1050.67+1453.34+1050.7+1444.89+1052.05+1436.78C1052.35+1434.96+1054.83+1433.5+1056.67+1433.7C1060.1+1434.08+1063.23+1436.17+1065.92+1438.33C1071.03+1442.41+1076.11+1446.8+1079.79+1452.2C1083.94+1458.28+1086.57+1465.31+1089.04+1472.24C1095.45+1490.19+1101.46+1514.5+1084.42+1529.27C1080.59+1532.58+1075.38+1533.92+1070.55+1535.43C1067.08+1536.52+1063.08+1538.45+1059.76+1536.97C1057.23+1535.85+1056.95+1532.02+1056.67+1529.27C1056.41+1526.66+1057.7+1524.13+1058.22+1521.56" fill="none" stroke-linecap="round" opacity="1" stroke-linejoin="round"/>
<path stroke="#000000" stroke-width="1.13573" d="M1192.31+1452.2C1179.86+1420.8+1160.38+1391.63+1136.82+1367.42C1130.16+1360.57+1123.06+1352.44+1113.7+1350.47C1109.65+1349.61+1107.54+1357.12+1107.54+1361.26C1107.54+1375.79+1109.29+1390.57+1113.7+1404.42C1120.69+1426.34+1128.42+1448.65+1141.45+1467.61C1151.55+1482.31+1165.16+1495.96+1181.52+1503.06C1194.25+1508.59+1209.73+1506.62+1223.14+1503.06C1235.83+1499.7+1247.63+1492.17+1257.05+1483.03C1266.15+1474.18+1273.44+1462.81+1277.09+1450.66C1281.38+1436.35+1283.29+1420.56+1280.17+1405.96C1276.39+1388.2+1265.85+1372.52+1257.05+1356.63C1247.31+1339.05+1238.13+1320.71+1224.68+1305.77C1218.99+1299.45+1205.59+1287.49+1201.56+1294.98C1193.52+1309.91+1199.52+1329.26+1203.1+1345.84C1209.38+1374.91+1217.76+1403.92+1230.85+1430.62C1244.21+1457.87+1258.67+1486.39+1281.71+1506.15C1296.77+1519.05+1318.93+1522.24+1338.74+1523.1C1355.68+1523.84+1372.91+1518.35+1388.07+1510.77C1404.43+1502.59+1419.8+1491.15+1431.23+1476.86C1441+1464.64+1446.92+1449.1+1449.72+1433.7C1452.21+1420.02+1450.22+1405.53+1446.64+1392.09C1443.91+1381.86+1439.02+1371.49+1431.23+1364.34C1425.71+1359.29+1417.1+1357.48+1409.65+1358.18C1399.77+1359.1+1390.28+1363.64+1381.9+1368.96C1346.41+1391.51+1314.08+1418.79+1278.63+1441.41C1254.4+1456.87+1229.12+1470.81+1203.1+1483.03C1178.66+1494.5+1152.82+1502.73+1127.58+1512.31C1112.23+1518.14+1096.32+1522.56+1081.34+1529.27C1076.65+1531.37+1069.57+1533.41+1069+1538.52C1068.57+1542.4+1075.89+1542.91+1079.79+1543.14C1093.65+1543.95+1108.06+1545.39+1121.41+1541.6C1143.09+1535.45+1163.22+1524.54+1183.07+1513.85C1210.06+1499.32+1236.46+1483.53+1261.68+1466.07C1329.35+1419.22+1391.09+1363.87+1460.51+1319.64C1485.13+1303.95+1512.15+1292.37+1537.58+1278.02C1557.01+1267.06+1575.44+1253.94+1596.15+1245.66" fill="none" stroke-linecap="round" opacity="1" stroke-linejoin="round"/>
<path stroke="#000000" stroke-width="1.13573" d="M1159.95+1540.06C1148.01+1540.06+1150.18+1533.49+1142.99+1524.64C1134.73+1514.48+1125.15+1504.8+1113.7+1498.44C1110+1496.38+1105.53+1494.53+1101.37+1495.36C1099.12+1495.81+1098.29+1499.22+1098.29+1501.52C1098.29+1506.76+1099.4+1512.08+1101.37+1516.94C1105.1+1526.09+1109.32+1535.23+1115.25+1543.14C1121.79+1551.86+1129.25+1560.28+1138.37+1566.26C1146.11+1571.34+1155.33+1576.1+1164.57+1575.51C1172.84+1574.97+1180.54+1569.27+1186.15+1563.18C1192.84+1555.9+1197.36+1546.49+1200.02+1536.97C1203.64+1524.02+1205.86+1510.29+1204.65+1496.9C1203.25+1481.51+1198.01+1466.57+1192.31+1452.2" fill="none" stroke-linecap="round" opacity="1" stroke-linejoin="round"/>
<path stroke="#000000" stroke-width="50.4007" d="M345.54+1105.77L353.11+845.084" fill="none" stroke-linecap="round" opacity="1" stroke-linejoin="round"/>
<path stroke="#000000" stroke-width="50.4007" d="M479.174+1145.61L489.187+676.546" fill="none" stroke-linecap="round" opacity="1" stroke-linejoin="round"/>
<path stroke="#000000" stroke-width="50.4007" d="M619.846+1222.49L651.497+469.079" fill="none" stroke-linecap="round" opacity="1" stroke-linejoin="round"/>
<path stroke="#000000" stroke-width="50.4007" d="M1611.6+773.898C1193.32+765.064+860.947+437.667+869.233+42.6369C869.376+35.8421+869.618+29.0715+869.959+22.3264" fill="none" stroke-linecap="round" opacity="1" stroke-linejoin="round"/>
<path stroke="#000000" stroke-width="50.4007" d="M1579.51+557.939C1330.52+473.012+1142.61+269.591+1091.06+21.57" fill="none" stroke-linecap="round" opacity="1" stroke-linejoin="round"/>
<path stroke="#000000" stroke-width="50.4007" d="M1604.97+320.583C1482.86+244.746+1385.44+136.805+1326.04+9.86655" fill="none" stroke-linecap="round" opacity="1" stroke-linejoin="round"/>
<path stroke="#000000" stroke-width="50.4007" d="M1601.76+975.103C1504.27+960.746+1387.31+965.867+1298.93+934.718C846.941+775.413+622.677+434.473+612.917+21.2572" fill="none" stroke-linecap="round" opacity="1" stroke-linejoin="round"/>
<path stroke="#000000" stroke-width="50.4007" d="M1572.51+1181.85C1471.74+1174.42+1365.93+1170.47+1280.58+1141.6C702.763+946.103+410.652+531.861+387.971+28.1251" fill="none" stroke-linecap="round" opacity="1" stroke-linejoin="round"/>
<path stroke="#000000" stroke-width="50.4007" d="M751.219+291.812L124.812+1152.19L751.219+291.812Z" fill="none" stroke-linecap="round" opacity="1" stroke-linejoin="round"/>
<path stroke="#000000" stroke-width="50.4007" d="M495.072+283.319L1523.08+397.356" fill="none" stroke-linecap="round" opacity="1" stroke-linejoin="round"/>
<path stroke="#000000" stroke-width="50.4007" d="M1575.63+1097.15L1353.14+291.761" fill="none" stroke-linecap="round" opacity="1" stroke-linejoin="round"/>
<path stroke="#000000" stroke-width="50.4007" d="M766.231+1287.49L805.795+319.192" fill="none" stroke-linecap="round" opacity="1" stroke-linejoin="round"/>
<path stroke="#000000" stroke-width="50.4007" d="M904.703+1320.65L950.861+337.762" fill="none" stroke-linecap="round" opacity="1" stroke-linejoin="round"/>
<path stroke="#000000" stroke-width="50.4007" d="M1062.96+1225.15L1101.2+347.047" fill="none" stroke-linecap="round" opacity="1" stroke-linejoin="round"/>
<path stroke="#000000" stroke-width="50.4007" d="M1227.8+1103.11L1255.5+370.923" fill="none" stroke-linecap="round" opacity="1" stroke-linejoin="round"/>
<path stroke="#000000" stroke-width="50.4007" d="M1386.06+991.693L1404.52+504.893" fill="none" stroke-linecap="round" opacity="1" stroke-linejoin="round"/>
</g>
</svg>
