<?xml version="1.0" encoding="UTF-8" standalone="no"?> <!-- Created with Vectornator for iOS (http://vectornator.io/) --><!DOCTYPE svg PUBLIC "-//W3C//DTD SVG 1.1//EN" "http://www.w3.org/Graphics/SVG/1.1/DTD/svg11.dtd">
<svg height="100%" style="fill-rule:nonzero;clip-rule:evenodd;stroke-linecap:round;stroke-linejoin:round;" xmlns:xlink="http://www.w3.org/1999/xlink" xmlns="http://www.w3.org/2000/svg" xml:space="preserve" width="100%" xmlns:vectornator="http://vectornator.io" version="1.1" viewBox="0 0 1620 1620">
<metadata>
<vectornator:setting key="DimensionsVisible" value="1"/>
<vectornator:setting key="PencilOnly" value="0"/>
<vectornator:setting key="SnapToPoints" value="0"/>
<vectornator:setting key="OutlineMode" value="0"/>
<vectornator:setting key="CMYKEnabledKey" value="0"/>
<vectornator:setting key="RulersVisible" value="1"/>
<vectornator:setting key="SnapToEdges" value="0"/>
<vectornator:setting key="GuidesVisible" value="1"/>
<vectornator:setting key="DisplayWhiteBackground" value="0"/>
<vectornator:setting key="doHistoryDisabled" value="0"/>
<vectornator:setting key="SnapToGuides" value="1"/>
<vectornator:setting key="TimeLapseWatermarkDisabled" value="0"/>
<vectornator:setting key="DynamicGuides" value="0"/>
<vectornator:setting key="SnapToGrid" value="0"/>
<vectornator:setting key="IsolateActiveLayer" value="0"/>
<vectornator:setting key="Units" value="Pixels"/>
</metadata>
<defs/>
<g id="Layer 1" vectornator:layerName="Layer 1">
<path stroke="#000000" stroke-width="50.4007" d="M34.9878+1406L1591.28+1409.07" fill="none" stroke-linecap="round" opacity="1" stroke-linejoin="round"/>
<path stroke="#000000" stroke-width="50.4007" d="M80+1586L80+72" fill="none" stroke-linecap="round" opacity="1" stroke-linejoin="round"/>
<path stroke="#000000" stroke-width="50.4007" d="M1581.14+1402L1508.14+1344" fill="none" stroke-linecap="round" opacity="1" stroke-linejoin="round"/>
<path stroke="#000000" stroke-width="50.4007" d="M153+156L85+55" fill="none" stroke-linecap="round" opacity="1" stroke-linejoin="round"/>
<path stroke="#000000" stroke-width="50.4007" d="M1516.25+1466L1585.2+1417" fill="none" stroke-linecap="round" opacity="1" stroke-linejoin="round"/>
<path stroke="#000000" stroke-width="50.4007" d="M28.3694+152.818L83+58" fill="none" stroke-linecap="round" opacity="1" stroke-linejoin="round"/>
<path stroke="#000000" stroke-width="50.4007" d="M139.009+1347.64C233.556+1347.64+268.748+1174.1+275.341+1104.88C299.004+856.414+223.218+569.047+287.3+328.74C313.589+230.156+470.378+28.7833+555.18+198.387" fill="none" stroke-linecap="round" opacity="1" stroke-linejoin="round"/>
<path stroke="#000000" stroke-width="50.4007" d="M1437.75+1351.23C1343.2+1351.23+1308.01+1177.69+1301.42+1108.46C1277.76+860.002+1353.54+572.635+1289.46+332.327C1263.17+233.743+1106.38+32.371+1021.58+201.975" fill="none" stroke-linecap="round" opacity="1" stroke-linejoin="round"/>
<path stroke="#000000" stroke-width="50.4007" d="M558.768+200.779C627.74+338.723+648.343+560.365+671.182+712.622C738.186+1159.32+1044.01+1320.14+1437.75+1320.14" fill="none" stroke-linecap="round" opacity="1" stroke-linejoin="round"/>
<path stroke="#000000" stroke-width="50.4007" d="M1017.99+204.367C949.02+342.31+928.416+563.953+905.577+716.21C838.573+1162.91+532.749+1323.72+139.009+1323.72" fill="none" stroke-linecap="round" opacity="1" stroke-linejoin="round"/>
<path stroke="#000000" stroke-width="50.4007" d="M144.988+1357.21C198.018+1463.27+442.025+1250.93+465.488+1176.63C530.756+969.948+493.03+134.164+759.678+107.499C938.932+89.5739+1013.61+454.312+1021.58+573.898C1031.37+720.753+1002.13+1275.13+1159.11+1353.62C1245.63+1396.89+1387.46+1372.76+1482+1372.76" fill="none" stroke-linecap="round" opacity="1" stroke-linejoin="round"/>
<path stroke="#000000" stroke-width="50.4007" d="M209.566+1411.46C205.514+1419.57+213.154+1437.88+213.154+1447.34" fill="none" stroke-linecap="round" opacity="1" stroke-linejoin="round"/>
<path stroke="#000000" stroke-width="50.4007" d="M446.354+1423.42C442.301+1431.52+449.941+1449.84+449.941+1459.3" fill="none" stroke-linecap="round" opacity="1" stroke-linejoin="round"/>
<path stroke="#000000" stroke-width="50.4007" d="M658.027+1425.81C653.974+1433.92+661.615+1452.23+661.615+1461.69" fill="none" stroke-linecap="round" opacity="1" stroke-linejoin="round"/>
<path stroke="#000000" stroke-width="50.4007" d="M855.35+1423.42C851.297+1431.52+858.937+1449.84+858.937+1459.3" fill="none" stroke-linecap="round" opacity="1" stroke-linejoin="round"/>
<path stroke="#000000" stroke-width="50.4007" d="M1050.28+1422.22C1046.23+1430.33+1053.87+1448.65+1053.87+1458.1" fill="none" stroke-linecap="round" opacity="1" stroke-linejoin="round"/>
<path stroke="#000000" stroke-width="50.4007" d="M1244.02+1423.42C1239.96+1431.52+1247.6+1449.84+1247.6+1459.3" fill="none" stroke-linecap="round" opacity="1" stroke-linejoin="round"/>
<path stroke="#000000" stroke-width="50.4007" d="M1435.36+1419.83C1431.31+1427.94+1438.95+1446.25+1438.95+1455.71" fill="none" stroke-linecap="round" opacity="1" stroke-linejoin="round"/>
<path stroke="#000000" stroke-width="50.4007" d="M325.568+1416.24C321.515+1424.35+329.156+1442.67+329.156+1452.12" fill="none" stroke-linecap="round" opacity="1" stroke-linejoin="round"/>
<path stroke="#000000" stroke-width="50.4007" d="M550.396+1423.42C546.344+1431.52+553.984+1449.84+553.984+1459.3" fill="none" stroke-linecap="round" opacity="1" stroke-linejoin="round"/>
<path stroke="#000000" stroke-width="50.4007" d="M766.853+1431.79C762.801+1439.9+770.441+1458.21+770.441+1467.67" fill="none" stroke-linecap="round" opacity="1" stroke-linejoin="round"/>
<path stroke="#000000" stroke-width="50.4007" d="M961.784+1430.59C957.732+1438.7+965.372+1457.02+965.372+1466.47" fill="none" stroke-linecap="round" opacity="1" stroke-linejoin="round"/>
<path stroke="#000000" stroke-width="50.4007" d="M1155.52+1431.79C1151.47+1439.9+1159.11+1458.21+1159.11+1467.67" fill="none" stroke-linecap="round" opacity="1" stroke-linejoin="round"/>
<path stroke="#000000" stroke-width="50.4007" d="M1346.86+1428.2C1342.81+1436.31+1350.45+1454.63+1350.45+1464.08" fill="none" stroke-linecap="round" opacity="1" stroke-linejoin="round"/>
<path stroke="#000000" stroke-width="1.42699" d="M907.969+1483.81C906+1451.82+949.407+1590.07+958.197+1581.28C981.325+1558.15+866.771+1296.44+945.042+1299.05C1009.96+1301.21+985.708+1431.56+984.506+1452.12C982.835+1480.71+911.551+1542+907.969+1483.81Z" fill="none" stroke-linecap="round" opacity="1" stroke-linejoin="round"/>
<path stroke="#000000" stroke-width="1.42699" d="M1022.78+1539.42C1014.81+1531.46+1004.21+1439.28+976.135+1453.32C953.765+1464.5+1007.62+1600.45+1050.28+1560.95C1102.13+1512.94+1088.94+1373.42+1083.77+1313.4C1082.03+1293.26+1079.72+1238.18+1068.22+1254.8C1039.3+1296.57+1071.32+1488.7+1143.56+1472.45C1200.43+1459.65+1226.98+1290.6+1197.38+1253.6C1181.34+1233.56+1189+1304.47+1189+1330.14C1189+1371.15+1184.43+1451.13+1235.64+1470.06C1298.07+1493.13+1380.77+1394.37+1371.98+1336.12C1351.29+1199.07+983.88+1435.29+939.062+1479.63C922.575+1495.94+888.061+1536.64+910.361+1543.01C1060.82+1586+1417.64+1273.29+1638.66+1297.85" fill="none" stroke-linecap="round" opacity="1" stroke-linejoin="round"/>
</g>
</svg>
