<?xml version="1.0" encoding="UTF-8" standalone="no"?> <!-- Created with Vectornator for iOS (http://vectornator.io/) --><!DOCTYPE svg PUBLIC "-//W3C//DTD SVG 1.1//EN" "http://www.w3.org/Graphics/SVG/1.1/DTD/svg11.dtd">
<svg height="100%" style="fill-rule:nonzero;clip-rule:evenodd;stroke-linecap:round;stroke-linejoin:round;" xmlns:xlink="http://www.w3.org/1999/xlink" xmlns="http://www.w3.org/2000/svg" xml:space="preserve" width="100%" xmlns:vectornator="http://vectornator.io" version="1.1" viewBox="0 0 1620 1620">
<metadata>
<vectornator:setting key="DimensionsVisible" value="1"/>
<vectornator:setting key="PencilOnly" value="0"/>
<vectornator:setting key="SnapToPoints" value="0"/>
<vectornator:setting key="GuidesVisible" value="1"/>
<vectornator:setting key="RulersVisible" value="1"/>
<vectornator:setting key="OutlineMode" value="0"/>
<vectornator:setting key="SnapToEdges" value="0"/>
<vectornator:setting key="CMYKEnabledKey" value="0"/>
<vectornator:setting key="DisplayWhiteBackground" value="0"/>
<vectornator:setting key="doHistoryDisabled" value="0"/>
<vectornator:setting key="TimeLapseWatermarkDisabled" value="0"/>
<vectornator:setting key="SnapToGuides" value="1"/>
<vectornator:setting key="Units" value="Pixels"/>
<vectornator:setting key="SnapToGrid" value="0"/>
<vectornator:setting key="DynamicGuides" value="0"/>
<vectornator:setting key="IsolateActiveLayer" value="0"/>
</metadata>
<defs/>
<g id="Layer 1" vectornator:layerName="Layer 1">
<path stroke="#000000" stroke-width="50.4007" d="M122+148L121+1587" fill="none" stroke-linecap="round" opacity="1" stroke-linejoin="round"/>
<path stroke="#000000" stroke-width="50.4007" d="M24+1001L1539.58+1002.88" fill="none" stroke-linecap="round" opacity="1" stroke-linejoin="round"/>
<path stroke="#000000" stroke-width="50.4007" d="M1549.15+1013.2L1416.76+1087.06" fill="none" stroke-linecap="round" opacity="1" stroke-linejoin="round"/>
<path stroke="#000000" stroke-width="50.4007" d="M119.607+75.0068L191.401+208.529" fill="none" stroke-linecap="round" opacity="1" stroke-linejoin="round"/>
<path stroke="#000000" stroke-width="50.4007" d="M1420.21+924.318L1550.59+1001.63" fill="none" stroke-linecap="round" opacity="1" stroke-linejoin="round"/>
<path stroke="#000000" stroke-width="50.4007" d="M40.275+204.179L119.607+75.0068" fill="none" stroke-linecap="round" opacity="1" stroke-linejoin="round"/>
<path stroke="#000000" stroke-width="50.4007" d="M131.09+911.779C615.065+911.779+366.945+75.232+865.702+125.108C1279.3+166.468+747.645+949.377+1416.66+949.377" fill="none" stroke-linecap="round" opacity="1" stroke-linejoin="round"/>
<path stroke="#000000" stroke-width="50.4007" d="M230.87+1018.79L316.189+1018.79L316.189+1148.94L230.87+1148.94L230.87+1018.79Z" fill="none" stroke-linecap="round" opacity="1" stroke-linejoin="round"/>
<path stroke="#000000" stroke-width="50.4007" d="M531.656+1034.7L618.374+1034.7L618.374+1344.64L531.656+1344.64L531.656+1034.7Z" fill="none" stroke-linecap="round" opacity="1" stroke-linejoin="round"/>
<path stroke="#000000" stroke-width="50.4007" d="M376.925+1023.13L466.212+1023.13L466.212+1386.33L376.925+1386.33L376.925+1023.13Z" fill="none" stroke-linecap="round" opacity="1" stroke-linejoin="round"/>
<path stroke="#000000" stroke-width="50.4007" d="M1162.15+1027.47L1247.47+1027.47L1247.47+1119L1162.15+1119L1162.15+1027.47Z" fill="none" stroke-linecap="round" opacity="1" stroke-linejoin="round"/>
<path stroke="#000000" stroke-width="50.4007" d="M1008.86+1023.13L1092.66+1023.13L1092.66+1175.85L1008.86+1175.85L1008.86+1023.13Z" fill="none" stroke-linecap="round" opacity="1" stroke-linejoin="round"/>
<path stroke="#000000" stroke-width="50.4007" d="M849.795+1028.91L939.09+1028.91L939.09+1493.3L849.795+1493.3L849.795+1028.91Z" fill="none" stroke-linecap="round" opacity="1" stroke-linejoin="round"/>
<path stroke="#000000" stroke-width="50.4007" d="M683.495+1033.25L775.111+1033.25L775.111+1575.54L683.495+1575.54L683.495+1033.25Z" fill="none" stroke-linecap="round" opacity="1" stroke-linejoin="round"/>
<path stroke="#000000" stroke-width="50.4007" d="M324.866+858.6L323.419+969.623" fill="none" stroke-linecap="round" opacity="1" stroke-linejoin="round"/>
<path stroke="#000000" stroke-width="50.4007" d="M493.36+515.95L485.381+973.961" fill="none" stroke-linecap="round" opacity="1" stroke-linejoin="round"/>
<path stroke="#000000" stroke-width="50.4007" d="M1046.46+651.483L1045.02+982.637" fill="none" stroke-linecap="round" opacity="1" stroke-linejoin="round"/>
<path stroke="#000000" stroke-width="50.4007" d="M1179.5+908.887L1178.06+971.069" fill="none" stroke-linecap="round" opacity="1" stroke-linejoin="round"/>
<path d="M387.656+798.219C382.766+798.493+378.106+801.103+375.406+805.625C371.087+812.86+373.452+822.212+380.688+826.531C412.983+845.812+445.267+865.094+477.562+884.375C484.798+888.694+494.149+886.36+498.469+879.125C502.788+871.89+500.422+862.507+493.188+858.188C460.892+838.906+428.609+819.625+396.312+800.344C393.599+798.724+390.59+798.054+387.656+798.219Z" opacity="1" fill="#000000"/>
<path d="M360.156+849.719C355.087+850.003+350.236+852.718+347.438+857.406C342.959+864.907+345.406+874.616+352.906+879.094C385.202+898.375+417.517+917.657+449.812+936.938C457.313+941.416+467.022+938.969+471.5+931.469C475.978+923.968+473.501+914.259+466+909.781C433.704+890.5+401.421+871.219+369.125+851.938C366.312+850.258+363.198+849.548+360.156+849.719Z" opacity="1" fill="#000000"/>
<path d="M395.688+735.062C390.488+735.076+385.399+737.578+382.281+742.219C377.293+749.644+379.263+759.73+386.688+764.719C417.537+785.446+448.4+806.148+479.25+826.875C486.675+831.864+496.73+829.894+501.719+822.469C506.707+815.044+504.737+804.989+497.312+800C466.463+779.273+435.6+758.54+404.75+737.812C401.966+735.942+398.807+735.055+395.688+735.062Z" opacity="1" fill="#000000"/>
<path d="M333.531+900.312C328.454+900.325+323.451+902.749+320.406+907.281C315.534+914.532+317.468+924.378+324.719+929.25C355.569+949.977+386.431+970.71+417.281+991.438C424.532+996.309+434.347+994.376+439.219+987.125C444.091+979.874+442.157+970.028+434.906+965.156C404.056+944.429+373.225+923.727+342.375+903C339.656+901.173+336.578+900.305+333.531+900.312Z" opacity="1" fill="#000000"/>
<path d="M434.031+695.531C429.138+695.312+424.203+697.46+421.062+701.688C416.038+708.452+417.455+718.006+424.219+723.031C441.09+735.564+457.973+748.092+474.844+760.625C481.608+765.65+491.163+764.233+496.188+757.469C501.212+750.705+499.795+741.15+493.031+736.125C476.16+723.592+459.277+711.064+442.406+698.531C439.87+696.647+436.967+695.663+434.031+695.531Z" opacity="1" fill="#000000"/>
<path d="M197.375+908.562C192.255+908.127+187.032+910.169+183.562+914.469C168.242+933.452+152.914+952.423+137.594+971.406C132.042+978.286+133.121+988.386+140+993.938C146.879+999.489+156.948+998.411+162.5+991.531C177.82+972.548+193.149+953.545+208.469+934.562C214.021+927.683+212.942+917.614+206.062+912.062C203.483+909.981+200.447+908.824+197.375+908.562Z" opacity="1" fill="#000000"/>
<path d="M300.969+899.062C295.646+899.014+290.403+901.506+287.156+906.219C273.317+926.307+259.464+946.412+245.625+966.5C240.43+974.041+242.334+984.368+249.875+989.562C257.416+994.757+267.743+992.853+272.938+985.312C286.776+965.224+300.599+945.12+314.438+925.031C319.632+917.49+317.728+907.164+310.188+901.969C307.36+900.021+304.162+899.091+300.969+899.062Z" opacity="1" fill="#000000"/>
<path d="M251.844+891.844C246.521+891.79+241.283+894.291+238.031+899C224.17+919.073+210.298+939.145+196.438+959.219C191.234+966.754+193.121+977.078+200.656+982.281C208.191+987.484+218.516+985.598+223.719+978.062C237.58+957.989+251.452+937.917+265.312+917.844C270.516+910.309+268.629+899.985+261.094+894.781C258.268+892.83+255.037+891.876+251.844+891.844Z" opacity="1" fill="#000000"/>
<path d="M1105.44+821.438C1100.12+821.543+1094.95+824.226+1091.84+829.031C1075.94+853.615+1060.03+878.198+1044.12+902.781C1039.15+910.469+1041.34+920.713+1049.03+925.688C1056.72+930.662+1066.96+928.469+1071.94+920.781C1087.84+896.198+1103.78+871.615+1119.69+847.031C1124.66+839.343+1122.44+829.068+1114.75+824.094C1111.87+822.228+1108.63+821.374+1105.44+821.438Z" opacity="1" fill="#000000"/>
<path d="M1146.84+859.062C1141.52+858.878+1136.21+861.246+1132.84+865.875C1109.71+897.689+1086.54+929.499+1063.41+961.312C1058.02+968.718+1059.69+979.083+1067.09+984.469C1074.5+989.855+1084.86+988.218+1090.25+980.812C1113.39+948.999+1136.52+917.189+1159.66+885.375C1165.04+877.969+1163.41+867.605+1156+862.219C1153.22+860.199+1150.04+859.173+1146.84+859.062Z" opacity="1" fill="#000000"/>
<path d="M1177.84+898.125C1172.54+897.738+1167.13+899.909+1163.59+904.406C1145.76+927.062+1127.9+949.72+1110.06+972.375C1104.4+979.57+1105.65+989.992+1112.84+995.656C1120.04+1001.32+1130.46+1000.1+1136.12+992.906C1153.96+970.251+1171.79+947.593+1189.62+924.938C1195.29+917.742+1194.07+907.32+1186.88+901.656C1184.18+899.532+1181.03+898.357+1177.84+898.125Z" opacity="1" fill="#000000"/>
<path d="M1233+929.906C1228.76+929.906+1224.52+931.512+1221.28+934.75C1214.81+941.225+1214.81+951.744+1221.28+958.219C1229.48+966.413+1237.68+974.587+1245.88+982.781C1252.35+989.256+1262.84+989.256+1269.31+982.781C1275.79+976.306+1275.79+965.819+1269.31+959.344C1261.12+951.149+1252.91+942.944+1244.72+934.75C1241.48+931.512+1237.24+929.906+1233+929.906Z" opacity="1" fill="#000000"/>
<path d="M1294.5+931.375C1290.26+931.182+1285.94+932.6+1282.56+935.688C1275.8+941.862+1275.33+952.363+1281.5+959.125C1291.62+970.212+1301.75+981.289+1311.88+992.375C1318.05+999.137+1328.52+999.612+1335.28+993.438C1342.04+987.263+1342.52+976.762+1336.34+970C1326.22+958.913+1316.12+947.837+1306+936.75C1302.91+933.369+1298.74+931.568+1294.5+931.375Z" opacity="1" fill="#000000"/>
<path d="M1384.94+941.469C1381.74+941.449+1378.51+942.345+1375.66+944.25C1368.04+949.329+1365.98+959.631+1371.06+967.25C1375.88+974.48+1380.68+981.707+1385.5+988.938C1390.58+996.557+1400.88+998.611+1408.5+993.531C1416.12+988.452+1418.17+978.182+1413.09+970.562C1408.27+963.332+1403.48+956.074+1398.66+948.844C1395.48+944.082+1390.26+941.502+1384.94+941.469Z" opacity="1" fill="#000000"/>
<path stroke="#000000" stroke-width="1.42699" d="M1001.49+1386.01C999.836+1387.24+1002.42+1390.42+1004.1+1391.64C1013.46+1398.42+1023.91+1403.56+1033.86+1409.47C1039.05+1412.55+1044.41+1415.35+1049.5+1418.59C1052.61+1420.56+1055.47+1422.92+1058.45+1425.09C1059.94+1426.18+1064.57+1429.16+1062.92+1428.34C1054.06+1423.97+1046.71+1417.03+1038.74+1411.18C1031.17+1405.63+1023.47+1400.24+1016.09+1394.43C1006.83+1387.15+997.473+1379.93+988.821+1371.93C981.189+1364.87+974.04+1357.26+967.33+1349.32C964.429+1345.89+961.778+1342.1+960.102+1337.93C959.125+1335.5+964.443+1333.11+966.91+1334C971.412+1335.61+975.383+1338.46+979.411+1341.04C991.623+1348.86+1003.53+1357.3+1014.43+1366.86C1017.91+1369.91+1021.57+1372.96+1024.09+1376.84C1025.57+1379.13+1026.4+1382.07+1026.08+1384.78C1025.89+1386.31+1024.19+1387.43+1022.75+1388C1020.48+1388.89+1017.91+1389.3+1015.51+1388.93C1010.79+1388.22+1005.32+1383.16+1001.49+1386.01Z" fill="none" stroke-linecap="round" opacity="1" stroke-linejoin="round"/>
<path stroke="#000000" stroke-width="1.42699" d="M1060.97+1383.43C1053.73+1387.61+1043.02+1374.3+1036.32+1371.07C1032.49+1369.23+1027.79+1367.7+1027.47+1370.35C1027.29+1371.85+1028.39+1373.27+1029.23+1374.52C1031.45+1377.81+1033.71+1381.15+1036.59+1383.89C1040.97+1388.06+1045.7+1391.94+1050.85+1395.11C1057.08+1398.94+1066.27+1402.72+1072.46+1398.84C1074.59+1397.5+1076.31+1395.04+1076.61+1392.55C1077.04+1389.02+1075.76+1385.42+1074.47+1382.11C1072.16+1376.17+1069.35+1370.37+1065.9+1365.01C1047.86+1337.07+1021.51+1318.13+994.054+1300.16C986.478+1295.2+979.101+1289.56+970.586+1286.48C969.011+1285.91+967.1+1289.16+967.819+1290.67C971.532+1298.47+976.745+1305.64+982.686+1311.91C994.04+1323.91+1005.83+1335.77+1019.41+1345.17C1030.94+1353.15+1043.71+1359.9+1057.25+1363.52C1065.1+1365.62+1073.69+1363.86+1081.55+1361.81C1086.99+1360.39+1092.73+1357.84+1096.14+1353.38C1099.2+1349.38+1099.77+1343.61+1099.27+1338.6C1098.44+1330.15+1095.45+1321.98+1092.26+1314.11C1083.34+1292.08+1070.07+1271.98+1057.07+1252.08C1051.22+1243.11+1044.91+1234.44+1038.63+1225.77C1037.4+1224.07+1033.08+1219.51+1034.57+1220.98C1040.07+1226.39+1044.91+1232.47+1050.67+1237.62C1063.73+1249.31+1076.04+1262.2+1090.95+1271.42C1102.96+1278.85+1116.57+1283.95+1130.37+1286.91C1137.59+1288.45+1145.19+1286.25+1152.37+1284.57C1156.02+1283.72+1161.24+1283.01+1162.38+1279.44C1163.58+1275.68+1160.12+1271.58+1157.45+1268.67C1152.29+1263.02+1145.93+1258.53+1139.48+1254.4C1130.78+1248.83+1121.74+1243.64+1112.18+1239.7C1101.77+1235.4+1091.08+1230.98+1079.88+1229.82C1070.62+1228.86+1059.98+1228.4+1052.18+1233.5C1044.33+1238.64+1040.93+1248.79+1037.53+1257.53C1032.92+1269.38+1031.53+1282.24+1028.44+1294.56C1025.24+1307.27+1022.11+1320+1018.66+1332.64C1015.03+1345.92+1010.77+1359.03+1007.21+1372.33C1004.34+1383.07+1000.4+1393.68+999.354+1404.75C998.732+1411.36+998.099+1419.31+1002.3+1424.45C1005.43+1428.28+1012.83+1428.97+1017.01+1426.33C1026.52+1420.34+1033.25+1410.5+1039.39+1401.08C1049.17+1386.07+1056.79+1369.72+1064.45+1353.53C1075.1+1331.02+1083.02+1307.26+1094.28+1285.06C1105.1+1263.75+1117.32+1243.13+1130.56+1223.24C1140.29+1208.63+1151.64+1195.14+1163.03+1181.78C1182.38+1159.11+1204.89+1139.85+1225.91+1118.87" fill="none" stroke-linecap="round" opacity="1" stroke-linejoin="round"/>
</g>
</svg>
