<?xml version="1.0" encoding="UTF-8" standalone="no"?> <!-- Created with Vectornator for iOS (http://vectornator.io/) --><!DOCTYPE svg PUBLIC "-//W3C//DTD SVG 1.1//EN" "http://www.w3.org/Graphics/SVG/1.1/DTD/svg11.dtd">
<svg height="100%" style="fill-rule:nonzero;clip-rule:evenodd;stroke-linecap:round;stroke-linejoin:round;" xmlns:xlink="http://www.w3.org/1999/xlink" xmlns="http://www.w3.org/2000/svg" xml:space="preserve" width="100%" xmlns:vectornator="http://vectornator.io" version="1.1" viewBox="0 0 1620 1620">
<metadata>
<vectornator:setting key="DimensionsVisible" value="1"/>
<vectornator:setting key="PencilOnly" value="0"/>
<vectornator:setting key="SnapToPoints" value="0"/>
<vectornator:setting key="GuidesVisible" value="1"/>
<vectornator:setting key="RulersVisible" value="1"/>
<vectornator:setting key="OutlineMode" value="0"/>
<vectornator:setting key="SnapToEdges" value="0"/>
<vectornator:setting key="CMYKEnabledKey" value="0"/>
<vectornator:setting key="DisplayWhiteBackground" value="0"/>
<vectornator:setting key="doHistoryDisabled" value="0"/>
<vectornator:setting key="SnapToGuides" value="1"/>
<vectornator:setting key="TimeLapseWatermarkDisabled" value="0"/>
<vectornator:setting key="DynamicGuides" value="0"/>
<vectornator:setting key="IsolateActiveLayer" value="0"/>
<vectornator:setting key="SnapToGrid" value="0"/>
<vectornator:setting key="Units" value="Pixels"/>
</metadata>
<defs/>
<g id="Layer 1" vectornator:layerName="Layer 1">
<path stroke="#000000" stroke-width="50.4007" d="M97.9667+1204.83L1002.97+49.8291" fill="none" stroke-linecap="round" opacity="1" stroke-linejoin="round"/>
<path stroke="#000000" stroke-width="50.4007" d="M640.456+1550.4L1545.46+395.399" fill="none" stroke-linecap="round" opacity="1" stroke-linejoin="round"/>
<path stroke="#000000" stroke-width="50.4007" d="M303+1411L376+1323" fill="none" stroke-linecap="round" opacity="1" stroke-linejoin="round"/>
<path stroke="#000000" stroke-width="50.4007" d="M477+1205L550+1117" fill="none" stroke-linecap="round" opacity="1" stroke-linejoin="round"/>
<path stroke="#000000" stroke-width="50.4007" d="M654+984L727+896" fill="none" stroke-linecap="round" opacity="1" stroke-linejoin="round"/>
<path stroke="#000000" stroke-width="50.4007" d="M832+751L905+663" fill="none" stroke-linecap="round" opacity="1" stroke-linejoin="round"/>
<path stroke="#000000" stroke-width="50.4007" d="M1008+527L1081+439" fill="none" stroke-linecap="round" opacity="1" stroke-linejoin="round"/>
<path stroke="#000000" stroke-width="50.4007" d="M1165+327L1238+239" fill="none" stroke-linecap="round" opacity="1" stroke-linejoin="round"/>
<path stroke="#000000" stroke-width="50.4007" d="M1327+1143L1230.87+976.5L1423.13+976.5L1327+1143Z" fill="none" stroke-linecap="round" opacity="1" stroke-linejoin="round"/>
<path stroke="#000000" stroke-width="50.4007" d="M1352+774L1255.87+607.5L1448.13+607.5L1352+774Z" fill="none" stroke-linecap="round" opacity="1" stroke-linejoin="round"/>
<path stroke="#000000" stroke-width="50.4007" d="M741+1546L644.871+1379.5L837.129+1379.5L741+1546Z" fill="none" stroke-linecap="round" opacity="1" stroke-linejoin="round"/>
<path stroke="#000000" stroke-width="50.4007" d="M1014+1558L917.871+1391.5L1110.13+1391.5L1014+1558Z" fill="none" stroke-linecap="round" opacity="1" stroke-linejoin="round"/>
<path stroke="#000000" stroke-width="50.4007" d="M1494+1319L1397.87+1152.5L1590.13+1152.5L1494+1319Z" fill="none" stroke-linecap="round" opacity="1" stroke-linejoin="round"/>
<path stroke="#000000" stroke-width="50.4007" d="M1411+1571.45L1314.87+1404.95L1507.13+1404.95L1411+1571.45Z" fill="none" stroke-linecap="round" opacity="1" stroke-linejoin="round"/>
<path stroke="#000000" stroke-width="50.4007" d="M128.049+234.855L59.2479+201.722L42.2554+127.273L89.8674+67.5699L166.231+67.5699L213.843+127.273L196.85+201.722L128.049+234.855Z" fill="none" stroke-linecap="round" opacity="1" stroke-linejoin="round"/>
<path stroke="#000000" stroke-width="50.4007" d="M424.081+466.993L355.279+433.86L338.287+359.411L385.899+299.707L462.262+299.707L509.874+359.411L492.882+433.86L424.081+466.993Z" fill="none" stroke-linecap="round" opacity="1" stroke-linejoin="round"/>
<path stroke="#000000" stroke-width="50.4007" d="M458.676+836.73L389.875+803.597L372.882+729.148L420.494+669.444L496.858+669.444L544.469+729.148L527.477+803.597L458.676+836.73Z" fill="none" stroke-linecap="round" opacity="1" stroke-linejoin="round"/>
<path stroke="#000000" stroke-width="50.4007" d="M385.236+203.342L316.435+170.21L299.442+95.7606L347.054+36.0572L423.418+36.0572L471.029+95.7606L454.037+170.21L385.236+203.342Z" fill="none" stroke-linecap="round" opacity="1" stroke-linejoin="round"/>
<path stroke="#000000" stroke-width="50.4007" d="M636.073+233.708L567.272+200.575L550.279+126.126L597.891+66.4226L674.255+66.4226L721.866+126.126L704.874+200.575L636.073+233.708Z" fill="none" stroke-linecap="round" opacity="1" stroke-linejoin="round"/>
<path stroke="#000000" stroke-width="50.4007" d="M131.528+507.863L62.7273+474.73L45.7348+400.281L93.3467+340.578L169.71+340.578L217.322+400.281L200.33+474.73L131.528+507.863Z" fill="none" stroke-linecap="round" opacity="1" stroke-linejoin="round"/>
<path stroke="#000000" stroke-width="50.4007" d="M120+931.455L51.1988+898.322L34.2063+823.873L81.8183+764.169L158.182+764.169L205.794+823.873L188.801+898.322L120+931.455Z" fill="none" stroke-linecap="round" opacity="1" stroke-linejoin="round"/>
<path stroke="#000000" stroke-width="1.21839" d="M653.396+1150.86C652.984+1152.1+651.687+1153.35+652.16+1154.57C658.394+1170.54+664.79+1186.57+673.168+1201.53C676.444+1207.38+681.878+1211.76+686.761+1216.36C688.925+1218.39+691.246+1221.79+694.176+1221.3C696.208+1220.96+694.676+1217.12+694.176+1215.12C692.185+1207.16+688.641+1199.63+686.761+1191.64C683.69+1178.59+681.293+1165.37+679.347+1152.1C673.881+1114.83+670.405+1077.25+668.225+1039.64C667.724+1031.01+667.476+1022.31+668.225+1013.69C668.326+1012.53+669.591+1010.85+670.697+1011.22C671.932+1011.63+671.689+1013.65+671.932+1014.93C673.339+1022.31+674.744+1029.71+675.64+1037.17C677.217+1050.32+677.838+1063.56+679.347+1076.72C681.665+1096.92+686.061+1116.94+686.761+1137.27C686.89+1141+687.312+1145.11+685.526+1148.39C684.463+1150.34+681.472+1151.5+679.347+1150.86C676.557+1150.02+674.415+1147.31+673.168+1144.68C670.601+1139.26+669.873+1133.15+668.225+1127.38" fill="none" stroke-linecap="round" opacity="1" stroke-linejoin="round"/>
<path stroke="#000000" stroke-width="1.21839" d="M743.606+1161.98C742.371+1162.81+741.04+1165.4+739.899+1164.45C737.489+1162.45+737.105+1158.8+736.192+1155.8C734.214+1149.3+732.978+1142.6+731.249+1136.03C723.484+1106.53+715.48+1074.47+699.119+1048.29C697.846+1046.26+695.342+1044.59+692.94+1044.59C691.704+1044.59+692.725+1047.08+692.94+1048.29C693.965+1054.1+694.742+1060.01+696.648+1065.59C700.528+1076.96+704.789+1088.26+710.241+1098.96C715.949+1110.16+721.371+1121.95+730.013+1131.09C736.228+1137.66+744.625+1142.91+753.492+1144.68C760.154+1146.01+767.472+1143.29+773.264+1139.74C780.715+1135.17+787.484+1128.8+791.801+1121.2C798.043+1110.22+801.574+1097.73+804.158+1085.37C807.378+1069.96+808.37+1054.13+809.101+1038.41C811.019+997.185+808.715+955.494+801.687+914.831C799.576+902.62+796.629+890.407+791.801+878.994C791.12+877.385+788.348+880.972+788.094+882.701C786.232+895.361+785.622+908.214+785.622+921.01C785.622+941.622+785.356+962.368+788.094+982.798C790.735+1002.5+794.02+1022.53+801.687+1040.88C805.856+1050.85+813.375+1060.11+822.695+1065.59C828.731+1069.14+837.022+1067.69+843.703+1065.59C851.992+1062.99+859.985+1058.32+865.946+1052C873.944+1043.52+879.767+1033+884.483+1022.34C889.335+1011.37+892.178+999.534+894.369+987.741C897.55+970.611+899.054+953.198+900.547+935.839C902.351+914.872+902.374+893.775+904.255+872.815C905.26+861.617+902.849+848.729+909.198+839.45C911.999+835.356+917.568+845.209+920.32+849.336C927.578+860.223+933.211+872.133+938.856+883.937C953.243+914.019+964.663+946.168+984.579+972.912C990.146+980.387+997.256+986.64+1004.35+992.684C1008.44+996.167+1023.31+1001.18+1017.94+1001.33C998.843+1001.88+980.11+995.859+961.1+993.92C939.727+991.739+918.317+989.496+896.84+988.977C867.188+988.259+837.393+987.4+807.866+990.212C776.652+993.185+744.864+996.169+715.184+1006.28C687.27+1015.78+661.489+1031.38+637.331+1048.29C619.91+1060.49+604.925+1076.2+591.608+1092.78C584.455+1101.69+575.745+1112.3+576.779+1123.67C577.413+1130.65+588.314+1133.43+595.315+1133.56C612.04+1133.86+628.958+1130.44+644.746+1124.91C670.488+1115.9+694.676+1102.86+718.891+1090.31C751.145+1073.59+783.164+1056.31+814.044+1037.17C850.366+1014.67+884.133+988.219+920.32+965.497C1001.21+914.709+1084.84+872.039+1172.41+834.507" fill="none" stroke-linecap="round" opacity="1" stroke-linejoin="round"/>
</g>
</svg>
