<?xml version="1.0" encoding="UTF-8" standalone="no"?> <!-- Created with Vectornator for iOS (http://vectornator.io/) --><!DOCTYPE svg PUBLIC "-//W3C//DTD SVG 1.1//EN" "http://www.w3.org/Graphics/SVG/1.1/DTD/svg11.dtd">
<svg height="100%" style="fill-rule:nonzero;clip-rule:evenodd;stroke-linecap:round;stroke-linejoin:round;" xmlns:xlink="http://www.w3.org/1999/xlink" xmlns="http://www.w3.org/2000/svg" xml:space="preserve" width="100%" xmlns:vectornator="http://vectornator.io" version="1.1" viewBox="0 0 1620 1620">
<metadata>
<vectornator:setting key="DimensionsVisible" value="1"/>
<vectornator:setting key="PencilOnly" value="0"/>
<vectornator:setting key="SnapToPoints" value="0"/>
<vectornator:setting key="GuidesVisible" value="1"/>
<vectornator:setting key="CMYKEnabledKey" value="0"/>
<vectornator:setting key="RulersVisible" value="1"/>
<vectornator:setting key="SnapToEdges" value="0"/>
<vectornator:setting key="OutlineMode" value="0"/>
<vectornator:setting key="DisplayWhiteBackground" value="0"/>
<vectornator:setting key="doHistoryDisabled" value="0"/>
<vectornator:setting key="SnapToGuides" value="1"/>
<vectornator:setting key="TimeLapseWatermarkDisabled" value="0"/>
<vectornator:setting key="DynamicGuides" value="0"/>
<vectornator:setting key="IsolateActiveLayer" value="0"/>
<vectornator:setting key="Units" value="Pixels"/>
<vectornator:setting key="SnapToGrid" value="0"/>
</metadata>
<defs/>
<g id="Layer 1" vectornator:layerName="Layer 1">
<path stroke="#000000" stroke-width="50.4897" d="M1046.06+87.7075L1053.2+90.3823L1510.76+89.3557C1548.49+89.3557+1579.08+124.985+1579.08+168.936L1579.08+1033.14C1579.08+1077.09+1548.49+1112.72+1510.76+1112.72L114.238+1112.72C76.5093+1112.72+45.924+1077.09+45.924+1033.14L45.924+168.936C45.924+124.985+76.5093+89.3557+114.238+89.3557L556.576+85.9243" fill="none" stroke-linecap="round" opacity="1" stroke-linejoin="round"/>
<path stroke="#000000" stroke-width="50.4897" d="M1044.17+91.7121C1044.17+124.386+1015.14+150.874+979.321+150.874L626.115+150.874C590.298+150.874+561.264+124.386+561.264+91.7121" fill="none" stroke-linecap="round" opacity="1" stroke-linejoin="round"/>
<path stroke="#000000" stroke-width="50.4897" d="M561.264+91.7121L561.264+91.7121C561.264+59.0377+590.298+32.5498+626.115+32.5498L979.321+32.5498C1015.14+32.5498+1044.17+59.0377+1044.17+91.7121" fill="none" stroke-linecap="round" opacity="1" stroke-linejoin="round"/>
<path stroke="#000000" stroke-width="50.4897" d="M260.819+1564.12L715.283+1129.24" fill="none" stroke-linecap="round" opacity="1" stroke-linejoin="round"/>
<path stroke="#000000" stroke-width="50.4897" d="M1345.94+1554.33L891.475+1119.45" fill="none" stroke-linecap="round" opacity="1" stroke-linejoin="round"/>
<path stroke="#000000" stroke-width="50.4897" d="M59.456+1021.56L1558.49+1022.96" fill="none" stroke-linecap="round" opacity="1" stroke-linejoin="round"/>
<path stroke="#000000" stroke-width="50.4897" d="M216.071+763.16C216.071+745.559+232.557+731.29+252.892+731.29C273.227+731.29+289.713+745.559+289.713+763.16C289.713+780.761+273.227+795.03+252.892+795.03C232.557+795.03+216.071+780.761+216.071+763.16Z" fill="none" stroke-linecap="round" opacity="1" stroke-linejoin="round"/>
<path stroke="#000000" stroke-width="50.4897" d="M826.443+602.536C826.443+584.935+842.928+570.667+863.264+570.667C883.599+570.667+900.084+584.935+900.084+602.536C900.084+620.138+883.599+634.406+863.264+634.406C842.928+634.406+826.443+620.138+826.443+602.536Z" fill="none" stroke-linecap="round" opacity="1" stroke-linejoin="round"/>
<path stroke="#000000" stroke-width="50.4897" d="M367.602+348.853C367.602+331.252+384.087+316.983+404.423+316.983C424.758+316.983+441.243+331.252+441.243+348.853C441.243+366.454+424.758+380.723+404.423+380.723C384.087+380.723+367.602+366.454+367.602+348.853Z" fill="none" stroke-linecap="round" opacity="1" stroke-linejoin="round"/>
<path stroke="#000000" stroke-width="50.4897" d="M1363.17+235.397C1363.17+217.796+1379.66+203.527+1399.99+203.527C1420.33+203.527+1436.81+217.796+1436.81+235.397C1436.81+252.998+1420.33+267.267+1399.99+267.267C1379.66+267.267+1363.17+252.998+1363.17+235.397Z" fill="none" stroke-linecap="round" opacity="1" stroke-linejoin="round"/>
<path stroke="#000000" stroke-width="50.4897" d="M265.638+730.016L387.429+399.845" fill="none" stroke-linecap="round" opacity="1" stroke-linejoin="round"/>
<path stroke="#000000" stroke-width="50.4897" d="M458.237+360.326L815.114+571.941" fill="none" stroke-linecap="round" opacity="1" stroke-linejoin="round"/>
<path stroke="#000000" stroke-width="50.4897" d="M905.749+592.338L1375.92+268.541" fill="none" stroke-linecap="round" opacity="1" stroke-linejoin="round"/>
<path stroke="#000000" stroke-width="50.4897" d="M139.162+933.467L1495.56+932.068" fill="none" stroke-linecap="round" opacity="1" stroke-linejoin="round"/>
<path stroke="#000000" stroke-width="50.4897" d="M1354.33+902.703L1355.79+858.378" fill="none" stroke-linecap="round" opacity="1" stroke-linejoin="round"/>
<path stroke="#000000" stroke-width="50.4897" d="M437.011+895.711L438.409+828.59" fill="none" stroke-linecap="round" opacity="1" stroke-linejoin="round"/>
<path stroke="#000000" stroke-width="50.4897" d="M532.099+904.101L533.086+777.458" fill="none" stroke-linecap="round" opacity="1" stroke-linejoin="round"/>
<path stroke="#000000" stroke-width="50.4897" d="M631.382+895.711L633.549+750.682" fill="none" stroke-linecap="round" opacity="1" stroke-linejoin="round"/>
<path stroke="#000000" stroke-width="50.4897" d="M234.25+908.296L235.823+859.246" fill="none" stroke-linecap="round" opacity="1" stroke-linejoin="round"/>
<path stroke="#000000" stroke-width="50.4897" d="M332.135+901.305L333.533+834.184" fill="none" stroke-linecap="round" opacity="1" stroke-linejoin="round"/>
<path stroke="#000000" stroke-width="50.4897" d="M740.453+898.508L741.852+831.387" fill="none" stroke-linecap="round" opacity="1" stroke-linejoin="round"/>
<path stroke="#000000" stroke-width="50.4897" d="M841.135+901.305L842.999+798.309" fill="none" stroke-linecap="round" opacity="1" stroke-linejoin="round"/>
<path stroke="#000000" stroke-width="50.4897" d="M941.816+902.703L943.214+835.582" fill="none" stroke-linecap="round" opacity="1" stroke-linejoin="round"/>
<path stroke="#000000" stroke-width="50.4897" d="M1045.29+902.703L1046.76+773.171" fill="none" stroke-linecap="round" opacity="1" stroke-linejoin="round"/>
<path stroke="#000000" stroke-width="50.4897" d="M1161.36+899.906L1162.76+832.785" fill="none" stroke-linecap="round" opacity="1" stroke-linejoin="round"/>
<path stroke="#000000" stroke-width="50.4897" d="M1262.04+901.305L1263.86+805.418" fill="none" stroke-linecap="round" opacity="1" stroke-linejoin="round"/>
<path stroke="#000000" stroke-width="1.21839" d="M1115.91+1167.69C1114.72+1164.33+1112.21+1175+1113.81+1178.18C1123.55+1197.45+1137.2+1214.49+1148.77+1232.71C1155.84+1243.85+1162.57+1255.21+1169.75+1266.27C1173.76+1272.46+1177.91+1278.56+1182.33+1284.45C1183.52+1286.04+1186.72+1290.62+1186.53+1288.65C1185.9+1282.34+1182.9+1276.5+1180.93+1270.47C1176.37+1256.45+1171.35+1242.59+1166.95+1228.52C1150.39+1175.53+1135.34+1121.64+1129.2+1066.31C1128.37+1058.9+1127.15+1051.11+1129.2+1043.94C1130.2+1040.44+1134.05+1037.83+1137.59+1036.94C1142.13+1035.81+1147.86+1035.48+1151.57+1038.34C1158.95+1044.04+1164.02+1052.46+1168.35+1060.72C1174.37+1072.22+1179.29+1084.45+1182.33+1097.07C1185.4+1109.84+1188.18+1123.21+1186.53+1136.23C1184.83+1149.54+1178.95+1162.19+1172.54+1173.98C1167.16+1183.9+1160.26+1193.36+1151.57+1200.55C1146.23+1204.97+1138.81+1208.78+1131.99+1207.54C1126.47+1206.54+1123.07+1200.1+1120.81+1194.96C1117.09+1186.51+1119+1176.39+1115.91+1167.69Z" fill="none" stroke-linecap="round" opacity="1" stroke-linejoin="round"/>
<path stroke="#000000" stroke-width="1.21839" d="M1255.05+1252.29C1236.54+1239.96+1226.41+1217.52+1210.3+1201.95C1199.31+1191.32+1185.24+1180.3+1169.75+1176.78C1166.08+1175.95+1161.22+1175.52+1158.56+1178.18C1155.9+1180.84+1155.84+1185.85+1157.16+1189.37C1161.63+1201.28+1167.83+1212.66+1175.34+1222.93C1187.05+1238.92+1198.99+1255.32+1214.49+1267.67C1227.05+1277.67+1242.15+1285.28+1257.84+1288.65C1269.32+1291.11+1281.87+1288.72+1292.8+1284.45C1301.75+1280.96+1310.56+1274.7+1315.18+1266.27C1321.86+1254.08+1323.93+1239.59+1324.96+1225.72C1326.28+1208.03+1326.07+1189.89+1322.17+1172.58C1318.49+1156.28+1311.19+1140.77+1302.59+1126.44C1291.46+1107.89+1277.55+1091.09+1263.44+1074.7C1251.39+1060.72+1240.42+1044.51+1224.28+1035.55C1219.67+1032.99+1213.38+1041.47+1213.1+1046.73C1212.35+1060.52+1216.05+1074.6+1221.49+1087.29C1231.6+1110.88+1244.34+1133.5+1259.24+1154.41C1273.42+1174.3+1288.64+1194.29+1308.18+1208.94C1321.28+1218.76+1338+1224.65+1354.33+1225.72C1367.87+1226.61+1381.82+1221.48+1393.48+1214.54C1404.53+1207.95+1413.86+1197.84+1420.05+1186.57C1427.29+1173.38+1430.95+1158.17+1432.64+1143.22C1434.26+1128.83+1432.18+1114.16+1429.84+1099.87C1427.96+1088.37+1423.86+1077.32+1420.05+1066.31C1419.62+1065.06+1417.15+1062.2+1417.26+1063.51C1417.81+1070.16+1418.77+1076.98+1421.45+1083.09C1427.24+1096.27+1433.75+1109.36+1442.43+1120.85C1449.78+1130.58+1457.98+1140.78+1468.99+1146.02C1477.85+1150.22+1488.68+1148.94+1498.36+1147.41C1506.82+1146.08+1514.69+1141.88+1522.13+1137.63C1527.88+1134.34+1533.76+1130.5+1537.51+1125.04C1539.36+1122.35+1540.25+1117.03+1537.51+1115.25C1529.35+1109.95+1519.2+1108.13+1509.55+1106.86C1490.58+1104.37+1471.34+1103.71+1452.21+1104.07C1421.4+1104.64+1390.65+1107.31+1359.92+1109.66C1323.53+1112.44+1286.79+1113.07+1250.85+1119.45C1220.78+1124.78+1190.44+1131.73+1162.76+1144.62C1142.55+1154.02+1125.71+1169.75+1109.62+1185.17C1102.98+1191.53+1094.49+1199.82+1095.63+1208.94C1096.49+1215.77+1106.95+1218.19+1113.81+1218.73C1131.53+1220.12+1149.62+1218.45+1166.95+1214.54C1193.26+1208.59+1218.72+1199.14+1243.86+1189.37C1317.79+1160.62+1388.17+1123.27+1462+1094.28C1497.82+1080.22+1534.19+1067.48+1571.07+1056.52C1610.63+1044.77+1651.49+1037.88+1691.33+1027.16" fill="none" stroke-linecap="round" opacity="1" stroke-linejoin="round"/>
</g>
</svg>
